M48
;Layer_Color=9474304
;FILE_FORMAT=4:4
METRIC,LZ
;TYPE=PLATED
T01F00S00C0.2500
T02F00S00C1.0200
T03F00S00C2.0000
;TYPE=NON_PLATED
T04F00S00C1.7000
%
T01
X003556Y00198374
X0043688Y00216916
X00539496Y00216408
X0050927Y0017653
X0047879Y0014605
X0059563Y00120142
X00618236Y00087122
X0062103Y00078232
X0068025Y0006223
X0062865Y0022352
X006223Y0025654
X00637216Y002648
X00581406Y0025146
X0050927Y0028321
X0051308Y0031623
X0053962Y0036576
X0055512Y0037211
X005842Y003556
X006096Y0036703
X00598932Y00392176
X0063373Y0035433
X0062484Y003429
X0064389
X0066421Y0035433
X0070231
X0072898
X007239Y0032639
X00691134Y00318516
X00713486Y00389382
X0074549Y0037465
X004318Y003429
X00804392Y00091948
X00778435Y00407595
X0072263Y0040259
X0069469Y0040767
X00719041Y00511302
X0059436Y0044704
X0056515
X00568706Y00411226
X00418846
T02
X0023368Y0008001
Y0010541
X0033147Y0006096
Y0003556
X0023114Y0034671
Y0037211
X0049403Y0006223
Y0003683
X0087757Y0044831
Y0047371
Y0049911
X0023876Y0059055
Y0061595
T03
X001143Y0002916
Y0024516
Y0043556
Y0065156
T04
X0078994Y0012192
X0085994
M30
