G04*
G04 #@! TF.GenerationSoftware,Altium Limited,Altium Designer,24.6.1 (21)*
G04*
G04 Layer_Physical_Order=2*
G04 Layer_Color=16711680*
%FSLAX44Y44*%
%MOMM*%
G71*
G04*
G04 #@! TF.SameCoordinates,331DEB25-2CF6-4BCB-8A95-B8F28AD14DBC*
G04*
G04*
G04 #@! TF.FilePolarity,Positive*
G04*
G01*
G75*
%ADD12C,0.4000*%
%ADD30C,1.5700*%
%ADD31R,1.5700X1.5700*%
%ADD36C,1.7000*%
%ADD37C,1.5500*%
%ADD38R,1.5500X1.5500*%
%ADD39C,3.0000*%
%ADD40C,0.5500*%
G36*
X839470Y650240D02*
Y68580D01*
X825500Y15240D01*
X131273D01*
X129320Y19240D01*
X130251Y20634D01*
X131608Y23910D01*
X132300Y27387D01*
Y30933D01*
X131608Y34411D01*
X130251Y37686D01*
X130165Y37816D01*
X167261Y74912D01*
X222830D01*
Y69160D01*
X244530D01*
Y90860D01*
X236755D01*
X236228Y94860D01*
X237868Y95299D01*
X240342Y96728D01*
X242362Y98748D01*
X243791Y101222D01*
X244530Y103982D01*
Y106838D01*
X244062Y108583D01*
X541608Y406128D01*
X565988D01*
X567562Y405476D01*
X569850D01*
X571963Y406351D01*
X573581Y407969D01*
X574456Y410082D01*
Y412370D01*
X573581Y414483D01*
X571963Y416101D01*
X569850Y416976D01*
X567562D01*
X565988Y416324D01*
X539496D01*
X537545Y415936D01*
X535891Y414831D01*
X236853Y115793D01*
X235108Y116260D01*
X232252D01*
X229492Y115521D01*
X227018Y114092D01*
X224998Y112072D01*
X223569Y109598D01*
X222830Y106838D01*
Y103982D01*
X223569Y101222D01*
X224998Y98748D01*
X227018Y96728D01*
X229492Y95299D01*
X231132Y94860D01*
X230605Y90860D01*
X222830D01*
Y85108D01*
X165150D01*
X163199Y84720D01*
X161545Y83615D01*
X122955Y45025D01*
X122826Y45112D01*
X119550Y46469D01*
X116073Y47160D01*
X112527D01*
X109050Y46469D01*
X105774Y45112D01*
X102826Y43142D01*
X100318Y40634D01*
X98349Y37686D01*
X96992Y34411D01*
X96300Y30933D01*
Y27387D01*
X96992Y23910D01*
X98349Y20634D01*
X99280Y19240D01*
X97327Y15240D01*
X20618D01*
X17799Y18078D01*
X22225Y680085D01*
X22638Y693466D01*
X825500D01*
X839470Y650240D01*
D02*
G37*
%LPC*%
G36*
X116073Y669560D02*
X112527D01*
X109050Y668868D01*
X105774Y667511D01*
X102826Y665541D01*
X100318Y663034D01*
X98349Y660086D01*
X96992Y656810D01*
X96300Y653333D01*
Y649787D01*
X96992Y646309D01*
X98349Y643034D01*
X100318Y640086D01*
X102826Y637578D01*
X105774Y635608D01*
X109050Y634252D01*
X112527Y633560D01*
X116073D01*
X119550Y634252D01*
X122826Y635608D01*
X125774Y637578D01*
X128281Y640086D01*
X130251Y643034D01*
X131608Y646309D01*
X132300Y649787D01*
Y653333D01*
X131608Y656810D01*
X130251Y660086D01*
X128281Y663034D01*
X125774Y665541D01*
X122826Y667511D01*
X119550Y668868D01*
X116073Y669560D01*
D02*
G37*
G36*
X240188Y626800D02*
X237332D01*
X234572Y626061D01*
X232098Y624632D01*
X230078Y622612D01*
X228649Y620138D01*
X227910Y617378D01*
Y614522D01*
X228649Y611762D01*
X230078Y609288D01*
X232098Y607268D01*
X234572Y605839D01*
X236212Y605400D01*
X235685Y601400D01*
X227910D01*
Y579700D01*
X249610D01*
Y601400D01*
X241835D01*
X241308Y605400D01*
X242948Y605839D01*
X245422Y607268D01*
X247442Y609288D01*
X248871Y611762D01*
X249610Y614522D01*
Y617378D01*
X248871Y620138D01*
X247442Y622612D01*
X245422Y624632D01*
X242948Y626061D01*
X240188Y626800D01*
D02*
G37*
G36*
X720184Y517052D02*
X717897D01*
X716323Y516400D01*
X518922D01*
X516971Y516012D01*
X515317Y514907D01*
X417163Y416753D01*
X415589Y416101D01*
X413971Y414483D01*
X413096Y412370D01*
Y410082D01*
X413971Y407969D01*
X415589Y406351D01*
X417702Y405476D01*
X419990D01*
X422103Y406351D01*
X423721Y407969D01*
X424373Y409543D01*
X521034Y506204D01*
X716323D01*
X717897Y505552D01*
X720184D01*
X722298Y506427D01*
X723915Y508045D01*
X724790Y510158D01*
Y512446D01*
X723915Y514559D01*
X722298Y516177D01*
X720184Y517052D01*
D02*
G37*
G36*
X595504Y452790D02*
X593216D01*
X591642Y452138D01*
X567868D01*
X566294Y452790D01*
X564006D01*
X561893Y451915D01*
X560275Y450297D01*
X559400Y448184D01*
Y445896D01*
X560275Y443783D01*
X561893Y442165D01*
X564006Y441290D01*
X566294D01*
X567868Y441942D01*
X591642D01*
X593216Y441290D01*
X595504D01*
X597617Y442165D01*
X599235Y443783D01*
X600110Y445896D01*
Y448184D01*
X599235Y450297D01*
X597617Y451915D01*
X595504Y452790D01*
D02*
G37*
G36*
X116073Y453560D02*
X112527D01*
X109050Y452868D01*
X105774Y451512D01*
X102826Y449542D01*
X100318Y447034D01*
X98349Y444086D01*
X96992Y440811D01*
X96300Y437333D01*
Y433787D01*
X96992Y430310D01*
X98349Y427034D01*
X100318Y424086D01*
X102826Y421579D01*
X105774Y419609D01*
X109050Y418252D01*
X112527Y417560D01*
X116073D01*
X119550Y418252D01*
X122826Y419609D01*
X125774Y421579D01*
X128281Y424086D01*
X130251Y427034D01*
X131608Y430310D01*
X132300Y433787D01*
Y437333D01*
X131608Y440811D01*
X130251Y444086D01*
X128281Y447034D01*
X125774Y449542D01*
X122826Y451512D01*
X119550Y452868D01*
X116073Y453560D01*
D02*
G37*
G36*
X695834Y413420D02*
X693546D01*
X691433Y412545D01*
X689815Y410927D01*
X688940Y408814D01*
Y406526D01*
X689815Y404413D01*
X691433Y402795D01*
X693546Y401920D01*
X695834D01*
X697408Y402572D01*
X715033D01*
X717390Y400214D01*
X717755Y399333D01*
X719373Y397715D01*
X721486Y396840D01*
X723774D01*
X725887Y397715D01*
X727505Y399333D01*
X728380Y401446D01*
Y403734D01*
X727505Y405847D01*
X725887Y407465D01*
X723774Y408340D01*
X723684D01*
X720749Y411275D01*
X719095Y412380D01*
X717144Y412768D01*
X697408D01*
X695834Y413420D01*
D02*
G37*
G36*
X600076Y397926D02*
X597788D01*
X596214Y397274D01*
X549402D01*
X547451Y396886D01*
X545797Y395781D01*
X353917Y203901D01*
X352343Y203249D01*
X350725Y201631D01*
X349850Y199518D01*
Y197230D01*
X350725Y195117D01*
X352343Y193499D01*
X354456Y192624D01*
X356744D01*
X358857Y193499D01*
X360475Y195117D01*
X361127Y196691D01*
X529870Y365434D01*
X531764Y365047D01*
X534116Y364023D01*
X534745Y362503D01*
X536363Y360885D01*
X538476Y360010D01*
X540764D01*
X542877Y360885D01*
X544495Y362503D01*
X545147Y364077D01*
X548082Y367012D01*
X552402D01*
X553976Y366360D01*
X556264D01*
X558377Y367235D01*
X559995Y368853D01*
X560870Y370966D01*
Y373254D01*
X559995Y375367D01*
X558377Y376985D01*
X556264Y377860D01*
X553976D01*
X552402Y377208D01*
X547300D01*
X545548Y380708D01*
X545504Y381068D01*
X551514Y387078D01*
X596214D01*
X597788Y386426D01*
X600076D01*
X602189Y387301D01*
X603807Y388919D01*
X604682Y391032D01*
Y393320D01*
X603807Y395433D01*
X602189Y397051D01*
X600076Y397926D01*
D02*
G37*
G36*
X232568Y382960D02*
X229712D01*
X226952Y382221D01*
X224478Y380792D01*
X222458Y378772D01*
X221029Y376298D01*
X220290Y373538D01*
Y370682D01*
X221029Y367922D01*
X222458Y365448D01*
X224478Y363428D01*
X226952Y361999D01*
X229712Y361260D01*
X232568D01*
X235328Y361999D01*
X237802Y363428D01*
X239822Y365448D01*
X241251Y367922D01*
X241990Y370682D01*
Y373538D01*
X241251Y376298D01*
X239822Y378772D01*
X237802Y380792D01*
X235328Y382221D01*
X232568Y382960D01*
D02*
G37*
G36*
X665354Y360080D02*
X663066D01*
X661492Y359428D01*
X636448D01*
X634874Y360080D01*
X632586D01*
X630473Y359205D01*
X628855Y357587D01*
X627980Y355474D01*
Y353186D01*
X628472Y351998D01*
X627119Y348937D01*
X626356Y347998D01*
X626110Y348100D01*
Y342900D01*
Y337700D01*
X626356Y337802D01*
X642374D01*
X642620Y337700D01*
Y342900D01*
X643890D01*
Y344170D01*
X649090D01*
X648650Y345232D01*
X649670Y347758D01*
X650696Y349232D01*
X661492D01*
X663066Y348580D01*
X665354D01*
X667467Y349455D01*
X669085Y351073D01*
X669960Y353186D01*
Y355474D01*
X669085Y357587D01*
X667467Y359205D01*
X665354Y360080D01*
D02*
G37*
G36*
X610744Y372780D02*
X608456D01*
X606343Y371905D01*
X604725Y370287D01*
X604073Y368713D01*
X593186Y357825D01*
X588685Y358597D01*
X587197Y360085D01*
X585470Y360800D01*
Y355600D01*
X582930D01*
Y360800D01*
X582684Y360698D01*
X552450D01*
X550499Y360310D01*
X548845Y359205D01*
X510547Y320907D01*
X510084Y320715D01*
X508595Y319226D01*
X507880Y317500D01*
X513080D01*
Y316230D01*
X514350D01*
Y311030D01*
X516077Y311745D01*
X517565Y313234D01*
X517757Y313697D01*
X554562Y350502D01*
X580206D01*
X581862Y346502D01*
X523668Y288308D01*
X511988D01*
X510414Y288960D01*
X508126D01*
X506013Y288085D01*
X504395Y286467D01*
X503520Y284354D01*
Y282066D01*
X504395Y279953D01*
X506013Y278335D01*
X508126Y277460D01*
X510414D01*
X511988Y278112D01*
X525780D01*
X527731Y278500D01*
X529385Y279605D01*
X611283Y361503D01*
X612857Y362155D01*
X614475Y363773D01*
X615350Y365886D01*
Y368174D01*
X614475Y370287D01*
X612857Y371905D01*
X610744Y372780D01*
D02*
G37*
G36*
X241530Y357100D02*
X232410D01*
Y347980D01*
X241530D01*
Y357100D01*
D02*
G37*
G36*
X229870D02*
X220750D01*
Y347980D01*
X229870D01*
Y357100D01*
D02*
G37*
G36*
X623570Y348100D02*
X621843Y347385D01*
X620355Y345896D01*
X619640Y344170D01*
X623570D01*
Y348100D01*
D02*
G37*
G36*
X649090Y341630D02*
X645160D01*
Y337700D01*
X646887Y338415D01*
X648375Y339903D01*
X649090Y341630D01*
D02*
G37*
G36*
X623570D02*
X619640D01*
X620355Y339903D01*
X621843Y338415D01*
X623570Y337700D01*
Y341630D01*
D02*
G37*
G36*
X241530Y345440D02*
X232410D01*
Y336320D01*
X241530D01*
Y345440D01*
D02*
G37*
G36*
X229870D02*
X220750D01*
Y336320D01*
X229870D01*
Y345440D01*
D02*
G37*
G36*
X609600Y436898D02*
X520700D01*
X518749Y436510D01*
X517095Y435405D01*
X430117Y348427D01*
X428543Y347775D01*
X426925Y346157D01*
X426050Y344044D01*
Y341756D01*
X426925Y339643D01*
X428543Y338025D01*
X430656Y337150D01*
X432944D01*
X435057Y338025D01*
X436675Y339643D01*
X437327Y341217D01*
X522812Y426702D01*
X607488D01*
X706881Y327309D01*
X705350Y323614D01*
X693852D01*
X692278Y324266D01*
X689990D01*
X687877Y323391D01*
X686259Y321773D01*
X685384Y319660D01*
Y317372D01*
X686259Y315259D01*
X687877Y313641D01*
X689990Y312766D01*
X692278D01*
X693852Y313418D01*
X736600D01*
X738551Y313806D01*
X740205Y314911D01*
X748079Y322785D01*
X749184Y324439D01*
X749572Y326390D01*
Y358394D01*
X749184Y360345D01*
X748079Y361999D01*
X745178Y364900D01*
X746634Y368900D01*
X748747Y369775D01*
X750365Y371393D01*
X751017Y372967D01*
X780118Y402069D01*
X781692Y402721D01*
X783310Y404338D01*
X784185Y406452D01*
Y408739D01*
X783310Y410852D01*
X781692Y412470D01*
X779579Y413345D01*
X777292D01*
X775178Y412470D01*
X773561Y410852D01*
X772909Y409278D01*
X743807Y380177D01*
X742233Y379525D01*
X740615Y377907D01*
X739740Y375794D01*
X735740Y374338D01*
X719013Y391065D01*
X718361Y392639D01*
X716743Y394257D01*
X714630Y395132D01*
X712342D01*
X710229Y394257D01*
X708611Y392639D01*
X707736Y390526D01*
Y388238D01*
X708611Y386125D01*
X710229Y384507D01*
X711803Y383855D01*
X732044Y363614D01*
X730429Y360641D01*
X729922Y360080D01*
X727836D01*
X726262Y359428D01*
X705028D01*
X703454Y360080D01*
X701166D01*
X699053Y359205D01*
X697435Y357587D01*
X697214Y357052D01*
X693163Y355835D01*
X692729Y355881D01*
X613205Y435405D01*
X611551Y436510D01*
X609600Y436898D01*
D02*
G37*
G36*
X511810Y314960D02*
X507880D01*
X508595Y313234D01*
X510084Y311745D01*
X511810Y311030D01*
Y314960D01*
D02*
G37*
G36*
X638360Y270550D02*
X636073D01*
X634499Y269898D01*
X484764D01*
X482813Y269510D01*
X481159Y268405D01*
X435197Y222443D01*
X433623Y221791D01*
X432005Y220173D01*
X431130Y218060D01*
Y215772D01*
X432005Y213659D01*
X433623Y212041D01*
X435736Y211166D01*
X438024D01*
X440137Y212041D01*
X441755Y213659D01*
X442407Y215233D01*
X486876Y259702D01*
X576290D01*
X576848Y258692D01*
X577516Y255702D01*
X576531Y254717D01*
X575656Y252604D01*
Y250316D01*
X576531Y248203D01*
X578149Y246585D01*
X580262Y245710D01*
X582550D01*
X584124Y246362D01*
X589962D01*
X613138Y223186D01*
Y89840D01*
X612486Y88266D01*
Y85978D01*
X613361Y83865D01*
X614979Y82247D01*
X615280Y79376D01*
Y77088D01*
X616155Y74975D01*
X617773Y73357D01*
X619886Y72482D01*
X622174D01*
X624287Y73357D01*
X625905Y74975D01*
X626557Y76549D01*
X636858Y86850D01*
X801674D01*
X803248Y86198D01*
X805536D01*
X807649Y87073D01*
X809267Y88691D01*
X810142Y90804D01*
Y93092D01*
X809267Y95205D01*
X807649Y96823D01*
X805536Y97698D01*
X803248D01*
X801674Y97046D01*
X634746D01*
X632795Y96658D01*
X631141Y95553D01*
X627334Y91746D01*
X623334Y93402D01*
Y215478D01*
X627334Y217841D01*
X627506Y217770D01*
X629794D01*
X631907Y218645D01*
X633525Y220263D01*
X634400Y222376D01*
Y224664D01*
X633748Y226238D01*
Y247650D01*
X633360Y249601D01*
X632255Y251255D01*
X628050Y255460D01*
Y257684D01*
X629399Y259702D01*
X634499D01*
X636073Y259050D01*
X638360D01*
X640473Y259925D01*
X642091Y261543D01*
X642966Y263656D01*
Y265944D01*
X642091Y268057D01*
X640473Y269675D01*
X638360Y270550D01*
D02*
G37*
G36*
X116073Y263160D02*
X112527D01*
X109050Y262468D01*
X105774Y261111D01*
X102826Y259141D01*
X100318Y256634D01*
X98349Y253686D01*
X96992Y250410D01*
X96300Y246933D01*
Y243387D01*
X96992Y239909D01*
X98349Y236634D01*
X100318Y233685D01*
X102826Y231178D01*
X105774Y229208D01*
X109050Y227852D01*
X112527Y227160D01*
X116073D01*
X119550Y227852D01*
X122826Y229208D01*
X125774Y231178D01*
X128281Y233685D01*
X130251Y236634D01*
X131608Y239909D01*
X132300Y243387D01*
Y246933D01*
X131608Y250410D01*
X130251Y253686D01*
X128281Y256634D01*
X125774Y259141D01*
X122826Y261111D01*
X119550Y262468D01*
X116073Y263160D01*
D02*
G37*
G36*
X510414Y182280D02*
X508126D01*
X506013Y181405D01*
X504395Y179787D01*
X503743Y178213D01*
X477107Y151577D01*
X475533Y150925D01*
X473915Y149307D01*
X473040Y147194D01*
Y144906D01*
X473915Y142793D01*
X475533Y141175D01*
X477646Y140300D01*
X479934D01*
X482047Y141175D01*
X483665Y142793D01*
X484317Y144367D01*
X510953Y171003D01*
X512527Y171655D01*
X514145Y173273D01*
X515020Y175386D01*
Y177674D01*
X514145Y179787D01*
X512527Y181405D01*
X510414Y182280D01*
D02*
G37*
G36*
X540640Y222158D02*
X538352D01*
X536239Y221283D01*
X534621Y219665D01*
X533746Y217552D01*
Y215264D01*
X534621Y213151D01*
X536239Y211533D01*
X537813Y210881D01*
X590532Y158162D01*
Y122860D01*
X589880Y121286D01*
Y118998D01*
X590755Y116885D01*
X592373Y115267D01*
X594486Y114392D01*
X596774D01*
X598887Y115267D01*
X600505Y116885D01*
X601380Y118998D01*
Y121286D01*
X600728Y122860D01*
Y160274D01*
X600340Y162225D01*
X599235Y163879D01*
X545023Y218091D01*
X544371Y219665D01*
X542753Y221283D01*
X540640Y222158D01*
D02*
G37*
G36*
X791454Y133420D02*
X788426D01*
X785501Y132636D01*
X782879Y131122D01*
X780738Y128981D01*
X779224Y126359D01*
X778440Y123434D01*
Y120406D01*
X779224Y117481D01*
X780738Y114859D01*
X782879Y112718D01*
X785501Y111204D01*
X788426Y110420D01*
X791454D01*
X794379Y111204D01*
X797001Y112718D01*
X799142Y114859D01*
X800656Y117481D01*
X801440Y120406D01*
Y123434D01*
X800656Y126359D01*
X799142Y128981D01*
X797001Y131122D01*
X794379Y132636D01*
X791454Y133420D01*
D02*
G37*
G36*
X495458Y73080D02*
X492602D01*
X489842Y72341D01*
X487368Y70912D01*
X485348Y68892D01*
X484445Y67328D01*
X412750D01*
X410799Y66940D01*
X409479Y66058D01*
X341055D01*
X340152Y67622D01*
X338132Y69642D01*
X335658Y71071D01*
X332898Y71810D01*
X330042D01*
X327282Y71071D01*
X324808Y69642D01*
X322788Y67622D01*
X321359Y65148D01*
X320620Y62388D01*
Y59532D01*
X321359Y56772D01*
X322788Y54298D01*
X324808Y52278D01*
X327282Y50849D01*
X330042Y50110D01*
X332898D01*
X335658Y50849D01*
X338132Y52278D01*
X340152Y54298D01*
X341055Y55862D01*
X411480D01*
X413431Y56250D01*
X414751Y57132D01*
X484445D01*
X485348Y55568D01*
X487368Y53548D01*
X489842Y52119D01*
X491482Y51680D01*
X490955Y47680D01*
X483180D01*
Y25980D01*
X504880D01*
Y47680D01*
X497105D01*
X496578Y51680D01*
X498218Y52119D01*
X500692Y53548D01*
X502712Y55568D01*
X503615Y57132D01*
X677532D01*
X679106Y56480D01*
X681393D01*
X683507Y57355D01*
X685124Y58973D01*
X686000Y61086D01*
Y63374D01*
X685124Y65487D01*
X683507Y67105D01*
X681393Y67980D01*
X679106D01*
X677532Y67328D01*
X503615D01*
X502712Y68892D01*
X500692Y70912D01*
X498218Y72341D01*
X495458Y73080D01*
D02*
G37*
G36*
X341860Y45950D02*
X332740D01*
Y36830D01*
X341860D01*
Y45950D01*
D02*
G37*
G36*
X330200D02*
X321080D01*
Y36830D01*
X330200D01*
Y45950D01*
D02*
G37*
G36*
X341860Y34290D02*
X332740D01*
Y25170D01*
X341860D01*
Y34290D01*
D02*
G37*
G36*
X330200D02*
X321080D01*
Y25170D01*
X330200D01*
Y34290D01*
D02*
G37*
%LPD*%
G36*
X739376Y353446D02*
Y328502D01*
X734505Y323631D01*
X730585Y323847D01*
X729650Y325246D01*
Y327534D01*
X728775Y329647D01*
X727157Y331265D01*
X725044Y332140D01*
X722756D01*
X721182Y331488D01*
X717122D01*
X703861Y344749D01*
X703815Y345183D01*
X705025Y349223D01*
X705034Y349232D01*
X726262D01*
X727836Y348580D01*
X730124D01*
X732237Y349455D01*
X733855Y351073D01*
X734188Y351878D01*
X737754Y353673D01*
X738730Y353830D01*
X739376Y353446D01*
D02*
G37*
G36*
X616550Y257684D02*
Y255396D01*
X617270Y253658D01*
X617590Y252049D01*
X618695Y250395D01*
X623552Y245538D01*
Y232848D01*
X619552Y231192D01*
X595679Y255065D01*
X594725Y255702D01*
X595127Y259022D01*
X595390Y259702D01*
X615201D01*
X616550Y257684D01*
D02*
G37*
D12*
X525780Y283210D02*
X609600Y367030D01*
X702310Y354330D02*
X728980D01*
X633730D02*
X664210D01*
X717144Y407670D02*
X722224Y402590D01*
X694690Y407670D02*
X717144D01*
X722224Y402590D02*
X722630D01*
X509270Y283210D02*
X525780D01*
X552450Y355600D02*
X584200D01*
X513080Y316230D02*
X552450Y355600D01*
X624840Y342900D02*
X643890D01*
X545970Y372110D02*
X555120D01*
X539620Y365760D02*
X545970Y372110D01*
X549402Y392176D02*
X598932D01*
X355600Y198374D02*
X549402Y392176D01*
X715010Y326390D02*
X723900D01*
X520700Y431800D02*
X609600D01*
X715010Y326390D01*
X565150Y447040D02*
X594360D01*
X713486Y389382D02*
X744474Y358394D01*
X622300Y254000D02*
Y256540D01*
Y254000D02*
X628650Y247650D01*
X484764Y264800D02*
X637216D01*
X581406Y251460D02*
X592074D01*
X618236Y225298D01*
X436880Y216916D02*
X484764Y264800D01*
X628650Y223520D02*
Y247650D01*
X618236Y87122D02*
Y225298D01*
X539496Y216408D02*
X595630Y160274D01*
Y120142D02*
Y160274D01*
X478790Y146050D02*
X509270Y176530D01*
X431800Y342900D02*
X520700Y431800D01*
X745490Y374650D02*
X778435Y407595D01*
X331470Y60960D02*
X411480D01*
X412750Y62230D01*
X494030D01*
X691134Y318516D02*
X736600D01*
X744474Y326390D01*
Y358394D01*
X114300Y29160D02*
X165150Y80010D01*
X233680D01*
X494030Y62230D02*
X680250D01*
X621030Y78232D02*
X634746Y91948D01*
X804392D01*
X418846Y411226D02*
X518922Y511302D01*
X719041D01*
X233680Y105410D02*
X539496Y411226D01*
X568706D01*
D30*
X494030Y62230D02*
D03*
X331470Y60960D02*
D03*
X233680Y105410D02*
D03*
X231140Y372110D02*
D03*
X238760Y615950D02*
D03*
D31*
X494030Y36830D02*
D03*
X331470Y35560D02*
D03*
X233680Y80010D02*
D03*
X231140Y346710D02*
D03*
X238760Y590550D02*
D03*
D36*
X789940Y121920D02*
D03*
X859940D02*
D03*
D37*
X877570Y499110D02*
D03*
Y473710D02*
D03*
D38*
Y448310D02*
D03*
D39*
X114300Y29160D02*
D03*
Y245160D02*
D03*
Y435560D02*
D03*
Y651560D02*
D03*
D40*
X609600Y367030D02*
D03*
X702310Y354330D02*
D03*
X728980D02*
D03*
X664210D02*
D03*
X694690Y407670D02*
D03*
X722630Y402590D02*
D03*
X584200Y355600D02*
D03*
X643890Y342900D02*
D03*
X624840D02*
D03*
X633730Y354330D02*
D03*
X555120Y372110D02*
D03*
X565150Y447040D02*
D03*
X594360D02*
D03*
X539620Y365760D02*
D03*
X622300Y256540D02*
D03*
X581406Y251460D02*
D03*
X628650Y223520D02*
D03*
X595630Y120142D02*
D03*
X513080Y316230D02*
D03*
X436880Y216916D02*
D03*
X637216Y264800D02*
D03*
X478790Y146050D02*
D03*
X509270Y176530D02*
D03*
Y283210D02*
D03*
X723900Y326390D02*
D03*
X431800Y342900D02*
D03*
X745490Y374650D02*
D03*
X778435Y407595D02*
D03*
X539496Y216408D02*
D03*
X691134Y318516D02*
D03*
X713486Y389382D02*
D03*
X355600Y198374D02*
D03*
X598932Y392176D02*
D03*
X680250Y62230D02*
D03*
X621030Y78232D02*
D03*
X804392Y91948D02*
D03*
X618236Y87122D02*
D03*
X418846Y411226D02*
D03*
X719041Y511302D02*
D03*
X568706Y411226D02*
D03*
M02*
