G04*
G04 #@! TF.GenerationSoftware,Altium Limited,Altium Designer,24.6.1 (21)*
G04*
G04 Layer_Color=16711935*
%FSLAX44Y44*%
%MOMM*%
G71*
G04*
G04 #@! TF.SameCoordinates,331DEB25-2CF6-4BCB-8A95-B8F28AD14DBC*
G04*
G04*
G04 #@! TF.FilePolarity,Negative*
G04*
G01*
G75*
%ADD29C,1.9032*%
%ADD30C,1.5700*%
%ADD31R,1.5700X1.5700*%
%ADD32C,1.7532*%
%ADD33R,1.7532X1.7532*%
%ADD34C,3.2032*%
%ADD35C,0.7532*%
D29*
X789940Y121920D02*
D03*
X859940D02*
D03*
D30*
X494030Y62230D02*
D03*
X331470Y60960D02*
D03*
X233680Y105410D02*
D03*
X231140Y372110D02*
D03*
X238760Y615950D02*
D03*
D31*
X494030Y36830D02*
D03*
X331470Y35560D02*
D03*
X233680Y80010D02*
D03*
X231140Y346710D02*
D03*
X238760Y590550D02*
D03*
D32*
X877570Y499110D02*
D03*
Y473710D02*
D03*
D33*
Y448310D02*
D03*
D34*
X114300Y29160D02*
D03*
Y245160D02*
D03*
Y435560D02*
D03*
Y651560D02*
D03*
D35*
X609600Y367030D02*
D03*
X702310Y354330D02*
D03*
X728980D02*
D03*
X664210D02*
D03*
X694690Y407670D02*
D03*
X722630Y402590D02*
D03*
X584200Y355600D02*
D03*
X643890Y342900D02*
D03*
X624840D02*
D03*
X633730Y354330D02*
D03*
X555120Y372110D02*
D03*
X565150Y447040D02*
D03*
X594360D02*
D03*
X539620Y365760D02*
D03*
X622300Y256540D02*
D03*
X581406Y251460D02*
D03*
X628650Y223520D02*
D03*
X595630Y120142D02*
D03*
X513080Y316230D02*
D03*
X436880Y216916D02*
D03*
X637216Y264800D02*
D03*
X478790Y146050D02*
D03*
X509270Y176530D02*
D03*
Y283210D02*
D03*
X723900Y326390D02*
D03*
X431800Y342900D02*
D03*
X745490Y374650D02*
D03*
X778435Y407595D02*
D03*
X539496Y216408D02*
D03*
X691134Y318516D02*
D03*
X713486Y389382D02*
D03*
X355600Y198374D02*
D03*
X598932Y392176D02*
D03*
X680250Y62230D02*
D03*
X621030Y78232D02*
D03*
X804392Y91948D02*
D03*
X618236Y87122D02*
D03*
X418846Y411226D02*
D03*
X719041Y511302D02*
D03*
X568706Y411226D02*
D03*
M02*
