G04*
G04 #@! TF.GenerationSoftware,Altium Limited,Altium Designer,24.6.1 (21)*
G04*
G04 Layer_Color=16711935*
%FSLAX44Y44*%
%MOMM*%
G71*
G04*
G04 #@! TF.SameCoordinates,331DEB25-2CF6-4BCB-8A95-B8F28AD14DBC*
G04*
G04*
G04 #@! TF.FilePolarity,Positive*
G04*
G01*
G75*
%ADD12C,0.4000*%
G36*
X572795Y391322D02*
X572870Y391314D01*
X572953Y391297D01*
X573045Y391281D01*
X573144Y391256D01*
X573253Y391222D01*
X573369Y391181D01*
X573486Y391131D01*
X573611Y391072D01*
X573728Y390997D01*
X573853Y390914D01*
X573969Y390822D01*
X574078Y390714D01*
X574086Y390706D01*
X574103Y390689D01*
X574128Y390656D01*
X574169Y390606D01*
X574211Y390548D01*
X574261Y390473D01*
X574311Y390389D01*
X574361Y390298D01*
X574419Y390189D01*
X574469Y390073D01*
X574519Y389948D01*
X574561Y389806D01*
X574603Y389664D01*
X574627Y389506D01*
X574644Y389348D01*
X574652Y389173D01*
Y389090D01*
X574644Y389031D01*
X574636Y388965D01*
X574627Y388881D01*
X574611Y388781D01*
X574586Y388681D01*
X574528Y388465D01*
X574486Y388348D01*
X574444Y388232D01*
X574386Y388106D01*
X574319Y387990D01*
X574244Y387882D01*
X574153Y387773D01*
X574144Y387765D01*
X574128Y387748D01*
X574103Y387723D01*
X574061Y387682D01*
X574011Y387640D01*
X573953Y387590D01*
X573878Y387540D01*
X573803Y387482D01*
X573711Y387432D01*
X573611Y387373D01*
X573503Y387323D01*
X573386Y387273D01*
X573261Y387223D01*
X573136Y387190D01*
X572994Y387157D01*
X572845Y387140D01*
X572736Y387923D01*
X572745D01*
X572770Y387932D01*
X572803Y387940D01*
X572845Y387948D01*
X572903Y387965D01*
X572961Y387981D01*
X573111Y388032D01*
X573270Y388090D01*
X573428Y388173D01*
X573586Y388265D01*
X573653Y388315D01*
X573711Y388373D01*
X573719Y388390D01*
X573753Y388431D01*
X573803Y388498D01*
X573853Y388598D01*
X573911Y388715D01*
X573953Y388848D01*
X573986Y389006D01*
X574003Y389173D01*
Y389231D01*
X573994Y389265D01*
Y389314D01*
X573986Y389373D01*
X573953Y389498D01*
X573911Y389648D01*
X573844Y389806D01*
X573744Y389964D01*
X573686Y390039D01*
X573619Y390114D01*
X573611Y390123D01*
X573603Y390131D01*
X573578Y390148D01*
X573553Y390173D01*
X573469Y390239D01*
X573353Y390306D01*
X573219Y390373D01*
X573053Y390439D01*
X572870Y390481D01*
X572770Y390498D01*
X572670D01*
X572661D01*
X572645D01*
X572620D01*
X572578Y390489D01*
X572536D01*
X572478Y390481D01*
X572353Y390456D01*
X572211Y390414D01*
X572061Y390348D01*
X571920Y390256D01*
X571845Y390206D01*
X571778Y390139D01*
X571762Y390123D01*
X571720Y390073D01*
X571670Y389998D01*
X571603Y389898D01*
X571537Y389764D01*
X571487Y389614D01*
X571445Y389440D01*
X571428Y389240D01*
Y389148D01*
X571437Y389090D01*
X571445Y389006D01*
X571462Y388906D01*
X571487Y388798D01*
X571512Y388681D01*
X570820Y388773D01*
Y388790D01*
X570828Y388815D01*
X570837Y388856D01*
Y388948D01*
X570828Y388981D01*
X570820Y389081D01*
X570803Y389198D01*
X570770Y389339D01*
X570728Y389490D01*
X570662Y389648D01*
X570578Y389798D01*
Y389806D01*
X570562Y389814D01*
X570528Y389864D01*
X570462Y389931D01*
X570378Y390006D01*
X570262Y390081D01*
X570120Y390139D01*
X569954Y390189D01*
X569862Y390198D01*
X569762Y390206D01*
X569754D01*
X569745D01*
X569687Y390198D01*
X569612Y390189D01*
X569512Y390173D01*
X569404Y390131D01*
X569287Y390081D01*
X569162Y390006D01*
X569054Y389906D01*
X569037Y389889D01*
X569004Y389856D01*
X568962Y389789D01*
X568904Y389706D01*
X568854Y389598D01*
X568804Y389464D01*
X568771Y389323D01*
X568762Y389156D01*
Y389115D01*
X568771Y389081D01*
X568779Y388990D01*
X568796Y388881D01*
X568837Y388765D01*
X568887Y388631D01*
X568954Y388506D01*
X569054Y388381D01*
X569071Y388365D01*
X569104Y388331D01*
X569170Y388282D01*
X569271Y388223D01*
X569387Y388157D01*
X569537Y388090D01*
X569712Y388040D01*
X569912Y387998D01*
X569770Y387215D01*
X569762D01*
X569737Y387223D01*
X569695Y387232D01*
X569637Y387248D01*
X569579Y387265D01*
X569495Y387290D01*
X569412Y387315D01*
X569320Y387348D01*
X569129Y387440D01*
X568929Y387548D01*
X568729Y387690D01*
X568637Y387773D01*
X568554Y387865D01*
X568546Y387873D01*
X568537Y387890D01*
X568512Y387915D01*
X568487Y387957D01*
X568454Y388007D01*
X568412Y388065D01*
X568371Y388140D01*
X568329Y388215D01*
X568296Y388307D01*
X568254Y388398D01*
X568179Y388615D01*
X568129Y388865D01*
X568121Y388998D01*
X568112Y389140D01*
Y389231D01*
X568121Y389273D01*
Y389331D01*
X568137Y389456D01*
X568171Y389606D01*
X568204Y389764D01*
X568262Y389931D01*
X568337Y390098D01*
Y390106D01*
X568346Y390114D01*
X568362Y390139D01*
X568379Y390173D01*
X568429Y390248D01*
X568496Y390348D01*
X568587Y390456D01*
X568696Y390573D01*
X568812Y390681D01*
X568954Y390773D01*
X568962D01*
X568971Y390781D01*
X569021Y390814D01*
X569104Y390848D01*
X569204Y390897D01*
X569329Y390939D01*
X569470Y390981D01*
X569620Y391006D01*
X569779Y391014D01*
X569787D01*
X569795D01*
X569845D01*
X569929Y391006D01*
X570029Y390989D01*
X570145Y390956D01*
X570270Y390923D01*
X570404Y390864D01*
X570537Y390789D01*
X570554Y390781D01*
X570595Y390747D01*
X570653Y390698D01*
X570728Y390622D01*
X570820Y390531D01*
X570912Y390414D01*
X570995Y390281D01*
X571078Y390131D01*
Y390139D01*
X571087Y390156D01*
X571095Y390189D01*
X571103Y390223D01*
X571120Y390273D01*
X571145Y390331D01*
X571195Y390456D01*
X571270Y390597D01*
X571370Y390739D01*
X571487Y390889D01*
X571628Y391014D01*
X571637D01*
X571645Y391031D01*
X571670Y391047D01*
X571703Y391064D01*
X571745Y391089D01*
X571786Y391114D01*
X571912Y391172D01*
X572061Y391231D01*
X572236Y391281D01*
X572428Y391314D01*
X572653Y391331D01*
X572661D01*
X572686D01*
X572736D01*
X572795Y391322D01*
D02*
G37*
G36*
X572086Y386032D02*
X572178D01*
X572286Y386024D01*
X572395Y386015D01*
X572645Y385982D01*
X572903Y385949D01*
X573153Y385890D01*
X573270Y385857D01*
X573378Y385815D01*
X573386D01*
X573403Y385807D01*
X573436Y385790D01*
X573469Y385774D01*
X573519Y385749D01*
X573578Y385715D01*
X573703Y385632D01*
X573853Y385524D01*
X574003Y385391D01*
X574161Y385224D01*
X574236Y385124D01*
X574302Y385024D01*
Y385016D01*
X574319Y384999D01*
X574336Y384966D01*
X574361Y384924D01*
X574386Y384866D01*
X574411Y384799D01*
X574444Y384716D01*
X574478Y384624D01*
X574511Y384524D01*
X574544Y384408D01*
X574569Y384291D01*
X574594Y384157D01*
X574619Y384016D01*
X574636Y383866D01*
X574644Y383699D01*
X574652Y383533D01*
Y383449D01*
X574644Y383383D01*
Y383308D01*
X574636Y383216D01*
X574627Y383116D01*
X574611Y383008D01*
X574577Y382775D01*
X574519Y382533D01*
X574444Y382283D01*
X574344Y382058D01*
Y382050D01*
X574328Y382033D01*
X574311Y382000D01*
X574286Y381966D01*
X574219Y381866D01*
X574119Y381741D01*
X573994Y381608D01*
X573836Y381475D01*
X573661Y381350D01*
X573453Y381242D01*
X573444D01*
X573428Y381233D01*
X573394Y381217D01*
X573344Y381208D01*
X573286Y381183D01*
X573211Y381167D01*
X573128Y381142D01*
X573028Y381125D01*
X572920Y381100D01*
X572803Y381075D01*
X572670Y381058D01*
X572528Y381042D01*
X572370Y381025D01*
X572203Y381008D01*
X572028Y381000D01*
X571845D01*
X568137D01*
Y381850D01*
X571837D01*
X571845D01*
X571870D01*
X571920D01*
X571970D01*
X572045Y381858D01*
X572120D01*
X572211Y381866D01*
X572303D01*
X572503Y381883D01*
X572711Y381916D01*
X572903Y381950D01*
X572986Y381975D01*
X573069Y382000D01*
X573078D01*
X573086Y382008D01*
X573136Y382033D01*
X573203Y382066D01*
X573294Y382125D01*
X573386Y382200D01*
X573494Y382291D01*
X573586Y382400D01*
X573678Y382533D01*
Y382541D01*
X573686Y382550D01*
X573711Y382600D01*
X573744Y382683D01*
X573778Y382791D01*
X573819Y382924D01*
X573853Y383083D01*
X573878Y383258D01*
X573886Y383458D01*
Y383549D01*
X573878Y383608D01*
X573869Y383683D01*
X573861Y383774D01*
X573853Y383874D01*
X573836Y383974D01*
X573786Y384191D01*
X573711Y384416D01*
X573661Y384516D01*
X573603Y384616D01*
X573544Y384707D01*
X573469Y384791D01*
X573461Y384799D01*
X573444Y384807D01*
X573419Y384824D01*
X573386Y384857D01*
X573336Y384882D01*
X573270Y384916D01*
X573195Y384957D01*
X573103Y384991D01*
X573003Y385032D01*
X572886Y385066D01*
X572753Y385099D01*
X572603Y385132D01*
X572436Y385157D01*
X572253Y385174D01*
X572053Y385182D01*
X571837Y385191D01*
X568137D01*
Y386040D01*
X571845D01*
X571853D01*
X571886D01*
X571936D01*
X572003D01*
X572086Y386032D01*
D02*
G37*
G36*
X696168Y250190D02*
X695384D01*
Y255197D01*
X695368Y255189D01*
X695334Y255155D01*
X695268Y255097D01*
X695184Y255030D01*
X695076Y254947D01*
X694943Y254855D01*
X694801Y254755D01*
X694635Y254655D01*
X694626D01*
X694618Y254647D01*
X694593Y254630D01*
X694560Y254614D01*
X694468Y254564D01*
X694360Y254505D01*
X694235Y254439D01*
X694093Y254372D01*
X693951Y254305D01*
X693810Y254247D01*
Y255014D01*
X693818D01*
X693843Y255030D01*
X693876Y255047D01*
X693918Y255072D01*
X693976Y255097D01*
X694043Y255139D01*
X694201Y255222D01*
X694376Y255330D01*
X694576Y255464D01*
X694768Y255605D01*
X694959Y255763D01*
X694968Y255772D01*
X694985Y255780D01*
X695010Y255805D01*
X695043Y255838D01*
X695126Y255922D01*
X695234Y256038D01*
X695343Y256163D01*
X695459Y256313D01*
X695568Y256463D01*
X695659Y256622D01*
X696168D01*
Y250190D01*
D02*
G37*
G36*
X690127Y256588D02*
X690202D01*
X690294Y256580D01*
X690394Y256572D01*
X690602Y256555D01*
X690819Y256522D01*
X691027Y256480D01*
X691127Y256455D01*
X691210Y256422D01*
X691219D01*
X691227Y256413D01*
X691252Y256405D01*
X691285Y256388D01*
X691369Y256347D01*
X691469Y256280D01*
X691585Y256197D01*
X691702Y256088D01*
X691819Y255955D01*
X691927Y255805D01*
Y255797D01*
X691935Y255788D01*
X691952Y255763D01*
X691969Y255730D01*
X692010Y255639D01*
X692060Y255522D01*
X692110Y255380D01*
X692152Y255214D01*
X692185Y255030D01*
X692194Y254839D01*
Y254830D01*
Y254805D01*
Y254772D01*
X692185Y254722D01*
X692177Y254664D01*
X692169Y254597D01*
X692135Y254439D01*
X692085Y254256D01*
X692010Y254064D01*
X691960Y253972D01*
X691902Y253872D01*
X691827Y253781D01*
X691752Y253689D01*
X691744Y253681D01*
X691735Y253672D01*
X691702Y253647D01*
X691669Y253614D01*
X691619Y253581D01*
X691560Y253539D01*
X691494Y253489D01*
X691419Y253439D01*
X691327Y253389D01*
X691227Y253339D01*
X691111Y253289D01*
X690985Y253239D01*
X690852Y253197D01*
X690711Y253156D01*
X690552Y253123D01*
X690386Y253097D01*
X690402Y253089D01*
X690444Y253072D01*
X690502Y253039D01*
X690577Y252997D01*
X690744Y252889D01*
X690819Y252831D01*
X690894Y252773D01*
X690902D01*
X690911Y252756D01*
X690960Y252714D01*
X691027Y252639D01*
X691127Y252539D01*
X691236Y252423D01*
X691352Y252273D01*
X691477Y252106D01*
X691602Y251923D01*
X692710Y250190D01*
X691644D01*
X690802Y251514D01*
Y251523D01*
X690786Y251539D01*
X690769Y251573D01*
X690744Y251606D01*
X690711Y251656D01*
X690669Y251714D01*
X690586Y251840D01*
X690486Y251981D01*
X690386Y252123D01*
X690286Y252264D01*
X690186Y252389D01*
X690177Y252406D01*
X690144Y252439D01*
X690102Y252498D01*
X690044Y252556D01*
X689977Y252631D01*
X689902Y252706D01*
X689827Y252764D01*
X689753Y252822D01*
X689744Y252831D01*
X689719Y252839D01*
X689686Y252864D01*
X689636Y252889D01*
X689578Y252922D01*
X689511Y252948D01*
X689369Y252997D01*
X689361D01*
X689344Y253006D01*
X689311D01*
X689261Y253014D01*
X689194Y253022D01*
X689111D01*
X689019Y253031D01*
X687920D01*
Y250190D01*
X687070D01*
Y256597D01*
X690052D01*
X690127Y256588D01*
D02*
G37*
G36*
X768962Y381305D02*
X763955D01*
X763964Y381288D01*
X763997Y381255D01*
X764055Y381188D01*
X764122Y381105D01*
X764205Y380996D01*
X764297Y380863D01*
X764397Y380721D01*
X764497Y380555D01*
Y380546D01*
X764505Y380538D01*
X764522Y380513D01*
X764539Y380480D01*
X764589Y380388D01*
X764647Y380280D01*
X764714Y380155D01*
X764780Y380013D01*
X764847Y379872D01*
X764905Y379730D01*
X764139D01*
Y379738D01*
X764122Y379763D01*
X764105Y379797D01*
X764080Y379838D01*
X764055Y379897D01*
X764014Y379963D01*
X763930Y380122D01*
X763822Y380297D01*
X763689Y380496D01*
X763547Y380688D01*
X763389Y380880D01*
X763381Y380888D01*
X763372Y380905D01*
X763347Y380930D01*
X763314Y380963D01*
X763231Y381046D01*
X763114Y381155D01*
X762989Y381263D01*
X762839Y381380D01*
X762689Y381488D01*
X762531Y381580D01*
Y382088D01*
X768962D01*
Y381305D01*
D02*
G37*
G36*
X403493Y152582D02*
X403559Y152573D01*
X403634Y152565D01*
X403718Y152556D01*
X403809Y152540D01*
X404001Y152490D01*
X404209Y152415D01*
X404318Y152365D01*
X404417Y152307D01*
X404517Y152240D01*
X404609Y152165D01*
X404617Y152157D01*
X404634Y152148D01*
X404651Y152123D01*
X404684Y152090D01*
X404726Y152040D01*
X404767Y151990D01*
X404817Y151932D01*
X404867Y151857D01*
X404917Y151782D01*
X404967Y151690D01*
X405009Y151599D01*
X405059Y151490D01*
X405142Y151265D01*
X405167Y151132D01*
X405192Y150999D01*
X404409Y150940D01*
Y150949D01*
X404401Y150957D01*
Y150982D01*
X404393Y151015D01*
X404367Y151099D01*
X404334Y151199D01*
X404292Y151307D01*
X404234Y151415D01*
X404176Y151515D01*
X404109Y151607D01*
X404092Y151623D01*
X404051Y151657D01*
X403984Y151715D01*
X403893Y151773D01*
X403776Y151832D01*
X403643Y151890D01*
X403484Y151923D01*
X403318Y151940D01*
X403251D01*
X403184Y151932D01*
X403093Y151915D01*
X402993Y151890D01*
X402876Y151848D01*
X402768Y151798D01*
X402651Y151723D01*
X402635Y151715D01*
X402593Y151673D01*
X402526Y151615D01*
X402443Y151524D01*
X402351Y151415D01*
X402251Y151282D01*
X402160Y151124D01*
X402068Y150940D01*
Y150932D01*
X402060Y150915D01*
X402051Y150890D01*
X402035Y150849D01*
X402018Y150790D01*
X402001Y150724D01*
X401985Y150649D01*
X401960Y150565D01*
X401943Y150465D01*
X401926Y150349D01*
X401910Y150232D01*
X401893Y150099D01*
X401876Y149957D01*
X401860Y149799D01*
X401851Y149632D01*
Y149466D01*
X401868Y149474D01*
X401901Y149532D01*
X401960Y149607D01*
X402043Y149699D01*
X402143Y149807D01*
X402260Y149907D01*
X402393Y150015D01*
X402543Y150099D01*
X402551D01*
X402560Y150107D01*
X402585Y150115D01*
X402618Y150132D01*
X402693Y150166D01*
X402801Y150207D01*
X402934Y150249D01*
X403076Y150282D01*
X403234Y150307D01*
X403401Y150315D01*
X403476D01*
X403534Y150307D01*
X403601Y150299D01*
X403684Y150282D01*
X403768Y150266D01*
X403868Y150240D01*
X403968Y150216D01*
X404076Y150174D01*
X404184Y150124D01*
X404301Y150074D01*
X404417Y149999D01*
X404526Y149924D01*
X404634Y149832D01*
X404742Y149732D01*
X404751Y149724D01*
X404767Y149707D01*
X404792Y149674D01*
X404834Y149624D01*
X404876Y149566D01*
X404917Y149499D01*
X404967Y149416D01*
X405026Y149324D01*
X405076Y149224D01*
X405126Y149107D01*
X405167Y148991D01*
X405217Y148857D01*
X405251Y148708D01*
X405276Y148558D01*
X405292Y148399D01*
X405301Y148233D01*
Y148224D01*
Y148208D01*
Y148174D01*
Y148133D01*
X405292Y148074D01*
X405284Y148016D01*
X405267Y147866D01*
X405234Y147699D01*
X405192Y147508D01*
X405126Y147316D01*
X405034Y147116D01*
Y147108D01*
X405026Y147091D01*
X405009Y147066D01*
X404984Y147033D01*
X404926Y146941D01*
X404851Y146825D01*
X404742Y146700D01*
X404626Y146566D01*
X404484Y146441D01*
X404318Y146325D01*
X404309D01*
X404301Y146316D01*
X404276Y146300D01*
X404243Y146283D01*
X404193Y146258D01*
X404142Y146242D01*
X404018Y146192D01*
X403868Y146133D01*
X403693Y146091D01*
X403501Y146058D01*
X403293Y146050D01*
X403251D01*
X403201Y146058D01*
X403126D01*
X403043Y146075D01*
X402951Y146091D01*
X402843Y146108D01*
X402726Y146142D01*
X402601Y146175D01*
X402468Y146225D01*
X402335Y146283D01*
X402201Y146350D01*
X402068Y146433D01*
X401935Y146533D01*
X401810Y146641D01*
X401685Y146766D01*
X401676Y146775D01*
X401660Y146800D01*
X401627Y146841D01*
X401585Y146908D01*
X401543Y146983D01*
X401493Y147083D01*
X401435Y147200D01*
X401377Y147333D01*
X401318Y147491D01*
X401260Y147666D01*
X401210Y147866D01*
X401168Y148074D01*
X401127Y148316D01*
X401093Y148574D01*
X401077Y148849D01*
X401068Y149149D01*
Y149157D01*
Y149174D01*
Y149199D01*
Y149232D01*
Y149274D01*
X401077Y149324D01*
Y149449D01*
X401093Y149607D01*
X401102Y149782D01*
X401127Y149974D01*
X401152Y150182D01*
X401193Y150399D01*
X401235Y150624D01*
X401293Y150849D01*
X401360Y151074D01*
X401435Y151290D01*
X401526Y151490D01*
X401635Y151682D01*
X401752Y151848D01*
X401760Y151857D01*
X401777Y151882D01*
X401810Y151915D01*
X401860Y151965D01*
X401918Y152023D01*
X401993Y152082D01*
X402085Y152148D01*
X402176Y152223D01*
X402285Y152290D01*
X402410Y152357D01*
X402543Y152415D01*
X402685Y152473D01*
X402843Y152523D01*
X403009Y152556D01*
X403184Y152582D01*
X403368Y152590D01*
X403443D01*
X403493Y152582D01*
D02*
G37*
G36*
X398027Y152556D02*
X398102D01*
X398194Y152548D01*
X398294Y152540D01*
X398502Y152523D01*
X398719Y152490D01*
X398927Y152448D01*
X399027Y152423D01*
X399110Y152390D01*
X399119D01*
X399127Y152382D01*
X399152Y152373D01*
X399185Y152357D01*
X399269Y152315D01*
X399369Y152248D01*
X399485Y152165D01*
X399602Y152057D01*
X399719Y151923D01*
X399827Y151773D01*
Y151765D01*
X399835Y151757D01*
X399852Y151732D01*
X399869Y151698D01*
X399910Y151607D01*
X399960Y151490D01*
X400010Y151348D01*
X400052Y151182D01*
X400085Y150999D01*
X400094Y150807D01*
Y150799D01*
Y150774D01*
Y150740D01*
X400085Y150690D01*
X400077Y150632D01*
X400069Y150565D01*
X400035Y150407D01*
X399985Y150224D01*
X399910Y150032D01*
X399860Y149941D01*
X399802Y149841D01*
X399727Y149749D01*
X399652Y149657D01*
X399644Y149649D01*
X399635Y149641D01*
X399602Y149616D01*
X399569Y149582D01*
X399519Y149549D01*
X399460Y149507D01*
X399394Y149457D01*
X399319Y149407D01*
X399227Y149357D01*
X399127Y149307D01*
X399011Y149257D01*
X398885Y149207D01*
X398752Y149166D01*
X398611Y149124D01*
X398452Y149091D01*
X398286Y149066D01*
X398302Y149057D01*
X398344Y149041D01*
X398402Y149007D01*
X398477Y148966D01*
X398644Y148857D01*
X398719Y148799D01*
X398794Y148741D01*
X398802D01*
X398811Y148724D01*
X398861Y148682D01*
X398927Y148608D01*
X399027Y148508D01*
X399136Y148391D01*
X399252Y148241D01*
X399377Y148074D01*
X399502Y147891D01*
X400610Y146158D01*
X399544D01*
X398702Y147483D01*
Y147491D01*
X398686Y147508D01*
X398669Y147541D01*
X398644Y147575D01*
X398611Y147625D01*
X398569Y147683D01*
X398486Y147808D01*
X398386Y147949D01*
X398286Y148091D01*
X398186Y148233D01*
X398086Y148358D01*
X398077Y148374D01*
X398044Y148408D01*
X398002Y148466D01*
X397944Y148524D01*
X397878Y148599D01*
X397803Y148674D01*
X397728Y148733D01*
X397653Y148791D01*
X397644Y148799D01*
X397619Y148807D01*
X397586Y148833D01*
X397536Y148857D01*
X397478Y148891D01*
X397411Y148916D01*
X397269Y148966D01*
X397261D01*
X397244Y148974D01*
X397211D01*
X397161Y148982D01*
X397094Y148991D01*
X397011D01*
X396919Y148999D01*
X395820D01*
Y146158D01*
X394970D01*
Y152565D01*
X397952D01*
X398027Y152556D01*
D02*
G37*
G36*
X614572Y87054D02*
X609565D01*
X609573Y87038D01*
X609606Y87004D01*
X609665Y86938D01*
X609731Y86854D01*
X609815Y86746D01*
X609906Y86613D01*
X610006Y86471D01*
X610106Y86305D01*
Y86296D01*
X610115Y86288D01*
X610131Y86263D01*
X610148Y86230D01*
X610198Y86138D01*
X610256Y86030D01*
X610323Y85905D01*
X610390Y85763D01*
X610456Y85621D01*
X610514Y85480D01*
X609748D01*
Y85488D01*
X609731Y85513D01*
X609715Y85547D01*
X609690Y85588D01*
X609665Y85646D01*
X609623Y85713D01*
X609540Y85871D01*
X609431Y86046D01*
X609298Y86246D01*
X609156Y86438D01*
X608998Y86629D01*
X608990Y86638D01*
X608982Y86655D01*
X608956Y86679D01*
X608923Y86713D01*
X608840Y86796D01*
X608723Y86904D01*
X608598Y87013D01*
X608448Y87129D01*
X608298Y87238D01*
X608140Y87329D01*
Y87837D01*
X614572D01*
Y87054D01*
D02*
G37*
G36*
X612114Y83772D02*
X612206D01*
X612314Y83764D01*
X612422Y83755D01*
X612672Y83722D01*
X612930Y83689D01*
X613181Y83630D01*
X613297Y83597D01*
X613405Y83555D01*
X613414D01*
X613430Y83547D01*
X613464Y83530D01*
X613497Y83514D01*
X613547Y83489D01*
X613605Y83455D01*
X613730Y83372D01*
X613880Y83264D01*
X614030Y83130D01*
X614188Y82964D01*
X614263Y82864D01*
X614330Y82764D01*
Y82755D01*
X614347Y82739D01*
X614364Y82705D01*
X614389Y82664D01*
X614413Y82605D01*
X614439Y82539D01*
X614472Y82456D01*
X614505Y82364D01*
X614538Y82264D01*
X614572Y82147D01*
X614597Y82031D01*
X614622Y81897D01*
X614647Y81756D01*
X614663Y81606D01*
X614672Y81439D01*
X614680Y81273D01*
Y81189D01*
X614672Y81123D01*
Y81048D01*
X614663Y80956D01*
X614655Y80856D01*
X614638Y80748D01*
X614605Y80514D01*
X614547Y80273D01*
X614472Y80023D01*
X614372Y79798D01*
Y79790D01*
X614355Y79773D01*
X614338Y79740D01*
X614314Y79706D01*
X614247Y79606D01*
X614147Y79481D01*
X614022Y79348D01*
X613864Y79215D01*
X613689Y79090D01*
X613480Y78981D01*
X613472D01*
X613455Y78973D01*
X613422Y78956D01*
X613372Y78948D01*
X613314Y78923D01*
X613239Y78906D01*
X613156Y78882D01*
X613055Y78865D01*
X612947Y78840D01*
X612831Y78815D01*
X612697Y78798D01*
X612556Y78781D01*
X612397Y78765D01*
X612231Y78748D01*
X612056Y78740D01*
X611872D01*
X608165D01*
Y79590D01*
X611864D01*
X611872D01*
X611898D01*
X611947D01*
X611997D01*
X612072Y79598D01*
X612147D01*
X612239Y79606D01*
X612331D01*
X612531Y79623D01*
X612739Y79656D01*
X612930Y79690D01*
X613014Y79715D01*
X613097Y79740D01*
X613106D01*
X613114Y79748D01*
X613164Y79773D01*
X613230Y79806D01*
X613322Y79865D01*
X613414Y79940D01*
X613522Y80031D01*
X613614Y80140D01*
X613705Y80273D01*
Y80281D01*
X613714Y80289D01*
X613739Y80339D01*
X613772Y80423D01*
X613805Y80531D01*
X613847Y80664D01*
X613880Y80823D01*
X613905Y80998D01*
X613914Y81198D01*
Y81289D01*
X613905Y81348D01*
X613897Y81423D01*
X613889Y81514D01*
X613880Y81614D01*
X613864Y81714D01*
X613814Y81931D01*
X613739Y82156D01*
X613689Y82256D01*
X613630Y82356D01*
X613572Y82447D01*
X613497Y82531D01*
X613489Y82539D01*
X613472Y82547D01*
X613447Y82564D01*
X613414Y82597D01*
X613364Y82622D01*
X613297Y82655D01*
X613222Y82697D01*
X613130Y82731D01*
X613031Y82772D01*
X612914Y82806D01*
X612781Y82839D01*
X612631Y82872D01*
X612464Y82897D01*
X612281Y82914D01*
X612081Y82922D01*
X611864Y82930D01*
X608165D01*
Y83780D01*
X611872D01*
X611881D01*
X611914D01*
X611964D01*
X612031D01*
X612114Y83772D01*
D02*
G37*
G36*
X493922Y54004D02*
X493905D01*
X493872D01*
X493822D01*
X493747Y54012D01*
X493663Y54020D01*
X493572Y54037D01*
X493480Y54062D01*
X493380Y54095D01*
X493372D01*
X493364Y54104D01*
X493339Y54112D01*
X493305Y54129D01*
X493222Y54162D01*
X493114Y54220D01*
X492980Y54295D01*
X492839Y54379D01*
X492689Y54487D01*
X492531Y54612D01*
X492522Y54620D01*
X492514Y54629D01*
X492489Y54654D01*
X492455Y54679D01*
X492364Y54762D01*
X492247Y54879D01*
X492106Y55020D01*
X491939Y55195D01*
X491756Y55403D01*
X491556Y55645D01*
X491547Y55653D01*
X491514Y55687D01*
X491472Y55745D01*
X491414Y55812D01*
X491339Y55895D01*
X491256Y55995D01*
X491164Y56103D01*
X491064Y56212D01*
X490848Y56445D01*
X490623Y56678D01*
X490506Y56786D01*
X490398Y56886D01*
X490298Y56978D01*
X490198Y57053D01*
X490189Y57061D01*
X490173Y57070D01*
X490148Y57086D01*
X490114Y57111D01*
X490064Y57136D01*
X490014Y57170D01*
X489889Y57245D01*
X489748Y57311D01*
X489590Y57369D01*
X489415Y57411D01*
X489331Y57428D01*
X489248D01*
X489240D01*
X489223D01*
X489206D01*
X489173Y57420D01*
X489081Y57411D01*
X488973Y57386D01*
X488848Y57344D01*
X488723Y57286D01*
X488590Y57203D01*
X488465Y57086D01*
X488448Y57070D01*
X488415Y57028D01*
X488365Y56953D01*
X488298Y56853D01*
X488240Y56728D01*
X488190Y56578D01*
X488157Y56403D01*
X488140Y56212D01*
Y56153D01*
X488148Y56120D01*
Y56070D01*
X488157Y56012D01*
X488182Y55887D01*
X488223Y55745D01*
X488282Y55587D01*
X488365Y55437D01*
X488481Y55303D01*
X488498Y55287D01*
X488540Y55253D01*
X488623Y55195D01*
X488723Y55137D01*
X488865Y55070D01*
X489023Y55012D01*
X489206Y54978D01*
X489423Y54962D01*
X489340Y54154D01*
X489331D01*
X489298Y54162D01*
X489256D01*
X489190Y54170D01*
X489115Y54187D01*
X489031Y54204D01*
X488931Y54229D01*
X488831Y54262D01*
X488606Y54337D01*
X488490Y54387D01*
X488382Y54445D01*
X488265Y54512D01*
X488157Y54587D01*
X488057Y54670D01*
X487965Y54770D01*
X487957Y54778D01*
X487948Y54795D01*
X487923Y54829D01*
X487890Y54870D01*
X487857Y54928D01*
X487815Y54995D01*
X487773Y55070D01*
X487723Y55162D01*
X487682Y55262D01*
X487640Y55370D01*
X487598Y55487D01*
X487565Y55620D01*
X487532Y55753D01*
X487507Y55903D01*
X487498Y56062D01*
X487490Y56228D01*
Y56320D01*
X487498Y56378D01*
X487507Y56461D01*
X487515Y56553D01*
X487532Y56653D01*
X487557Y56761D01*
X487615Y56995D01*
X487657Y57111D01*
X487707Y57236D01*
X487765Y57361D01*
X487840Y57478D01*
X487915Y57586D01*
X488007Y57694D01*
X488015Y57703D01*
X488032Y57719D01*
X488057Y57744D01*
X488098Y57778D01*
X488148Y57819D01*
X488207Y57869D01*
X488273Y57911D01*
X488357Y57969D01*
X488440Y58019D01*
X488540Y58061D01*
X488756Y58153D01*
X488873Y58186D01*
X488998Y58211D01*
X489131Y58228D01*
X489273Y58236D01*
X489290D01*
X489340D01*
X489415Y58228D01*
X489515Y58219D01*
X489623Y58194D01*
X489756Y58169D01*
X489889Y58128D01*
X490031Y58078D01*
X490048Y58069D01*
X490098Y58044D01*
X490173Y58011D01*
X490264Y57953D01*
X490381Y57878D01*
X490514Y57786D01*
X490664Y57678D01*
X490814Y57553D01*
X490823D01*
X490831Y57536D01*
X490856Y57511D01*
X490889Y57486D01*
X490931Y57445D01*
X490981Y57394D01*
X491039Y57336D01*
X491106Y57261D01*
X491181Y57186D01*
X491264Y57095D01*
X491364Y56995D01*
X491464Y56886D01*
X491572Y56761D01*
X491681Y56636D01*
X491806Y56486D01*
X491939Y56336D01*
X491947Y56328D01*
X491964Y56303D01*
X491997Y56270D01*
X492031Y56220D01*
X492081Y56170D01*
X492139Y56103D01*
X492264Y55962D01*
X492397Y55803D01*
X492531Y55653D01*
X492589Y55587D01*
X492647Y55528D01*
X492705Y55470D01*
X492747Y55428D01*
X492755Y55420D01*
X492780Y55395D01*
X492822Y55362D01*
X492880Y55312D01*
X492939Y55262D01*
X493014Y55203D01*
X493164Y55095D01*
Y58244D01*
X493922D01*
Y54004D01*
D02*
G37*
G36*
X492081Y53046D02*
X492156D01*
X492247Y53037D01*
X492339Y53029D01*
X492539Y53004D01*
X492747Y52971D01*
X492947Y52921D01*
X493047Y52887D01*
X493130Y52854D01*
X493139D01*
X493147Y52846D01*
X493172Y52837D01*
X493205Y52821D01*
X493280Y52771D01*
X493380Y52704D01*
X493489Y52621D01*
X493597Y52512D01*
X493705Y52387D01*
X493805Y52238D01*
Y52229D01*
X493814Y52221D01*
X493822Y52196D01*
X493839Y52162D01*
X493880Y52079D01*
X493913Y51954D01*
X493955Y51813D01*
X493997Y51646D01*
X494022Y51454D01*
X494030Y51246D01*
Y51163D01*
X494022Y51104D01*
X494013Y51038D01*
X494005Y50954D01*
X493988Y50863D01*
X493972Y50771D01*
X493913Y50563D01*
X493872Y50455D01*
X493822Y50346D01*
X493772Y50238D01*
X493705Y50138D01*
X493630Y50046D01*
X493547Y49955D01*
X493539Y49946D01*
X493522Y49938D01*
X493497Y49913D01*
X493455Y49888D01*
X493405Y49855D01*
X493347Y49813D01*
X493272Y49771D01*
X493189Y49730D01*
X493089Y49696D01*
X492980Y49655D01*
X492864Y49622D01*
X492739Y49588D01*
X492597Y49563D01*
X492447Y49538D01*
X492289Y49530D01*
X492114D01*
X492006Y50296D01*
X492014D01*
X492039D01*
X492072D01*
X492122Y50305D01*
X492180Y50313D01*
X492247Y50321D01*
X492406Y50338D01*
X492572Y50371D01*
X492739Y50421D01*
X492889Y50480D01*
X492947Y50521D01*
X493005Y50563D01*
X493014Y50571D01*
X493047Y50613D01*
X493089Y50663D01*
X493139Y50746D01*
X493189Y50838D01*
X493230Y50954D01*
X493264Y51096D01*
X493272Y51246D01*
Y51296D01*
X493264Y51363D01*
X493255Y51438D01*
X493239Y51521D01*
X493214Y51613D01*
X493180Y51704D01*
X493130Y51796D01*
X493122Y51804D01*
X493105Y51838D01*
X493072Y51871D01*
X493022Y51921D01*
X492964Y51979D01*
X492897Y52029D01*
X492822Y52079D01*
X492730Y52112D01*
X492722Y52121D01*
X492680Y52129D01*
X492622Y52146D01*
X492539Y52162D01*
X492422Y52179D01*
X492289Y52188D01*
X492122Y52204D01*
X491931D01*
X487515D01*
Y53054D01*
X491881D01*
X491889D01*
X491914D01*
X491956D01*
X492014D01*
X492081Y53046D01*
D02*
G37*
G36*
X329612Y57033D02*
X329687Y57024D01*
X329771Y57008D01*
X329862Y56991D01*
X329962Y56966D01*
X330070Y56933D01*
X330187Y56891D01*
X330304Y56841D01*
X330429Y56783D01*
X330545Y56708D01*
X330670Y56624D01*
X330787Y56533D01*
X330895Y56424D01*
X330904Y56416D01*
X330920Y56399D01*
X330945Y56366D01*
X330987Y56316D01*
X331029Y56258D01*
X331078Y56183D01*
X331129Y56100D01*
X331179Y56008D01*
X331237Y55900D01*
X331287Y55783D01*
X331337Y55658D01*
X331378Y55516D01*
X331420Y55375D01*
X331445Y55216D01*
X331462Y55058D01*
X331470Y54883D01*
Y54800D01*
X331462Y54742D01*
X331453Y54675D01*
X331445Y54592D01*
X331428Y54492D01*
X331403Y54392D01*
X331345Y54175D01*
X331303Y54058D01*
X331262Y53942D01*
X331203Y53817D01*
X331137Y53700D01*
X331062Y53592D01*
X330970Y53484D01*
X330962Y53475D01*
X330945Y53458D01*
X330920Y53433D01*
X330879Y53392D01*
X330829Y53350D01*
X330770Y53300D01*
X330695Y53250D01*
X330620Y53192D01*
X330529Y53142D01*
X330429Y53084D01*
X330320Y53034D01*
X330204Y52984D01*
X330079Y52934D01*
X329954Y52900D01*
X329812Y52867D01*
X329662Y52850D01*
X329554Y53633D01*
X329562D01*
X329587Y53642D01*
X329621Y53650D01*
X329662Y53658D01*
X329720Y53675D01*
X329779Y53692D01*
X329929Y53742D01*
X330087Y53800D01*
X330245Y53883D01*
X330404Y53975D01*
X330470Y54025D01*
X330529Y54083D01*
X330537Y54100D01*
X330570Y54142D01*
X330620Y54208D01*
X330670Y54308D01*
X330729Y54425D01*
X330770Y54558D01*
X330804Y54717D01*
X330820Y54883D01*
Y54942D01*
X330812Y54975D01*
Y55025D01*
X330804Y55083D01*
X330770Y55208D01*
X330729Y55358D01*
X330662Y55516D01*
X330562Y55675D01*
X330504Y55750D01*
X330437Y55825D01*
X330429Y55833D01*
X330420Y55841D01*
X330395Y55858D01*
X330370Y55883D01*
X330287Y55950D01*
X330170Y56016D01*
X330037Y56083D01*
X329870Y56150D01*
X329687Y56191D01*
X329587Y56208D01*
X329487D01*
X329479D01*
X329462D01*
X329437D01*
X329396Y56199D01*
X329354D01*
X329296Y56191D01*
X329171Y56166D01*
X329029Y56125D01*
X328879Y56058D01*
X328737Y55966D01*
X328662Y55916D01*
X328596Y55850D01*
X328579Y55833D01*
X328537Y55783D01*
X328488Y55708D01*
X328421Y55608D01*
X328354Y55475D01*
X328304Y55325D01*
X328263Y55150D01*
X328246Y54950D01*
Y54858D01*
X328254Y54800D01*
X328263Y54717D01*
X328279Y54617D01*
X328304Y54508D01*
X328329Y54392D01*
X327638Y54483D01*
Y54500D01*
X327646Y54525D01*
X327654Y54567D01*
Y54658D01*
X327646Y54692D01*
X327638Y54791D01*
X327621Y54908D01*
X327588Y55050D01*
X327546Y55200D01*
X327479Y55358D01*
X327396Y55508D01*
Y55516D01*
X327379Y55525D01*
X327346Y55575D01*
X327280Y55641D01*
X327196Y55716D01*
X327080Y55791D01*
X326938Y55850D01*
X326771Y55900D01*
X326680Y55908D01*
X326580Y55916D01*
X326571D01*
X326563D01*
X326505Y55908D01*
X326430Y55900D01*
X326330Y55883D01*
X326221Y55841D01*
X326105Y55791D01*
X325980Y55716D01*
X325872Y55616D01*
X325855Y55600D01*
X325821Y55566D01*
X325780Y55500D01*
X325722Y55416D01*
X325672Y55308D01*
X325622Y55175D01*
X325588Y55033D01*
X325580Y54866D01*
Y54825D01*
X325588Y54791D01*
X325597Y54700D01*
X325613Y54592D01*
X325655Y54475D01*
X325705Y54342D01*
X325771Y54217D01*
X325872Y54092D01*
X325888Y54075D01*
X325922Y54042D01*
X325988Y53992D01*
X326088Y53933D01*
X326205Y53867D01*
X326355Y53800D01*
X326530Y53750D01*
X326730Y53709D01*
X326588Y52925D01*
X326580D01*
X326555Y52934D01*
X326513Y52942D01*
X326455Y52959D01*
X326396Y52975D01*
X326313Y53000D01*
X326230Y53025D01*
X326138Y53059D01*
X325947Y53150D01*
X325746Y53259D01*
X325547Y53400D01*
X325455Y53484D01*
X325372Y53575D01*
X325363Y53583D01*
X325355Y53600D01*
X325330Y53625D01*
X325305Y53667D01*
X325272Y53717D01*
X325230Y53775D01*
X325188Y53850D01*
X325147Y53925D01*
X325113Y54017D01*
X325072Y54108D01*
X324997Y54325D01*
X324947Y54575D01*
X324938Y54708D01*
X324930Y54850D01*
Y54942D01*
X324938Y54983D01*
Y55041D01*
X324955Y55166D01*
X324988Y55316D01*
X325022Y55475D01*
X325080Y55641D01*
X325155Y55808D01*
Y55816D01*
X325163Y55825D01*
X325180Y55850D01*
X325197Y55883D01*
X325247Y55958D01*
X325313Y56058D01*
X325405Y56166D01*
X325513Y56283D01*
X325630Y56391D01*
X325771Y56483D01*
X325780D01*
X325788Y56491D01*
X325838Y56524D01*
X325922Y56558D01*
X326021Y56608D01*
X326146Y56649D01*
X326288Y56691D01*
X326438Y56716D01*
X326596Y56724D01*
X326605D01*
X326613D01*
X326663D01*
X326746Y56716D01*
X326846Y56699D01*
X326963Y56666D01*
X327088Y56633D01*
X327221Y56574D01*
X327355Y56499D01*
X327371Y56491D01*
X327413Y56458D01*
X327471Y56408D01*
X327546Y56333D01*
X327638Y56241D01*
X327729Y56125D01*
X327813Y55991D01*
X327896Y55841D01*
Y55850D01*
X327904Y55866D01*
X327913Y55900D01*
X327921Y55933D01*
X327938Y55983D01*
X327963Y56041D01*
X328013Y56166D01*
X328088Y56308D01*
X328188Y56449D01*
X328304Y56599D01*
X328446Y56724D01*
X328454D01*
X328462Y56741D01*
X328488Y56758D01*
X328521Y56774D01*
X328563Y56799D01*
X328604Y56824D01*
X328729Y56883D01*
X328879Y56941D01*
X329054Y56991D01*
X329246Y57024D01*
X329471Y57041D01*
X329479D01*
X329504D01*
X329554D01*
X329612Y57033D01*
D02*
G37*
G36*
X329521Y51776D02*
X329596D01*
X329687Y51767D01*
X329779Y51759D01*
X329979Y51734D01*
X330187Y51701D01*
X330387Y51651D01*
X330487Y51617D01*
X330570Y51584D01*
X330579D01*
X330587Y51576D01*
X330612Y51567D01*
X330645Y51551D01*
X330720Y51501D01*
X330820Y51434D01*
X330928Y51351D01*
X331037Y51242D01*
X331145Y51118D01*
X331245Y50967D01*
Y50959D01*
X331254Y50951D01*
X331262Y50926D01*
X331278Y50893D01*
X331320Y50809D01*
X331353Y50684D01*
X331395Y50543D01*
X331437Y50376D01*
X331462Y50184D01*
X331470Y49976D01*
Y49893D01*
X331462Y49834D01*
X331453Y49768D01*
X331445Y49685D01*
X331428Y49593D01*
X331412Y49501D01*
X331353Y49293D01*
X331312Y49185D01*
X331262Y49076D01*
X331212Y48968D01*
X331145Y48868D01*
X331070Y48776D01*
X330987Y48685D01*
X330979Y48676D01*
X330962Y48668D01*
X330937Y48643D01*
X330895Y48618D01*
X330845Y48585D01*
X330787Y48543D01*
X330712Y48502D01*
X330629Y48460D01*
X330529Y48426D01*
X330420Y48385D01*
X330304Y48351D01*
X330179Y48318D01*
X330037Y48293D01*
X329887Y48268D01*
X329729Y48260D01*
X329554D01*
X329446Y49026D01*
X329454D01*
X329479D01*
X329512D01*
X329562Y49035D01*
X329621Y49043D01*
X329687Y49051D01*
X329846Y49068D01*
X330012Y49101D01*
X330179Y49151D01*
X330329Y49210D01*
X330387Y49251D01*
X330445Y49293D01*
X330454Y49301D01*
X330487Y49343D01*
X330529Y49393D01*
X330579Y49476D01*
X330629Y49568D01*
X330670Y49685D01*
X330704Y49826D01*
X330712Y49976D01*
Y50026D01*
X330704Y50093D01*
X330695Y50168D01*
X330679Y50251D01*
X330654Y50343D01*
X330620Y50434D01*
X330570Y50526D01*
X330562Y50534D01*
X330545Y50568D01*
X330512Y50601D01*
X330462Y50651D01*
X330404Y50709D01*
X330337Y50759D01*
X330262Y50809D01*
X330170Y50842D01*
X330162Y50851D01*
X330120Y50859D01*
X330062Y50876D01*
X329979Y50893D01*
X329862Y50909D01*
X329729Y50918D01*
X329562Y50934D01*
X329371D01*
X324955D01*
Y51784D01*
X329321D01*
X329329D01*
X329354D01*
X329396D01*
X329454D01*
X329521Y51776D01*
D02*
G37*
G36*
X569356Y257883D02*
X569440Y257875D01*
X569531Y257867D01*
X569631Y257850D01*
X569739Y257825D01*
X569973Y257767D01*
X570089Y257725D01*
X570214Y257675D01*
X570339Y257617D01*
X570456Y257542D01*
X570564Y257467D01*
X570672Y257375D01*
X570681Y257367D01*
X570698Y257350D01*
X570723Y257325D01*
X570756Y257283D01*
X570798Y257233D01*
X570848Y257175D01*
X570889Y257108D01*
X570947Y257025D01*
X570998Y256942D01*
X571039Y256842D01*
X571131Y256625D01*
X571164Y256509D01*
X571189Y256384D01*
X571206Y256250D01*
X571214Y256109D01*
Y256092D01*
Y256042D01*
X571206Y255967D01*
X571197Y255867D01*
X571172Y255759D01*
X571147Y255625D01*
X571106Y255492D01*
X571056Y255350D01*
X571047Y255334D01*
X571022Y255284D01*
X570989Y255209D01*
X570931Y255117D01*
X570856Y255001D01*
X570764Y254867D01*
X570656Y254717D01*
X570531Y254567D01*
Y254559D01*
X570514Y254551D01*
X570489Y254526D01*
X570464Y254492D01*
X570423Y254451D01*
X570373Y254401D01*
X570314Y254342D01*
X570239Y254276D01*
X570164Y254201D01*
X570073Y254118D01*
X569973Y254018D01*
X569864Y253918D01*
X569739Y253809D01*
X569614Y253701D01*
X569464Y253576D01*
X569315Y253443D01*
X569306Y253434D01*
X569281Y253418D01*
X569248Y253384D01*
X569198Y253351D01*
X569148Y253301D01*
X569081Y253243D01*
X568940Y253118D01*
X568781Y252985D01*
X568631Y252851D01*
X568565Y252793D01*
X568506Y252735D01*
X568448Y252676D01*
X568406Y252635D01*
X568398Y252626D01*
X568373Y252601D01*
X568340Y252560D01*
X568290Y252501D01*
X568240Y252443D01*
X568181Y252368D01*
X568073Y252218D01*
X571222D01*
Y251460D01*
X566982D01*
Y251476D01*
Y251510D01*
Y251560D01*
X566990Y251635D01*
X566998Y251718D01*
X567015Y251810D01*
X567040Y251901D01*
X567074Y252001D01*
Y252010D01*
X567082Y252018D01*
X567090Y252043D01*
X567107Y252076D01*
X567140Y252160D01*
X567198Y252268D01*
X567273Y252401D01*
X567357Y252543D01*
X567465Y252693D01*
X567590Y252851D01*
X567598Y252859D01*
X567607Y252868D01*
X567632Y252893D01*
X567657Y252926D01*
X567740Y253018D01*
X567857Y253134D01*
X567998Y253276D01*
X568173Y253443D01*
X568382Y253626D01*
X568623Y253826D01*
X568631Y253834D01*
X568665Y253868D01*
X568723Y253909D01*
X568790Y253968D01*
X568873Y254042D01*
X568973Y254126D01*
X569081Y254217D01*
X569190Y254317D01*
X569423Y254534D01*
X569656Y254759D01*
X569764Y254876D01*
X569864Y254984D01*
X569956Y255084D01*
X570031Y255184D01*
X570039Y255192D01*
X570048Y255209D01*
X570064Y255234D01*
X570089Y255267D01*
X570114Y255317D01*
X570148Y255367D01*
X570223Y255492D01*
X570289Y255634D01*
X570348Y255792D01*
X570389Y255967D01*
X570406Y256050D01*
Y256134D01*
Y256142D01*
Y256159D01*
Y256175D01*
X570398Y256209D01*
X570389Y256300D01*
X570364Y256409D01*
X570323Y256534D01*
X570264Y256658D01*
X570181Y256792D01*
X570064Y256917D01*
X570048Y256933D01*
X570006Y256967D01*
X569931Y257017D01*
X569831Y257083D01*
X569706Y257142D01*
X569556Y257192D01*
X569381Y257225D01*
X569190Y257242D01*
X569131D01*
X569098Y257233D01*
X569048D01*
X568990Y257225D01*
X568865Y257200D01*
X568723Y257158D01*
X568565Y257100D01*
X568415Y257017D01*
X568282Y256900D01*
X568265Y256884D01*
X568232Y256842D01*
X568173Y256758D01*
X568115Y256658D01*
X568048Y256517D01*
X567990Y256359D01*
X567957Y256175D01*
X567940Y255959D01*
X567132Y256042D01*
Y256050D01*
X567140Y256084D01*
Y256125D01*
X567148Y256192D01*
X567165Y256267D01*
X567182Y256350D01*
X567207Y256450D01*
X567240Y256550D01*
X567315Y256775D01*
X567365Y256892D01*
X567423Y257000D01*
X567490Y257117D01*
X567565Y257225D01*
X567648Y257325D01*
X567748Y257417D01*
X567757Y257425D01*
X567773Y257433D01*
X567807Y257458D01*
X567848Y257492D01*
X567907Y257525D01*
X567973Y257567D01*
X568048Y257608D01*
X568140Y257658D01*
X568240Y257700D01*
X568348Y257742D01*
X568465Y257783D01*
X568598Y257817D01*
X568731Y257850D01*
X568881Y257875D01*
X569040Y257883D01*
X569206Y257892D01*
X569298D01*
X569356Y257883D01*
D02*
G37*
G36*
X564016Y257858D02*
X564091D01*
X564183Y257850D01*
X564282Y257842D01*
X564491Y257825D01*
X564707Y257792D01*
X564916Y257750D01*
X565016Y257725D01*
X565099Y257692D01*
X565107D01*
X565116Y257683D01*
X565141Y257675D01*
X565174Y257658D01*
X565257Y257617D01*
X565357Y257550D01*
X565474Y257467D01*
X565591Y257358D01*
X565707Y257225D01*
X565816Y257075D01*
Y257067D01*
X565824Y257058D01*
X565840Y257033D01*
X565857Y257000D01*
X565899Y256908D01*
X565949Y256792D01*
X565999Y256650D01*
X566040Y256484D01*
X566074Y256300D01*
X566082Y256109D01*
Y256100D01*
Y256075D01*
Y256042D01*
X566074Y255992D01*
X566065Y255934D01*
X566057Y255867D01*
X566024Y255709D01*
X565974Y255525D01*
X565899Y255334D01*
X565849Y255242D01*
X565790Y255142D01*
X565715Y255051D01*
X565640Y254959D01*
X565632Y254951D01*
X565624Y254942D01*
X565591Y254917D01*
X565557Y254884D01*
X565507Y254851D01*
X565449Y254809D01*
X565382Y254759D01*
X565307Y254709D01*
X565216Y254659D01*
X565116Y254609D01*
X564999Y254559D01*
X564874Y254509D01*
X564741Y254467D01*
X564599Y254426D01*
X564441Y254393D01*
X564274Y254368D01*
X564291Y254359D01*
X564333Y254342D01*
X564391Y254309D01*
X564466Y254268D01*
X564632Y254159D01*
X564707Y254101D01*
X564782Y254042D01*
X564791D01*
X564799Y254026D01*
X564849Y253984D01*
X564916Y253909D01*
X565016Y253809D01*
X565124Y253693D01*
X565241Y253543D01*
X565366Y253376D01*
X565490Y253193D01*
X566599Y251460D01*
X565532D01*
X564691Y252785D01*
Y252793D01*
X564674Y252810D01*
X564657Y252843D01*
X564632Y252876D01*
X564599Y252926D01*
X564557Y252985D01*
X564474Y253109D01*
X564374Y253251D01*
X564274Y253393D01*
X564174Y253534D01*
X564074Y253659D01*
X564066Y253676D01*
X564033Y253709D01*
X563991Y253768D01*
X563933Y253826D01*
X563866Y253901D01*
X563791Y253976D01*
X563716Y254034D01*
X563641Y254093D01*
X563633Y254101D01*
X563608Y254109D01*
X563574Y254134D01*
X563524Y254159D01*
X563466Y254193D01*
X563399Y254217D01*
X563258Y254268D01*
X563249D01*
X563233Y254276D01*
X563200D01*
X563149Y254284D01*
X563083Y254293D01*
X562999D01*
X562908Y254301D01*
X561808D01*
Y251460D01*
X560958D01*
Y257867D01*
X563941D01*
X564016Y257858D01*
D02*
G37*
G36*
X453661Y152582D02*
X453720D01*
X453844Y152565D01*
X453994Y152531D01*
X454153Y152498D01*
X454319Y152440D01*
X454486Y152365D01*
X454494D01*
X454503Y152357D01*
X454528Y152340D01*
X454561Y152323D01*
X454636Y152273D01*
X454736Y152207D01*
X454844Y152115D01*
X454961Y152007D01*
X455069Y151890D01*
X455161Y151748D01*
Y151740D01*
X455169Y151732D01*
X455202Y151682D01*
X455236Y151599D01*
X455286Y151498D01*
X455327Y151374D01*
X455369Y151232D01*
X455394Y151082D01*
X455402Y150924D01*
Y150915D01*
Y150907D01*
Y150857D01*
X455394Y150774D01*
X455378Y150674D01*
X455344Y150557D01*
X455311Y150432D01*
X455252Y150299D01*
X455177Y150166D01*
X455169Y150149D01*
X455136Y150107D01*
X455086Y150049D01*
X455011Y149974D01*
X454919Y149882D01*
X454803Y149791D01*
X454669Y149707D01*
X454519Y149624D01*
X454528D01*
X454544Y149616D01*
X454578Y149607D01*
X454611Y149599D01*
X454661Y149582D01*
X454719Y149557D01*
X454844Y149507D01*
X454986Y149432D01*
X455127Y149332D01*
X455277Y149216D01*
X455402Y149074D01*
Y149066D01*
X455419Y149057D01*
X455436Y149032D01*
X455452Y148999D01*
X455477Y148958D01*
X455502Y148916D01*
X455561Y148791D01*
X455619Y148641D01*
X455669Y148466D01*
X455702Y148274D01*
X455719Y148049D01*
Y148041D01*
Y148016D01*
Y147966D01*
X455711Y147908D01*
X455702Y147833D01*
X455686Y147749D01*
X455669Y147658D01*
X455644Y147558D01*
X455611Y147450D01*
X455569Y147333D01*
X455519Y147216D01*
X455461Y147091D01*
X455386Y146975D01*
X455303Y146850D01*
X455211Y146733D01*
X455103Y146625D01*
X455094Y146616D01*
X455078Y146600D01*
X455044Y146575D01*
X454994Y146533D01*
X454936Y146491D01*
X454861Y146441D01*
X454778Y146391D01*
X454686Y146341D01*
X454578Y146283D01*
X454461Y146233D01*
X454336Y146183D01*
X454194Y146142D01*
X454053Y146100D01*
X453895Y146075D01*
X453736Y146058D01*
X453561Y146050D01*
X453478D01*
X453420Y146058D01*
X453353Y146067D01*
X453270Y146075D01*
X453170Y146091D01*
X453070Y146117D01*
X452853Y146175D01*
X452737Y146216D01*
X452620Y146258D01*
X452495Y146316D01*
X452378Y146383D01*
X452270Y146458D01*
X452162Y146550D01*
X452153Y146558D01*
X452137Y146575D01*
X452112Y146600D01*
X452070Y146641D01*
X452028Y146691D01*
X451978Y146750D01*
X451928Y146825D01*
X451870Y146900D01*
X451820Y146991D01*
X451762Y147091D01*
X451712Y147200D01*
X451662Y147316D01*
X451612Y147441D01*
X451578Y147566D01*
X451545Y147708D01*
X451529Y147858D01*
X452312Y147966D01*
Y147958D01*
X452320Y147933D01*
X452328Y147899D01*
X452337Y147858D01*
X452353Y147799D01*
X452370Y147741D01*
X452420Y147591D01*
X452478Y147433D01*
X452561Y147275D01*
X452653Y147116D01*
X452703Y147050D01*
X452761Y146991D01*
X452778Y146983D01*
X452820Y146950D01*
X452886Y146900D01*
X452986Y146850D01*
X453103Y146791D01*
X453236Y146750D01*
X453395Y146716D01*
X453561Y146700D01*
X453620D01*
X453653Y146708D01*
X453703D01*
X453761Y146716D01*
X453886Y146750D01*
X454036Y146791D01*
X454194Y146858D01*
X454353Y146958D01*
X454428Y147016D01*
X454503Y147083D01*
X454511Y147091D01*
X454519Y147100D01*
X454536Y147125D01*
X454561Y147150D01*
X454628Y147233D01*
X454694Y147350D01*
X454761Y147483D01*
X454828Y147649D01*
X454869Y147833D01*
X454886Y147933D01*
Y148033D01*
Y148041D01*
Y148058D01*
Y148083D01*
X454878Y148124D01*
Y148166D01*
X454869Y148224D01*
X454844Y148349D01*
X454803Y148491D01*
X454736Y148641D01*
X454644Y148783D01*
X454594Y148857D01*
X454528Y148924D01*
X454511Y148941D01*
X454461Y148982D01*
X454386Y149032D01*
X454286Y149099D01*
X454153Y149166D01*
X454003Y149216D01*
X453828Y149257D01*
X453628Y149274D01*
X453536D01*
X453478Y149266D01*
X453395Y149257D01*
X453295Y149241D01*
X453186Y149216D01*
X453070Y149191D01*
X453161Y149882D01*
X453178D01*
X453203Y149874D01*
X453245Y149866D01*
X453336D01*
X453370Y149874D01*
X453470Y149882D01*
X453586Y149899D01*
X453728Y149932D01*
X453878Y149974D01*
X454036Y150041D01*
X454186Y150124D01*
X454194D01*
X454203Y150140D01*
X454253Y150174D01*
X454319Y150240D01*
X454394Y150324D01*
X454469Y150440D01*
X454528Y150582D01*
X454578Y150749D01*
X454586Y150840D01*
X454594Y150940D01*
Y150949D01*
Y150957D01*
X454586Y151015D01*
X454578Y151090D01*
X454561Y151190D01*
X454519Y151299D01*
X454469Y151415D01*
X454394Y151540D01*
X454294Y151648D01*
X454278Y151665D01*
X454244Y151698D01*
X454178Y151740D01*
X454095Y151798D01*
X453986Y151848D01*
X453853Y151898D01*
X453711Y151932D01*
X453545Y151940D01*
X453503D01*
X453470Y151932D01*
X453378Y151923D01*
X453270Y151907D01*
X453153Y151865D01*
X453020Y151815D01*
X452895Y151748D01*
X452770Y151648D01*
X452753Y151632D01*
X452720Y151599D01*
X452670Y151532D01*
X452612Y151432D01*
X452545Y151315D01*
X452478Y151165D01*
X452428Y150990D01*
X452387Y150790D01*
X451603Y150932D01*
Y150940D01*
X451612Y150965D01*
X451620Y151007D01*
X451637Y151065D01*
X451653Y151124D01*
X451678Y151207D01*
X451703Y151290D01*
X451737Y151382D01*
X451828Y151573D01*
X451937Y151773D01*
X452078Y151973D01*
X452162Y152065D01*
X452253Y152148D01*
X452262Y152157D01*
X452278Y152165D01*
X452303Y152190D01*
X452345Y152215D01*
X452395Y152248D01*
X452453Y152290D01*
X452528Y152332D01*
X452603Y152373D01*
X452695Y152407D01*
X452786Y152448D01*
X453003Y152523D01*
X453253Y152573D01*
X453386Y152582D01*
X453528Y152590D01*
X453620D01*
X453661Y152582D01*
D02*
G37*
G36*
X448446Y152556D02*
X448521D01*
X448613Y152548D01*
X448713Y152540D01*
X448921Y152523D01*
X449137Y152490D01*
X449346Y152448D01*
X449446Y152423D01*
X449529Y152390D01*
X449537D01*
X449546Y152382D01*
X449571Y152373D01*
X449604Y152357D01*
X449687Y152315D01*
X449787Y152248D01*
X449904Y152165D01*
X450020Y152057D01*
X450137Y151923D01*
X450246Y151773D01*
Y151765D01*
X450254Y151757D01*
X450270Y151732D01*
X450287Y151698D01*
X450329Y151607D01*
X450379Y151490D01*
X450429Y151348D01*
X450470Y151182D01*
X450504Y150999D01*
X450512Y150807D01*
Y150799D01*
Y150774D01*
Y150740D01*
X450504Y150690D01*
X450495Y150632D01*
X450487Y150565D01*
X450454Y150407D01*
X450404Y150224D01*
X450329Y150032D01*
X450279Y149941D01*
X450220Y149841D01*
X450145Y149749D01*
X450070Y149657D01*
X450062Y149649D01*
X450054Y149641D01*
X450020Y149616D01*
X449987Y149582D01*
X449937Y149549D01*
X449879Y149507D01*
X449812Y149457D01*
X449737Y149407D01*
X449646Y149357D01*
X449546Y149307D01*
X449429Y149257D01*
X449304Y149207D01*
X449171Y149166D01*
X449029Y149124D01*
X448871Y149091D01*
X448704Y149066D01*
X448721Y149057D01*
X448763Y149041D01*
X448821Y149007D01*
X448896Y148966D01*
X449062Y148857D01*
X449137Y148799D01*
X449212Y148741D01*
X449221D01*
X449229Y148724D01*
X449279Y148682D01*
X449346Y148608D01*
X449446Y148508D01*
X449554Y148391D01*
X449671Y148241D01*
X449796Y148074D01*
X449921Y147891D01*
X451029Y146158D01*
X449962D01*
X449121Y147483D01*
Y147491D01*
X449104Y147508D01*
X449087Y147541D01*
X449062Y147575D01*
X449029Y147625D01*
X448987Y147683D01*
X448904Y147808D01*
X448804Y147949D01*
X448704Y148091D01*
X448604Y148233D01*
X448504Y148358D01*
X448496Y148374D01*
X448463Y148408D01*
X448421Y148466D01*
X448363Y148524D01*
X448296Y148599D01*
X448221Y148674D01*
X448146Y148733D01*
X448071Y148791D01*
X448063Y148799D01*
X448038Y148807D01*
X448004Y148833D01*
X447954Y148857D01*
X447896Y148891D01*
X447829Y148916D01*
X447688Y148966D01*
X447679D01*
X447663Y148974D01*
X447630D01*
X447579Y148982D01*
X447513Y148991D01*
X447430D01*
X447338Y148999D01*
X446238D01*
Y146158D01*
X445388D01*
Y152565D01*
X448371D01*
X448446Y152556D01*
D02*
G37*
G36*
X344170Y140913D02*
X341188D01*
X341113Y140922D01*
X341037D01*
X340946Y140930D01*
X340846Y140938D01*
X340638Y140955D01*
X340421Y140988D01*
X340213Y141030D01*
X340113Y141055D01*
X340029Y141088D01*
X340021D01*
X340013Y141097D01*
X339988Y141105D01*
X339954Y141122D01*
X339871Y141163D01*
X339771Y141230D01*
X339655Y141313D01*
X339538Y141422D01*
X339421Y141555D01*
X339313Y141705D01*
Y141713D01*
X339305Y141721D01*
X339288Y141747D01*
X339271Y141780D01*
X339230Y141872D01*
X339180Y141988D01*
X339130Y142130D01*
X339088Y142296D01*
X339055Y142480D01*
X339046Y142671D01*
Y142680D01*
Y142705D01*
Y142738D01*
X339055Y142788D01*
X339063Y142846D01*
X339071Y142913D01*
X339105Y143071D01*
X339155Y143254D01*
X339230Y143446D01*
X339280Y143538D01*
X339338Y143638D01*
X339413Y143729D01*
X339488Y143821D01*
X339496Y143829D01*
X339505Y143838D01*
X339538Y143863D01*
X339571Y143896D01*
X339621Y143929D01*
X339680Y143971D01*
X339746Y144021D01*
X339821Y144071D01*
X339913Y144121D01*
X340013Y144171D01*
X340129Y144221D01*
X340254Y144271D01*
X340388Y144312D01*
X340529Y144354D01*
X340688Y144388D01*
X340854Y144412D01*
X340838Y144421D01*
X340796Y144438D01*
X340738Y144471D01*
X340663Y144513D01*
X340496Y144621D01*
X340421Y144679D01*
X340346Y144737D01*
X340338D01*
X340329Y144754D01*
X340279Y144796D01*
X340213Y144871D01*
X340113Y144971D01*
X340005Y145087D01*
X339888Y145237D01*
X339763Y145404D01*
X339638Y145587D01*
X338530Y147320D01*
X339596D01*
X340438Y145995D01*
Y145987D01*
X340454Y145970D01*
X340471Y145937D01*
X340496Y145904D01*
X340529Y145854D01*
X340571Y145795D01*
X340654Y145670D01*
X340754Y145529D01*
X340854Y145387D01*
X340954Y145246D01*
X341054Y145121D01*
X341063Y145104D01*
X341096Y145071D01*
X341138Y145012D01*
X341196Y144954D01*
X341263Y144879D01*
X341338Y144804D01*
X341412Y144746D01*
X341487Y144687D01*
X341496Y144679D01*
X341521Y144671D01*
X341554Y144646D01*
X341604Y144621D01*
X341662Y144587D01*
X341729Y144562D01*
X341871Y144513D01*
X341879D01*
X341896Y144504D01*
X341929D01*
X341979Y144496D01*
X342046Y144487D01*
X342129D01*
X342221Y144479D01*
X343320D01*
Y147320D01*
X344170D01*
Y140913D01*
D02*
G37*
G36*
X335514Y145787D02*
X338297D01*
Y145062D01*
X335372Y140913D01*
X334731D01*
Y145062D01*
X333864D01*
Y145787D01*
X334731D01*
Y147320D01*
X335514D01*
Y145787D01*
D02*
G37*
G36*
X635842Y251452D02*
X635917Y251443D01*
X636009Y251435D01*
X636100Y251418D01*
X636209Y251402D01*
X636434Y251343D01*
X636550Y251302D01*
X636667Y251252D01*
X636792Y251202D01*
X636908Y251135D01*
X637017Y251060D01*
X637125Y250977D01*
X637133Y250968D01*
X637150Y250952D01*
X637175Y250927D01*
X637209Y250885D01*
X637258Y250835D01*
X637300Y250777D01*
X637358Y250710D01*
X637408Y250627D01*
X637467Y250544D01*
X637517Y250444D01*
X637575Y250335D01*
X637617Y250219D01*
X637667Y250094D01*
X637700Y249969D01*
X637733Y249827D01*
X637750Y249677D01*
X636925Y249619D01*
Y249627D01*
X636917Y249644D01*
Y249677D01*
X636908Y249719D01*
X636892Y249769D01*
X636875Y249827D01*
X636842Y249952D01*
X636784Y250102D01*
X636709Y250252D01*
X636617Y250394D01*
X636509Y250519D01*
X636492Y250527D01*
X636450Y250560D01*
X636375Y250610D01*
X636284Y250660D01*
X636167Y250719D01*
X636025Y250760D01*
X635876Y250794D01*
X635700Y250810D01*
X635642D01*
X635601Y250802D01*
X635559Y250794D01*
X635501Y250785D01*
X635367Y250760D01*
X635209Y250710D01*
X635051Y250627D01*
X634967Y250585D01*
X634884Y250527D01*
X634809Y250460D01*
X634734Y250385D01*
X634726Y250377D01*
X634717Y250369D01*
X634701Y250344D01*
X634676Y250310D01*
X634642Y250269D01*
X634609Y250210D01*
X634576Y250152D01*
X634534Y250085D01*
X634468Y249919D01*
X634401Y249727D01*
X634359Y249502D01*
X634342Y249386D01*
Y249252D01*
Y249244D01*
Y249219D01*
Y249186D01*
X634351Y249144D01*
Y249086D01*
X634359Y249019D01*
X634393Y248869D01*
X634434Y248694D01*
X634501Y248519D01*
X634593Y248344D01*
X634651Y248261D01*
X634717Y248186D01*
Y248178D01*
X634734Y248169D01*
X634759Y248153D01*
X634784Y248128D01*
X634867Y248061D01*
X634984Y247986D01*
X635126Y247919D01*
X635292Y247853D01*
X635492Y247811D01*
X635592Y247794D01*
X635775D01*
X635842Y247803D01*
X635942Y247819D01*
X636042Y247836D01*
X636159Y247869D01*
X636284Y247919D01*
X636400Y247978D01*
X636417Y247986D01*
X636450Y248011D01*
X636500Y248044D01*
X636567Y248103D01*
X636642Y248161D01*
X636725Y248244D01*
X636800Y248328D01*
X636867Y248428D01*
X637608Y248319D01*
X636992Y245028D01*
X633809D01*
Y245778D01*
X636367D01*
X636709Y247511D01*
X636700Y247503D01*
X636684Y247494D01*
X636650Y247469D01*
X636609Y247444D01*
X636559Y247419D01*
X636492Y247378D01*
X636425Y247344D01*
X636342Y247303D01*
X636159Y247228D01*
X635959Y247169D01*
X635734Y247120D01*
X635617Y247111D01*
X635501Y247103D01*
X635417D01*
X635359Y247111D01*
X635292Y247120D01*
X635209Y247136D01*
X635117Y247153D01*
X635009Y247178D01*
X634901Y247203D01*
X634792Y247244D01*
X634676Y247295D01*
X634551Y247344D01*
X634434Y247419D01*
X634318Y247494D01*
X634201Y247586D01*
X634093Y247686D01*
X634084Y247694D01*
X634068Y247711D01*
X634043Y247744D01*
X634001Y247794D01*
X633959Y247853D01*
X633909Y247919D01*
X633851Y248003D01*
X633801Y248094D01*
X633743Y248194D01*
X633693Y248311D01*
X633643Y248428D01*
X633601Y248561D01*
X633559Y248711D01*
X633534Y248861D01*
X633518Y249019D01*
X633509Y249186D01*
Y249194D01*
Y249227D01*
Y249269D01*
X633518Y249327D01*
X633526Y249402D01*
X633534Y249494D01*
X633551Y249594D01*
X633576Y249694D01*
X633634Y249935D01*
X633676Y250060D01*
X633726Y250185D01*
X633784Y250310D01*
X633851Y250435D01*
X633926Y250560D01*
X634018Y250685D01*
X634026Y250694D01*
X634043Y250719D01*
X634084Y250760D01*
X634134Y250802D01*
X634193Y250869D01*
X634268Y250927D01*
X634359Y251002D01*
X634459Y251068D01*
X634576Y251143D01*
X634701Y251218D01*
X634834Y251277D01*
X634984Y251335D01*
X635151Y251385D01*
X635326Y251427D01*
X635509Y251452D01*
X635700Y251460D01*
X635784D01*
X635842Y251452D01*
D02*
G37*
G36*
X643890Y244945D02*
X640908D01*
X640833Y244953D01*
X640758D01*
X640666Y244962D01*
X640566Y244970D01*
X640358Y244987D01*
X640141Y245020D01*
X639933Y245062D01*
X639833Y245087D01*
X639749Y245120D01*
X639741D01*
X639733Y245128D01*
X639708Y245137D01*
X639674Y245153D01*
X639591Y245195D01*
X639491Y245262D01*
X639375Y245345D01*
X639258Y245453D01*
X639141Y245587D01*
X639033Y245737D01*
Y245745D01*
X639025Y245753D01*
X639008Y245778D01*
X638991Y245812D01*
X638950Y245903D01*
X638900Y246020D01*
X638850Y246161D01*
X638808Y246328D01*
X638775Y246511D01*
X638766Y246703D01*
Y246711D01*
Y246736D01*
Y246770D01*
X638775Y246820D01*
X638783Y246878D01*
X638791Y246945D01*
X638825Y247103D01*
X638875Y247286D01*
X638950Y247478D01*
X639000Y247569D01*
X639058Y247669D01*
X639133Y247761D01*
X639208Y247853D01*
X639216Y247861D01*
X639225Y247869D01*
X639258Y247894D01*
X639291Y247928D01*
X639341Y247961D01*
X639400Y248003D01*
X639466Y248053D01*
X639541Y248103D01*
X639633Y248153D01*
X639733Y248203D01*
X639849Y248253D01*
X639974Y248303D01*
X640108Y248344D01*
X640249Y248386D01*
X640408Y248419D01*
X640574Y248444D01*
X640558Y248452D01*
X640516Y248469D01*
X640458Y248503D01*
X640383Y248544D01*
X640216Y248652D01*
X640141Y248711D01*
X640066Y248769D01*
X640058D01*
X640049Y248786D01*
X639999Y248827D01*
X639933Y248902D01*
X639833Y249002D01*
X639725Y249119D01*
X639608Y249269D01*
X639483Y249436D01*
X639358Y249619D01*
X638250Y251352D01*
X639316D01*
X640158Y250027D01*
Y250019D01*
X640174Y250002D01*
X640191Y249969D01*
X640216Y249935D01*
X640249Y249886D01*
X640291Y249827D01*
X640374Y249702D01*
X640474Y249561D01*
X640574Y249419D01*
X640674Y249277D01*
X640774Y249152D01*
X640782Y249136D01*
X640816Y249102D01*
X640857Y249044D01*
X640916Y248986D01*
X640983Y248911D01*
X641058Y248836D01*
X641132Y248777D01*
X641207Y248719D01*
X641216Y248711D01*
X641241Y248702D01*
X641274Y248678D01*
X641324Y248652D01*
X641382Y248619D01*
X641449Y248594D01*
X641591Y248544D01*
X641599D01*
X641616Y248536D01*
X641649D01*
X641699Y248528D01*
X641766Y248519D01*
X641849D01*
X641941Y248511D01*
X643040D01*
Y251352D01*
X643890D01*
Y244945D01*
D02*
G37*
G36*
X635504Y387024D02*
X635488D01*
X635454D01*
X635404D01*
X635329Y387032D01*
X635246Y387040D01*
X635154Y387057D01*
X635063Y387082D01*
X634963Y387115D01*
X634954D01*
X634946Y387123D01*
X634921Y387132D01*
X634888Y387148D01*
X634804Y387182D01*
X634696Y387240D01*
X634563Y387315D01*
X634421Y387398D01*
X634271Y387507D01*
X634113Y387632D01*
X634104Y387640D01*
X634096Y387648D01*
X634071Y387673D01*
X634038Y387698D01*
X633946Y387782D01*
X633830Y387898D01*
X633688Y388040D01*
X633521Y388215D01*
X633338Y388423D01*
X633138Y388665D01*
X633130Y388673D01*
X633096Y388706D01*
X633055Y388765D01*
X632996Y388831D01*
X632921Y388915D01*
X632838Y389015D01*
X632747Y389123D01*
X632646Y389231D01*
X632430Y389464D01*
X632205Y389698D01*
X632088Y389806D01*
X631980Y389906D01*
X631880Y389998D01*
X631780Y390073D01*
X631772Y390081D01*
X631755Y390089D01*
X631730Y390106D01*
X631697Y390131D01*
X631647Y390156D01*
X631597Y390189D01*
X631472Y390264D01*
X631330Y390331D01*
X631172Y390389D01*
X630997Y390431D01*
X630914Y390448D01*
X630830D01*
X630822D01*
X630805D01*
X630789D01*
X630755Y390439D01*
X630664Y390431D01*
X630555Y390406D01*
X630430Y390364D01*
X630305Y390306D01*
X630172Y390223D01*
X630047Y390106D01*
X630031Y390089D01*
X629997Y390048D01*
X629947Y389973D01*
X629881Y389873D01*
X629822Y389748D01*
X629772Y389598D01*
X629739Y389423D01*
X629722Y389231D01*
Y389173D01*
X629731Y389140D01*
Y389090D01*
X629739Y389031D01*
X629764Y388906D01*
X629806Y388765D01*
X629864Y388606D01*
X629947Y388456D01*
X630064Y388323D01*
X630080Y388307D01*
X630122Y388273D01*
X630205Y388215D01*
X630305Y388157D01*
X630447Y388090D01*
X630605Y388032D01*
X630789Y387998D01*
X631005Y387981D01*
X630922Y387173D01*
X630914D01*
X630880Y387182D01*
X630839D01*
X630772Y387190D01*
X630697Y387207D01*
X630614Y387223D01*
X630514Y387248D01*
X630414Y387282D01*
X630189Y387357D01*
X630072Y387407D01*
X629964Y387465D01*
X629847Y387532D01*
X629739Y387607D01*
X629639Y387690D01*
X629547Y387790D01*
X629539Y387798D01*
X629531Y387815D01*
X629506Y387848D01*
X629472Y387890D01*
X629439Y387948D01*
X629397Y388015D01*
X629356Y388090D01*
X629306Y388181D01*
X629264Y388282D01*
X629222Y388390D01*
X629181Y388506D01*
X629147Y388640D01*
X629114Y388773D01*
X629089Y388923D01*
X629081Y389081D01*
X629072Y389248D01*
Y389339D01*
X629081Y389398D01*
X629089Y389481D01*
X629097Y389573D01*
X629114Y389673D01*
X629139Y389781D01*
X629197Y390014D01*
X629239Y390131D01*
X629289Y390256D01*
X629347Y390381D01*
X629422Y390498D01*
X629497Y390606D01*
X629589Y390714D01*
X629597Y390723D01*
X629614Y390739D01*
X629639Y390764D01*
X629681Y390798D01*
X629731Y390839D01*
X629789Y390889D01*
X629856Y390931D01*
X629939Y390989D01*
X630022Y391039D01*
X630122Y391081D01*
X630339Y391172D01*
X630455Y391206D01*
X630580Y391231D01*
X630714Y391247D01*
X630855Y391256D01*
X630872D01*
X630922D01*
X630997Y391247D01*
X631097Y391239D01*
X631205Y391214D01*
X631339Y391189D01*
X631472Y391147D01*
X631614Y391097D01*
X631630Y391089D01*
X631680Y391064D01*
X631755Y391031D01*
X631847Y390972D01*
X631963Y390897D01*
X632097Y390806D01*
X632247Y390698D01*
X632397Y390573D01*
X632405D01*
X632413Y390556D01*
X632438Y390531D01*
X632472Y390506D01*
X632513Y390464D01*
X632563Y390414D01*
X632621Y390356D01*
X632688Y390281D01*
X632763Y390206D01*
X632846Y390114D01*
X632947Y390014D01*
X633046Y389906D01*
X633155Y389781D01*
X633263Y389656D01*
X633388Y389506D01*
X633521Y389356D01*
X633530Y389348D01*
X633546Y389323D01*
X633580Y389290D01*
X633613Y389240D01*
X633663Y389190D01*
X633721Y389123D01*
X633846Y388981D01*
X633979Y388823D01*
X634113Y388673D01*
X634171Y388606D01*
X634230Y388548D01*
X634288Y388490D01*
X634329Y388448D01*
X634338Y388440D01*
X634363Y388415D01*
X634404Y388381D01*
X634463Y388331D01*
X634521Y388282D01*
X634596Y388223D01*
X634746Y388115D01*
Y391264D01*
X635504D01*
Y387024D01*
D02*
G37*
G36*
X633046Y386032D02*
X633138D01*
X633246Y386024D01*
X633355Y386015D01*
X633605Y385982D01*
X633863Y385949D01*
X634113Y385890D01*
X634230Y385857D01*
X634338Y385815D01*
X634346D01*
X634363Y385807D01*
X634396Y385790D01*
X634429Y385774D01*
X634479Y385749D01*
X634538Y385715D01*
X634663Y385632D01*
X634813Y385524D01*
X634963Y385391D01*
X635121Y385224D01*
X635196Y385124D01*
X635262Y385024D01*
Y385016D01*
X635279Y384999D01*
X635296Y384966D01*
X635321Y384924D01*
X635346Y384866D01*
X635371Y384799D01*
X635404Y384716D01*
X635438Y384624D01*
X635471Y384524D01*
X635504Y384408D01*
X635529Y384291D01*
X635554Y384157D01*
X635579Y384016D01*
X635596Y383866D01*
X635604Y383699D01*
X635612Y383533D01*
Y383449D01*
X635604Y383383D01*
Y383308D01*
X635596Y383216D01*
X635588Y383116D01*
X635571Y383008D01*
X635537Y382775D01*
X635479Y382533D01*
X635404Y382283D01*
X635304Y382058D01*
Y382050D01*
X635288Y382033D01*
X635271Y382000D01*
X635246Y381966D01*
X635179Y381866D01*
X635079Y381741D01*
X634954Y381608D01*
X634796Y381475D01*
X634621Y381350D01*
X634413Y381242D01*
X634404D01*
X634388Y381233D01*
X634354Y381217D01*
X634304Y381208D01*
X634246Y381183D01*
X634171Y381167D01*
X634088Y381142D01*
X633988Y381125D01*
X633880Y381100D01*
X633763Y381075D01*
X633630Y381058D01*
X633488Y381042D01*
X633330Y381025D01*
X633163Y381008D01*
X632988Y381000D01*
X632805D01*
X629097D01*
Y381850D01*
X632797D01*
X632805D01*
X632830D01*
X632880D01*
X632930D01*
X633005Y381858D01*
X633080D01*
X633171Y381866D01*
X633263D01*
X633463Y381883D01*
X633671Y381916D01*
X633863Y381950D01*
X633946Y381975D01*
X634030Y382000D01*
X634038D01*
X634046Y382008D01*
X634096Y382033D01*
X634163Y382066D01*
X634254Y382125D01*
X634346Y382200D01*
X634454Y382291D01*
X634546Y382400D01*
X634638Y382533D01*
Y382541D01*
X634646Y382550D01*
X634671Y382600D01*
X634704Y382683D01*
X634738Y382791D01*
X634779Y382924D01*
X634813Y383083D01*
X634838Y383258D01*
X634846Y383458D01*
Y383549D01*
X634838Y383608D01*
X634829Y383683D01*
X634821Y383774D01*
X634813Y383874D01*
X634796Y383974D01*
X634746Y384191D01*
X634671Y384416D01*
X634621Y384516D01*
X634563Y384616D01*
X634504Y384707D01*
X634429Y384791D01*
X634421Y384799D01*
X634404Y384807D01*
X634379Y384824D01*
X634346Y384857D01*
X634296Y384882D01*
X634230Y384916D01*
X634155Y384957D01*
X634063Y384991D01*
X633963Y385032D01*
X633846Y385066D01*
X633713Y385099D01*
X633563Y385132D01*
X633396Y385157D01*
X633213Y385174D01*
X633013Y385182D01*
X632797Y385191D01*
X629097D01*
Y386040D01*
X632805D01*
X632813D01*
X632846D01*
X632896D01*
X632963D01*
X633046Y386032D01*
D02*
G37*
G36*
X612311Y257167D02*
X612302Y257158D01*
X612286Y257133D01*
X612252Y257100D01*
X612202Y257050D01*
X612152Y256984D01*
X612086Y256900D01*
X612011Y256808D01*
X611927Y256709D01*
X611836Y256592D01*
X611744Y256459D01*
X611644Y256317D01*
X611536Y256159D01*
X611427Y256000D01*
X611319Y255817D01*
X611211Y255634D01*
X611094Y255434D01*
X611086Y255425D01*
X611069Y255384D01*
X611036Y255326D01*
X610994Y255251D01*
X610944Y255151D01*
X610894Y255034D01*
X610828Y254901D01*
X610761Y254751D01*
X610686Y254592D01*
X610611Y254417D01*
X610536Y254234D01*
X610461Y254042D01*
X610311Y253643D01*
X610178Y253218D01*
Y253209D01*
X610169Y253184D01*
X610153Y253134D01*
X610136Y253076D01*
X610120Y253001D01*
X610094Y252910D01*
X610078Y252810D01*
X610053Y252693D01*
X610028Y252568D01*
X609995Y252435D01*
X609969Y252285D01*
X609953Y252135D01*
X609911Y251810D01*
X609878Y251460D01*
X609070D01*
Y251468D01*
Y251493D01*
Y251535D01*
X609078Y251593D01*
Y251668D01*
X609086Y251751D01*
X609095Y251851D01*
X609111Y251968D01*
X609128Y252093D01*
X609145Y252235D01*
X609170Y252385D01*
X609195Y252543D01*
X609228Y252710D01*
X609270Y252893D01*
X609311Y253076D01*
X609361Y253276D01*
Y253293D01*
X609378Y253326D01*
X609395Y253384D01*
X609411Y253459D01*
X609445Y253559D01*
X609478Y253668D01*
X609520Y253793D01*
X609570Y253934D01*
X609620Y254093D01*
X609686Y254251D01*
X609819Y254601D01*
X609986Y254967D01*
X610169Y255342D01*
X610178Y255350D01*
X610194Y255384D01*
X610219Y255442D01*
X610261Y255509D01*
X610311Y255592D01*
X610369Y255692D01*
X610436Y255809D01*
X610511Y255925D01*
X610678Y256192D01*
X610869Y256475D01*
X611086Y256758D01*
X611302Y257025D01*
X608170D01*
Y257783D01*
X612311D01*
Y257167D01*
D02*
G37*
G36*
X605037Y257858D02*
X605112D01*
X605204Y257850D01*
X605304Y257842D01*
X605512Y257825D01*
X605729Y257792D01*
X605937Y257750D01*
X606037Y257725D01*
X606120Y257692D01*
X606129D01*
X606137Y257683D01*
X606162Y257675D01*
X606195Y257658D01*
X606279Y257617D01*
X606379Y257550D01*
X606495Y257467D01*
X606612Y257358D01*
X606729Y257225D01*
X606837Y257075D01*
Y257067D01*
X606845Y257058D01*
X606862Y257033D01*
X606879Y257000D01*
X606920Y256908D01*
X606970Y256792D01*
X607020Y256650D01*
X607062Y256484D01*
X607095Y256300D01*
X607104Y256109D01*
Y256100D01*
Y256075D01*
Y256042D01*
X607095Y255992D01*
X607087Y255934D01*
X607079Y255867D01*
X607045Y255709D01*
X606995Y255525D01*
X606920Y255334D01*
X606870Y255242D01*
X606812Y255142D01*
X606737Y255051D01*
X606662Y254959D01*
X606654Y254951D01*
X606645Y254942D01*
X606612Y254917D01*
X606579Y254884D01*
X606529Y254851D01*
X606470Y254809D01*
X606404Y254759D01*
X606329Y254709D01*
X606237Y254659D01*
X606137Y254609D01*
X606021Y254559D01*
X605896Y254509D01*
X605762Y254467D01*
X605621Y254426D01*
X605462Y254393D01*
X605296Y254368D01*
X605312Y254359D01*
X605354Y254342D01*
X605412Y254309D01*
X605487Y254268D01*
X605654Y254159D01*
X605729Y254101D01*
X605804Y254042D01*
X605812D01*
X605821Y254026D01*
X605871Y253984D01*
X605937Y253909D01*
X606037Y253809D01*
X606146Y253693D01*
X606262Y253543D01*
X606387Y253376D01*
X606512Y253193D01*
X607620Y251460D01*
X606554D01*
X605712Y252785D01*
Y252793D01*
X605696Y252810D01*
X605679Y252843D01*
X605654Y252876D01*
X605621Y252926D01*
X605579Y252985D01*
X605496Y253109D01*
X605396Y253251D01*
X605296Y253393D01*
X605196Y253534D01*
X605096Y253659D01*
X605087Y253676D01*
X605054Y253709D01*
X605012Y253768D01*
X604954Y253826D01*
X604888Y253901D01*
X604813Y253976D01*
X604738Y254034D01*
X604663Y254093D01*
X604654Y254101D01*
X604629Y254109D01*
X604596Y254134D01*
X604546Y254159D01*
X604488Y254193D01*
X604421Y254217D01*
X604279Y254268D01*
X604271D01*
X604254Y254276D01*
X604221D01*
X604171Y254284D01*
X604104Y254293D01*
X604021D01*
X603929Y254301D01*
X602830D01*
Y251460D01*
X601980D01*
Y257867D01*
X604962D01*
X605037Y257858D01*
D02*
G37*
G36*
X385777Y240022D02*
X385844Y240013D01*
X385910Y240005D01*
X385994Y239997D01*
X386085Y239980D01*
X386277Y239930D01*
X386485Y239855D01*
X386585Y239805D01*
X386685Y239747D01*
X386785Y239688D01*
X386877Y239613D01*
X386885Y239605D01*
X386894Y239597D01*
X386918Y239572D01*
X386952Y239538D01*
X386993Y239497D01*
X387035Y239439D01*
X387077Y239380D01*
X387127Y239314D01*
X387177Y239230D01*
X387227Y239147D01*
X387268Y239047D01*
X387318Y238939D01*
X387360Y238830D01*
X387393Y238705D01*
X387418Y238580D01*
X387443Y238439D01*
X386685Y238381D01*
Y238389D01*
X386677Y238405D01*
Y238431D01*
X386669Y238464D01*
X386643Y238564D01*
X386602Y238672D01*
X386560Y238805D01*
X386494Y238930D01*
X386419Y239047D01*
X386327Y239147D01*
X386310Y239155D01*
X386277Y239180D01*
X386219Y239222D01*
X386135Y239264D01*
X386035Y239305D01*
X385919Y239347D01*
X385777Y239372D01*
X385627Y239380D01*
X385569D01*
X385502Y239372D01*
X385410Y239364D01*
X385319Y239339D01*
X385211Y239314D01*
X385102Y239272D01*
X384994Y239222D01*
X384986Y239214D01*
X384944Y239189D01*
X384894Y239155D01*
X384836Y239105D01*
X384761Y239039D01*
X384686Y238964D01*
X384611Y238880D01*
X384544Y238780D01*
X384536Y238764D01*
X384511Y238730D01*
X384486Y238664D01*
X384444Y238580D01*
X384394Y238472D01*
X384344Y238347D01*
X384294Y238197D01*
X384253Y238031D01*
Y238022D01*
X384244Y238006D01*
Y237981D01*
X384236Y237947D01*
X384227Y237906D01*
X384219Y237856D01*
X384194Y237731D01*
X384169Y237589D01*
X384152Y237422D01*
X384144Y237248D01*
X384136Y237064D01*
Y237056D01*
Y237022D01*
Y236973D01*
Y236906D01*
X384144Y236922D01*
X384178Y236964D01*
X384236Y237039D01*
X384311Y237122D01*
X384403Y237222D01*
X384511Y237322D01*
X384644Y237422D01*
X384786Y237514D01*
X384794D01*
X384802Y237522D01*
X384827Y237539D01*
X384861Y237547D01*
X384936Y237589D01*
X385052Y237631D01*
X385177Y237672D01*
X385327Y237714D01*
X385494Y237739D01*
X385669Y237747D01*
X385744D01*
X385802Y237739D01*
X385869Y237731D01*
X385952Y237714D01*
X386035Y237697D01*
X386135Y237672D01*
X386235Y237647D01*
X386344Y237606D01*
X386452Y237564D01*
X386569Y237506D01*
X386685Y237439D01*
X386794Y237364D01*
X386902Y237272D01*
X387010Y237173D01*
X387019Y237164D01*
X387035Y237148D01*
X387060Y237114D01*
X387093Y237064D01*
X387135Y237014D01*
X387185Y236939D01*
X387235Y236856D01*
X387285Y236764D01*
X387335Y236664D01*
X387385Y236548D01*
X387435Y236423D01*
X387477Y236289D01*
X387510Y236148D01*
X387535Y235989D01*
X387552Y235831D01*
X387560Y235656D01*
Y235648D01*
Y235614D01*
Y235565D01*
X387552Y235498D01*
X387543Y235415D01*
X387527Y235315D01*
X387510Y235206D01*
X387485Y235098D01*
X387418Y234848D01*
X387377Y234715D01*
X387318Y234582D01*
X387252Y234457D01*
X387177Y234323D01*
X387093Y234207D01*
X386993Y234090D01*
X386985Y234082D01*
X386968Y234065D01*
X386935Y234032D01*
X386894Y233998D01*
X386835Y233948D01*
X386768Y233898D01*
X386685Y233848D01*
X386594Y233790D01*
X386502Y233732D01*
X386385Y233682D01*
X386269Y233632D01*
X386144Y233582D01*
X386010Y233548D01*
X385860Y233515D01*
X385710Y233498D01*
X385552Y233490D01*
X385494D01*
X385444Y233498D01*
X385394D01*
X385327Y233507D01*
X385177Y233532D01*
X385002Y233573D01*
X384811Y233632D01*
X384611Y233715D01*
X384411Y233832D01*
X384403D01*
X384386Y233848D01*
X384361Y233865D01*
X384328Y233890D01*
X384236Y233973D01*
X384119Y234073D01*
X383994Y234215D01*
X383861Y234373D01*
X383736Y234565D01*
X383628Y234790D01*
Y234798D01*
X383619Y234815D01*
X383603Y234856D01*
X383586Y234906D01*
X383561Y234973D01*
X383544Y235048D01*
X383519Y235140D01*
X383486Y235248D01*
X383461Y235373D01*
X383436Y235506D01*
X383419Y235648D01*
X383394Y235814D01*
X383378Y235989D01*
X383361Y236173D01*
X383353Y236373D01*
Y236589D01*
Y236606D01*
Y236639D01*
Y236706D01*
Y236789D01*
X383361Y236898D01*
X383369Y237014D01*
X383378Y237148D01*
X383386Y237297D01*
X383403Y237447D01*
X383419Y237606D01*
X383461Y237939D01*
X383528Y238256D01*
X383569Y238405D01*
X383619Y238547D01*
Y238556D01*
X383628Y238580D01*
X383644Y238614D01*
X383669Y238664D01*
X383694Y238730D01*
X383728Y238797D01*
X383819Y238955D01*
X383928Y239139D01*
X384069Y239322D01*
X384227Y239497D01*
X384419Y239655D01*
X384427D01*
X384444Y239672D01*
X384469Y239688D01*
X384511Y239713D01*
X384561Y239739D01*
X384619Y239772D01*
X384694Y239805D01*
X384769Y239839D01*
X384952Y239913D01*
X385161Y239972D01*
X385394Y240013D01*
X385519Y240022D01*
X385652Y240030D01*
X385727D01*
X385777Y240022D01*
D02*
G37*
G36*
X393700Y233515D02*
X390718D01*
X390643Y233523D01*
X390568D01*
X390476Y233532D01*
X390376Y233540D01*
X390168Y233557D01*
X389951Y233590D01*
X389743Y233632D01*
X389643Y233657D01*
X389560Y233690D01*
X389551D01*
X389543Y233698D01*
X389518Y233707D01*
X389484Y233723D01*
X389401Y233765D01*
X389301Y233832D01*
X389185Y233915D01*
X389068Y234023D01*
X388951Y234157D01*
X388843Y234307D01*
Y234315D01*
X388835Y234323D01*
X388818Y234348D01*
X388801Y234382D01*
X388760Y234473D01*
X388710Y234590D01*
X388660Y234731D01*
X388618Y234898D01*
X388585Y235081D01*
X388576Y235273D01*
Y235281D01*
Y235306D01*
Y235340D01*
X388585Y235390D01*
X388593Y235448D01*
X388601Y235515D01*
X388635Y235673D01*
X388685Y235856D01*
X388760Y236048D01*
X388810Y236139D01*
X388868Y236239D01*
X388943Y236331D01*
X389018Y236423D01*
X389026Y236431D01*
X389035Y236439D01*
X389068Y236464D01*
X389101Y236498D01*
X389151Y236531D01*
X389210Y236573D01*
X389276Y236623D01*
X389351Y236673D01*
X389443Y236723D01*
X389543Y236773D01*
X389659Y236823D01*
X389784Y236873D01*
X389918Y236914D01*
X390059Y236956D01*
X390218Y236989D01*
X390384Y237014D01*
X390368Y237022D01*
X390326Y237039D01*
X390268Y237073D01*
X390193Y237114D01*
X390026Y237222D01*
X389951Y237281D01*
X389876Y237339D01*
X389868D01*
X389859Y237356D01*
X389809Y237397D01*
X389743Y237472D01*
X389643Y237572D01*
X389534Y237689D01*
X389418Y237839D01*
X389293Y238006D01*
X389168Y238189D01*
X388060Y239922D01*
X389126D01*
X389968Y238597D01*
Y238589D01*
X389984Y238572D01*
X390001Y238539D01*
X390026Y238505D01*
X390059Y238456D01*
X390101Y238397D01*
X390184Y238272D01*
X390284Y238131D01*
X390384Y237989D01*
X390484Y237847D01*
X390584Y237722D01*
X390592Y237706D01*
X390626Y237672D01*
X390667Y237614D01*
X390726Y237556D01*
X390793Y237481D01*
X390868Y237406D01*
X390942Y237347D01*
X391017Y237289D01*
X391026Y237281D01*
X391051Y237272D01*
X391084Y237248D01*
X391134Y237222D01*
X391192Y237189D01*
X391259Y237164D01*
X391401Y237114D01*
X391409D01*
X391426Y237106D01*
X391459D01*
X391509Y237097D01*
X391576Y237089D01*
X391659D01*
X391751Y237081D01*
X392850D01*
Y239922D01*
X393700D01*
Y233515D01*
D02*
G37*
G36*
X339090Y236055D02*
X336107D01*
X336032Y236063D01*
X335957D01*
X335866Y236072D01*
X335766Y236080D01*
X335558Y236097D01*
X335341Y236130D01*
X335133Y236172D01*
X335033Y236197D01*
X334949Y236230D01*
X334941D01*
X334933Y236238D01*
X334908Y236247D01*
X334874Y236263D01*
X334791Y236305D01*
X334691Y236372D01*
X334575Y236455D01*
X334458Y236563D01*
X334341Y236697D01*
X334233Y236847D01*
Y236855D01*
X334225Y236863D01*
X334208Y236888D01*
X334191Y236922D01*
X334150Y237013D01*
X334100Y237130D01*
X334050Y237271D01*
X334008Y237438D01*
X333975Y237621D01*
X333966Y237813D01*
Y237821D01*
Y237846D01*
Y237880D01*
X333975Y237930D01*
X333983Y237988D01*
X333991Y238055D01*
X334025Y238213D01*
X334075Y238396D01*
X334150Y238588D01*
X334200Y238679D01*
X334258Y238779D01*
X334333Y238871D01*
X334408Y238963D01*
X334416Y238971D01*
X334425Y238979D01*
X334458Y239004D01*
X334491Y239038D01*
X334541Y239071D01*
X334600Y239113D01*
X334666Y239163D01*
X334741Y239213D01*
X334833Y239263D01*
X334933Y239313D01*
X335049Y239363D01*
X335174Y239413D01*
X335308Y239454D01*
X335449Y239496D01*
X335608Y239529D01*
X335774Y239554D01*
X335758Y239562D01*
X335716Y239579D01*
X335658Y239613D01*
X335583Y239654D01*
X335416Y239762D01*
X335341Y239821D01*
X335266Y239879D01*
X335258D01*
X335249Y239896D01*
X335199Y239937D01*
X335133Y240012D01*
X335033Y240112D01*
X334925Y240229D01*
X334808Y240379D01*
X334683Y240546D01*
X334558Y240729D01*
X333450Y242462D01*
X334516D01*
X335358Y241137D01*
Y241129D01*
X335374Y241112D01*
X335391Y241079D01*
X335416Y241045D01*
X335449Y240996D01*
X335491Y240937D01*
X335574Y240812D01*
X335674Y240671D01*
X335774Y240529D01*
X335874Y240387D01*
X335974Y240262D01*
X335983Y240246D01*
X336016Y240212D01*
X336058Y240154D01*
X336116Y240096D01*
X336183Y240021D01*
X336258Y239946D01*
X336332Y239887D01*
X336407Y239829D01*
X336416Y239821D01*
X336441Y239812D01*
X336474Y239788D01*
X336524Y239762D01*
X336582Y239729D01*
X336649Y239704D01*
X336791Y239654D01*
X336799D01*
X336816Y239646D01*
X336849D01*
X336899Y239638D01*
X336966Y239629D01*
X337049D01*
X337141Y239621D01*
X338240D01*
Y242462D01*
X339090D01*
Y236055D01*
D02*
G37*
G36*
X331009Y242562D02*
X331092Y242553D01*
X331184Y242537D01*
X331284Y242520D01*
X331400Y242503D01*
X331642Y242437D01*
X331767Y242387D01*
X331900Y242337D01*
X332025Y242270D01*
X332150Y242195D01*
X332267Y242112D01*
X332383Y242012D01*
X332392Y242004D01*
X332408Y241987D01*
X332433Y241954D01*
X332475Y241912D01*
X332517Y241854D01*
X332567Y241787D01*
X332617Y241712D01*
X332667Y241629D01*
X332725Y241529D01*
X332775Y241429D01*
X332825Y241312D01*
X332867Y241187D01*
X332908Y241054D01*
X332933Y240912D01*
X332950Y240762D01*
X332958Y240612D01*
Y240604D01*
Y240587D01*
Y240554D01*
X332950Y240504D01*
Y240454D01*
X332942Y240396D01*
X332917Y240246D01*
X332883Y240079D01*
X332825Y239912D01*
X332750Y239737D01*
X332642Y239571D01*
Y239562D01*
X332625Y239554D01*
X332583Y239504D01*
X332508Y239429D01*
X332408Y239338D01*
X332284Y239246D01*
X332125Y239146D01*
X331950Y239063D01*
X331742Y238996D01*
X331750D01*
X331767Y238988D01*
X331792Y238979D01*
X331825Y238963D01*
X331909Y238921D01*
X332017Y238863D01*
X332133Y238788D01*
X332258Y238704D01*
X332367Y238596D01*
X332467Y238479D01*
X332475Y238463D01*
X332500Y238421D01*
X332542Y238346D01*
X332583Y238255D01*
X332625Y238138D01*
X332667Y238005D01*
X332692Y237855D01*
X332700Y237688D01*
Y237680D01*
Y237655D01*
Y237621D01*
X332692Y237571D01*
X332683Y237513D01*
X332675Y237438D01*
X332633Y237280D01*
X332575Y237097D01*
X332533Y236996D01*
X332492Y236896D01*
X332433Y236797D01*
X332367Y236697D01*
X332292Y236605D01*
X332200Y236513D01*
X332192Y236505D01*
X332175Y236488D01*
X332150Y236472D01*
X332108Y236438D01*
X332058Y236405D01*
X332000Y236363D01*
X331925Y236313D01*
X331842Y236272D01*
X331759Y236230D01*
X331659Y236180D01*
X331542Y236138D01*
X331425Y236105D01*
X331300Y236072D01*
X331167Y236047D01*
X331017Y236038D01*
X330867Y236030D01*
X330784D01*
X330726Y236038D01*
X330659Y236047D01*
X330576Y236055D01*
X330484Y236072D01*
X330384Y236088D01*
X330167Y236147D01*
X330059Y236188D01*
X329942Y236238D01*
X329834Y236297D01*
X329717Y236355D01*
X329618Y236438D01*
X329518Y236522D01*
X329509Y236530D01*
X329492Y236547D01*
X329468Y236572D01*
X329434Y236605D01*
X329401Y236655D01*
X329351Y236713D01*
X329309Y236780D01*
X329259Y236847D01*
X329168Y237022D01*
X329084Y237221D01*
X329051Y237338D01*
X329026Y237455D01*
X329009Y237580D01*
X329001Y237705D01*
Y237713D01*
Y237721D01*
Y237746D01*
Y237780D01*
X329009Y237863D01*
X329034Y237971D01*
X329059Y238096D01*
X329101Y238221D01*
X329159Y238354D01*
X329243Y238488D01*
X329251Y238505D01*
X329284Y238538D01*
X329343Y238596D01*
X329418Y238671D01*
X329518Y238754D01*
X329642Y238838D01*
X329784Y238921D01*
X329951Y238996D01*
X329942D01*
X329926Y239004D01*
X329892Y239013D01*
X329851Y239029D01*
X329801Y239054D01*
X329751Y239079D01*
X329618Y239146D01*
X329468Y239229D01*
X329318Y239338D01*
X329176Y239463D01*
X329051Y239613D01*
Y239621D01*
X329034Y239629D01*
X329026Y239654D01*
X329001Y239688D01*
X328976Y239729D01*
X328951Y239779D01*
X328893Y239896D01*
X328843Y240046D01*
X328793Y240221D01*
X328759Y240421D01*
X328743Y240637D01*
Y240646D01*
Y240671D01*
Y240712D01*
X328751Y240770D01*
X328759Y240846D01*
X328776Y240929D01*
X328793Y241012D01*
X328818Y241112D01*
X328843Y241220D01*
X328884Y241329D01*
X328934Y241445D01*
X328984Y241562D01*
X329059Y241679D01*
X329134Y241795D01*
X329226Y241904D01*
X329326Y242012D01*
X329334Y242020D01*
X329351Y242037D01*
X329384Y242062D01*
X329434Y242095D01*
X329492Y242145D01*
X329559Y242187D01*
X329642Y242237D01*
X329734Y242287D01*
X329842Y242345D01*
X329951Y242395D01*
X330076Y242437D01*
X330217Y242478D01*
X330359Y242520D01*
X330517Y242545D01*
X330676Y242562D01*
X330850Y242570D01*
X330942D01*
X331009Y242562D01*
D02*
G37*
G36*
X449580Y237325D02*
X446598D01*
X446522Y237333D01*
X446447D01*
X446356Y237342D01*
X446256Y237350D01*
X446048Y237367D01*
X445831Y237400D01*
X445623Y237442D01*
X445523Y237467D01*
X445439Y237500D01*
X445431D01*
X445423Y237508D01*
X445398Y237517D01*
X445364Y237533D01*
X445281Y237575D01*
X445181Y237642D01*
X445065Y237725D01*
X444948Y237833D01*
X444831Y237967D01*
X444723Y238116D01*
Y238125D01*
X444715Y238133D01*
X444698Y238158D01*
X444681Y238192D01*
X444640Y238283D01*
X444590Y238400D01*
X444540Y238541D01*
X444498Y238708D01*
X444465Y238891D01*
X444456Y239083D01*
Y239091D01*
Y239116D01*
Y239150D01*
X444465Y239200D01*
X444473Y239258D01*
X444481Y239325D01*
X444515Y239483D01*
X444565Y239666D01*
X444640Y239858D01*
X444690Y239949D01*
X444748Y240049D01*
X444823Y240141D01*
X444898Y240233D01*
X444906Y240241D01*
X444915Y240249D01*
X444948Y240274D01*
X444981Y240308D01*
X445031Y240341D01*
X445090Y240383D01*
X445156Y240433D01*
X445231Y240483D01*
X445323Y240533D01*
X445423Y240583D01*
X445539Y240633D01*
X445664Y240683D01*
X445798Y240724D01*
X445939Y240766D01*
X446098Y240799D01*
X446264Y240824D01*
X446248Y240833D01*
X446206Y240849D01*
X446148Y240882D01*
X446073Y240924D01*
X445906Y241033D01*
X445831Y241091D01*
X445756Y241149D01*
X445748D01*
X445739Y241166D01*
X445689Y241207D01*
X445623Y241282D01*
X445523Y241382D01*
X445415Y241499D01*
X445298Y241649D01*
X445173Y241816D01*
X445048Y241999D01*
X443940Y243732D01*
X445006D01*
X445848Y242407D01*
Y242399D01*
X445864Y242382D01*
X445881Y242349D01*
X445906Y242316D01*
X445939Y242265D01*
X445981Y242207D01*
X446064Y242082D01*
X446164Y241941D01*
X446264Y241799D01*
X446364Y241657D01*
X446464Y241532D01*
X446473Y241516D01*
X446506Y241482D01*
X446548Y241424D01*
X446606Y241366D01*
X446673Y241291D01*
X446748Y241216D01*
X446822Y241157D01*
X446897Y241099D01*
X446906Y241091D01*
X446931Y241082D01*
X446964Y241057D01*
X447014Y241033D01*
X447072Y240999D01*
X447139Y240974D01*
X447281Y240924D01*
X447289D01*
X447306Y240916D01*
X447339D01*
X447389Y240907D01*
X447456Y240899D01*
X447539D01*
X447631Y240891D01*
X448730D01*
Y243732D01*
X449580D01*
Y237325D01*
D02*
G37*
G36*
X441265Y238725D02*
X441282Y238733D01*
X441315Y238766D01*
X441382Y238825D01*
X441465Y238891D01*
X441574Y238975D01*
X441707Y239066D01*
X441849Y239166D01*
X442015Y239266D01*
X442024D01*
X442032Y239275D01*
X442057Y239291D01*
X442090Y239308D01*
X442182Y239358D01*
X442290Y239416D01*
X442415Y239483D01*
X442557Y239550D01*
X442699Y239616D01*
X442840Y239674D01*
Y238908D01*
X442832D01*
X442807Y238891D01*
X442774Y238875D01*
X442732Y238850D01*
X442673Y238825D01*
X442607Y238783D01*
X442449Y238700D01*
X442274Y238591D01*
X442074Y238458D01*
X441882Y238316D01*
X441690Y238158D01*
X441682Y238150D01*
X441665Y238141D01*
X441640Y238116D01*
X441607Y238083D01*
X441524Y238000D01*
X441415Y237883D01*
X441307Y237758D01*
X441191Y237608D01*
X441082Y237458D01*
X440991Y237300D01*
X440482D01*
Y243732D01*
X441265D01*
Y238725D01*
D02*
G37*
G36*
X436475Y243832D02*
X436533D01*
X436617Y243823D01*
X436700Y243807D01*
X436800Y243782D01*
X436908Y243757D01*
X437025Y243723D01*
X437142Y243682D01*
X437267Y243624D01*
X437392Y243565D01*
X437508Y243490D01*
X437625Y243398D01*
X437733Y243298D01*
X437841Y243182D01*
X437850Y243174D01*
X437866Y243140D01*
X437900Y243099D01*
X437941Y243032D01*
X437983Y242940D01*
X438041Y242832D01*
X438091Y242707D01*
X438150Y242557D01*
X438208Y242382D01*
X438266Y242190D01*
X438325Y241982D01*
X438366Y241741D01*
X438408Y241482D01*
X438441Y241207D01*
X438458Y240899D01*
X438466Y240574D01*
Y240558D01*
Y240524D01*
Y240466D01*
Y240383D01*
X438458Y240291D01*
X438450Y240183D01*
Y240058D01*
X438433Y239924D01*
X438408Y239633D01*
X438366Y239325D01*
X438308Y239025D01*
X438275Y238883D01*
X438233Y238750D01*
Y238741D01*
X438225Y238716D01*
X438208Y238683D01*
X438191Y238633D01*
X438166Y238575D01*
X438133Y238508D01*
X438058Y238350D01*
X437958Y238183D01*
X437841Y238000D01*
X437700Y237825D01*
X437542Y237675D01*
X437533Y237667D01*
X437517Y237658D01*
X437491Y237642D01*
X437458Y237617D01*
X437416Y237592D01*
X437358Y237558D01*
X437300Y237525D01*
X437225Y237483D01*
X437058Y237417D01*
X436858Y237358D01*
X436633Y237317D01*
X436508Y237300D01*
X436300D01*
X436250Y237308D01*
X436200D01*
X436075Y237325D01*
X435934Y237350D01*
X435784Y237392D01*
X435625Y237442D01*
X435475Y237508D01*
X435467D01*
X435459Y237517D01*
X435409Y237550D01*
X435342Y237592D01*
X435250Y237658D01*
X435150Y237750D01*
X435042Y237850D01*
X434934Y237967D01*
X434834Y238108D01*
Y238116D01*
X434826Y238125D01*
X434809Y238150D01*
X434792Y238175D01*
X434751Y238258D01*
X434692Y238375D01*
X434626Y238516D01*
X434559Y238675D01*
X434501Y238866D01*
X434442Y239066D01*
Y239075D01*
X434434Y239091D01*
X434426Y239125D01*
X434417Y239166D01*
X434409Y239225D01*
X434392Y239291D01*
X434384Y239375D01*
X434367Y239466D01*
X434351Y239566D01*
X434342Y239683D01*
X434326Y239799D01*
X434317Y239941D01*
X434309Y240083D01*
X434301Y240233D01*
X434292Y240399D01*
Y240574D01*
Y240591D01*
Y240624D01*
Y240683D01*
Y240766D01*
X434301Y240858D01*
Y240966D01*
X434309Y241091D01*
X434317Y241224D01*
X434351Y241516D01*
X434392Y241824D01*
X434451Y242124D01*
X434484Y242265D01*
X434526Y242399D01*
Y242407D01*
X434534Y242432D01*
X434551Y242465D01*
X434567Y242515D01*
X434592Y242574D01*
X434626Y242640D01*
X434701Y242790D01*
X434800Y242965D01*
X434917Y243140D01*
X435059Y243315D01*
X435225Y243465D01*
X435234D01*
X435242Y243482D01*
X435275Y243498D01*
X435309Y243524D01*
X435350Y243549D01*
X435409Y243582D01*
X435467Y243615D01*
X435542Y243648D01*
X435709Y243723D01*
X435909Y243782D01*
X436133Y243823D01*
X436259Y243832D01*
X436384Y243840D01*
X436425D01*
X436475Y243832D01*
D02*
G37*
G36*
X232039Y100599D02*
X233572D01*
Y99816D01*
X232039D01*
Y97034D01*
X231314D01*
X227165Y99958D01*
Y100599D01*
X231314D01*
Y101466D01*
X232039D01*
Y100599D01*
D02*
G37*
G36*
X231731Y96226D02*
X231806D01*
X231897Y96217D01*
X231989Y96209D01*
X232189Y96184D01*
X232397Y96151D01*
X232597Y96101D01*
X232697Y96067D01*
X232780Y96034D01*
X232789D01*
X232797Y96026D01*
X232822Y96017D01*
X232855Y96001D01*
X232930Y95951D01*
X233030Y95884D01*
X233139Y95801D01*
X233247Y95692D01*
X233355Y95568D01*
X233455Y95417D01*
Y95409D01*
X233463Y95401D01*
X233472Y95376D01*
X233489Y95343D01*
X233530Y95259D01*
X233563Y95134D01*
X233605Y94993D01*
X233647Y94826D01*
X233672Y94634D01*
X233680Y94426D01*
Y94343D01*
X233672Y94284D01*
X233663Y94218D01*
X233655Y94135D01*
X233638Y94043D01*
X233622Y93951D01*
X233563Y93743D01*
X233522Y93635D01*
X233472Y93526D01*
X233422Y93418D01*
X233355Y93318D01*
X233280Y93226D01*
X233197Y93135D01*
X233188Y93126D01*
X233172Y93118D01*
X233147Y93093D01*
X233105Y93068D01*
X233055Y93035D01*
X232997Y92993D01*
X232922Y92951D01*
X232839Y92910D01*
X232739Y92877D01*
X232630Y92835D01*
X232514Y92802D01*
X232389Y92768D01*
X232247Y92743D01*
X232097Y92718D01*
X231939Y92710D01*
X231764D01*
X231656Y93476D01*
X231664D01*
X231689D01*
X231722D01*
X231772Y93485D01*
X231831Y93493D01*
X231897Y93501D01*
X232055Y93518D01*
X232222Y93551D01*
X232389Y93601D01*
X232539Y93660D01*
X232597Y93701D01*
X232655Y93743D01*
X232664Y93751D01*
X232697Y93793D01*
X232739Y93843D01*
X232789Y93926D01*
X232839Y94018D01*
X232880Y94135D01*
X232914Y94276D01*
X232922Y94426D01*
Y94476D01*
X232914Y94543D01*
X232905Y94618D01*
X232889Y94701D01*
X232864Y94793D01*
X232830Y94884D01*
X232780Y94976D01*
X232772Y94984D01*
X232755Y95018D01*
X232722Y95051D01*
X232672Y95101D01*
X232614Y95159D01*
X232547Y95209D01*
X232472Y95259D01*
X232380Y95293D01*
X232372Y95301D01*
X232330Y95309D01*
X232272Y95326D01*
X232189Y95343D01*
X232072Y95359D01*
X231939Y95367D01*
X231772Y95384D01*
X231581D01*
X227165D01*
Y96234D01*
X231531D01*
X231539D01*
X231564D01*
X231606D01*
X231664D01*
X231731Y96226D01*
D02*
G37*
G36*
X229007Y368233D02*
X229082Y368224D01*
X229174Y368216D01*
X229274Y368199D01*
X229374Y368174D01*
X229615Y368116D01*
X229740Y368074D01*
X229865Y368024D01*
X229990Y367966D01*
X230115Y367899D01*
X230240Y367824D01*
X230365Y367733D01*
X230374Y367724D01*
X230399Y367708D01*
X230440Y367666D01*
X230482Y367616D01*
X230549Y367558D01*
X230607Y367483D01*
X230682Y367391D01*
X230749Y367291D01*
X230823Y367175D01*
X230898Y367050D01*
X230957Y366916D01*
X231015Y366766D01*
X231065Y366600D01*
X231107Y366425D01*
X231132Y366241D01*
X231140Y366050D01*
Y365966D01*
X231132Y365908D01*
X231123Y365833D01*
X231115Y365742D01*
X231098Y365650D01*
X231082Y365542D01*
X231023Y365317D01*
X230982Y365200D01*
X230932Y365083D01*
X230882Y364958D01*
X230815Y364842D01*
X230740Y364734D01*
X230657Y364625D01*
X230648Y364617D01*
X230632Y364600D01*
X230607Y364575D01*
X230565Y364542D01*
X230515Y364492D01*
X230457Y364450D01*
X230390Y364392D01*
X230307Y364342D01*
X230224Y364284D01*
X230124Y364234D01*
X230015Y364175D01*
X229899Y364134D01*
X229774Y364084D01*
X229649Y364050D01*
X229507Y364017D01*
X229357Y364000D01*
X229299Y364825D01*
X229307D01*
X229324Y364833D01*
X229357D01*
X229399Y364842D01*
X229449Y364859D01*
X229507Y364875D01*
X229632Y364908D01*
X229782Y364967D01*
X229932Y365042D01*
X230074Y365133D01*
X230199Y365242D01*
X230207Y365258D01*
X230240Y365300D01*
X230290Y365375D01*
X230340Y365467D01*
X230399Y365583D01*
X230440Y365725D01*
X230474Y365875D01*
X230490Y366050D01*
Y366108D01*
X230482Y366150D01*
X230474Y366191D01*
X230465Y366250D01*
X230440Y366383D01*
X230390Y366541D01*
X230307Y366700D01*
X230265Y366783D01*
X230207Y366866D01*
X230140Y366941D01*
X230065Y367016D01*
X230057Y367025D01*
X230049Y367033D01*
X230024Y367050D01*
X229990Y367075D01*
X229949Y367108D01*
X229890Y367141D01*
X229832Y367175D01*
X229765Y367216D01*
X229599Y367283D01*
X229407Y367350D01*
X229182Y367391D01*
X229066Y367408D01*
X228932D01*
X228924D01*
X228899D01*
X228866D01*
X228824Y367399D01*
X228766D01*
X228699Y367391D01*
X228549Y367358D01*
X228374Y367316D01*
X228199Y367249D01*
X228024Y367158D01*
X227941Y367100D01*
X227866Y367033D01*
X227858D01*
X227849Y367016D01*
X227833Y366991D01*
X227808Y366966D01*
X227741Y366883D01*
X227666Y366766D01*
X227599Y366625D01*
X227533Y366458D01*
X227491Y366258D01*
X227474Y366158D01*
Y365975D01*
X227483Y365908D01*
X227499Y365808D01*
X227516Y365708D01*
X227549Y365592D01*
X227599Y365467D01*
X227658Y365350D01*
X227666Y365333D01*
X227691Y365300D01*
X227724Y365250D01*
X227783Y365183D01*
X227841Y365108D01*
X227924Y365025D01*
X228008Y364950D01*
X228107Y364883D01*
X227999Y364142D01*
X224708Y364758D01*
Y367941D01*
X225458D01*
Y365383D01*
X227191Y365042D01*
X227183Y365050D01*
X227174Y365067D01*
X227149Y365100D01*
X227124Y365142D01*
X227099Y365192D01*
X227058Y365258D01*
X227024Y365325D01*
X226983Y365408D01*
X226908Y365592D01*
X226849Y365792D01*
X226800Y366017D01*
X226791Y366133D01*
X226783Y366250D01*
Y366333D01*
X226791Y366391D01*
X226800Y366458D01*
X226816Y366541D01*
X226833Y366633D01*
X226858Y366741D01*
X226883Y366850D01*
X226924Y366958D01*
X226975Y367075D01*
X227024Y367200D01*
X227099Y367316D01*
X227174Y367433D01*
X227266Y367550D01*
X227366Y367658D01*
X227374Y367666D01*
X227391Y367683D01*
X227424Y367708D01*
X227474Y367749D01*
X227533Y367791D01*
X227599Y367841D01*
X227683Y367899D01*
X227774Y367949D01*
X227874Y368008D01*
X227991Y368058D01*
X228107Y368108D01*
X228241Y368149D01*
X228391Y368191D01*
X228541Y368216D01*
X228699Y368233D01*
X228866Y368241D01*
X228874D01*
X228907D01*
X228949D01*
X229007Y368233D01*
D02*
G37*
G36*
X229191Y362926D02*
X229266D01*
X229357Y362917D01*
X229449Y362909D01*
X229649Y362884D01*
X229857Y362851D01*
X230057Y362801D01*
X230157Y362767D01*
X230240Y362734D01*
X230249D01*
X230257Y362726D01*
X230282Y362717D01*
X230315Y362701D01*
X230390Y362651D01*
X230490Y362584D01*
X230599Y362501D01*
X230707Y362392D01*
X230815Y362267D01*
X230915Y362118D01*
Y362109D01*
X230924Y362101D01*
X230932Y362076D01*
X230949Y362043D01*
X230990Y361959D01*
X231023Y361834D01*
X231065Y361693D01*
X231107Y361526D01*
X231132Y361334D01*
X231140Y361126D01*
Y361043D01*
X231132Y360984D01*
X231123Y360918D01*
X231115Y360835D01*
X231098Y360743D01*
X231082Y360651D01*
X231023Y360443D01*
X230982Y360335D01*
X230932Y360226D01*
X230882Y360118D01*
X230815Y360018D01*
X230740Y359926D01*
X230657Y359835D01*
X230648Y359826D01*
X230632Y359818D01*
X230607Y359793D01*
X230565Y359768D01*
X230515Y359735D01*
X230457Y359693D01*
X230382Y359651D01*
X230299Y359610D01*
X230199Y359576D01*
X230090Y359535D01*
X229974Y359501D01*
X229849Y359468D01*
X229707Y359443D01*
X229557Y359418D01*
X229399Y359410D01*
X229224D01*
X229116Y360176D01*
X229124D01*
X229149D01*
X229182D01*
X229232Y360185D01*
X229291Y360193D01*
X229357Y360201D01*
X229515Y360218D01*
X229682Y360251D01*
X229849Y360301D01*
X229999Y360360D01*
X230057Y360401D01*
X230115Y360443D01*
X230124Y360451D01*
X230157Y360493D01*
X230199Y360543D01*
X230249Y360626D01*
X230299Y360718D01*
X230340Y360835D01*
X230374Y360976D01*
X230382Y361126D01*
Y361176D01*
X230374Y361243D01*
X230365Y361318D01*
X230349Y361401D01*
X230324Y361493D01*
X230290Y361584D01*
X230240Y361676D01*
X230232Y361684D01*
X230215Y361718D01*
X230182Y361751D01*
X230132Y361801D01*
X230074Y361859D01*
X230007Y361909D01*
X229932Y361959D01*
X229840Y361992D01*
X229832Y362001D01*
X229790Y362009D01*
X229732Y362026D01*
X229649Y362043D01*
X229532Y362059D01*
X229399Y362067D01*
X229232Y362084D01*
X229041D01*
X224625D01*
Y362934D01*
X228991D01*
X228999D01*
X229024D01*
X229066D01*
X229124D01*
X229191Y362926D01*
D02*
G37*
G36*
X236736Y612023D02*
X236794Y612014D01*
X236944Y611998D01*
X237111Y611964D01*
X237302Y611923D01*
X237494Y611856D01*
X237694Y611764D01*
X237702D01*
X237719Y611756D01*
X237744Y611739D01*
X237777Y611714D01*
X237869Y611656D01*
X237985Y611581D01*
X238110Y611473D01*
X238244Y611356D01*
X238368Y611214D01*
X238485Y611048D01*
Y611040D01*
X238493Y611031D01*
X238510Y611006D01*
X238527Y610973D01*
X238552Y610923D01*
X238568Y610873D01*
X238618Y610748D01*
X238677Y610598D01*
X238718Y610423D01*
X238752Y610231D01*
X238760Y610023D01*
Y609981D01*
X238752Y609931D01*
Y609856D01*
X238735Y609773D01*
X238718Y609682D01*
X238702Y609573D01*
X238668Y609457D01*
X238635Y609332D01*
X238585Y609198D01*
X238527Y609065D01*
X238460Y608932D01*
X238377Y608798D01*
X238277Y608665D01*
X238169Y608540D01*
X238044Y608415D01*
X238035Y608407D01*
X238010Y608390D01*
X237969Y608357D01*
X237902Y608315D01*
X237827Y608274D01*
X237727Y608224D01*
X237610Y608165D01*
X237477Y608107D01*
X237319Y608049D01*
X237144Y607990D01*
X236944Y607940D01*
X236736Y607899D01*
X236494Y607857D01*
X236236Y607824D01*
X235961Y607807D01*
X235661Y607799D01*
X235653D01*
X235636D01*
X235611D01*
X235578D01*
X235536D01*
X235486Y607807D01*
X235361D01*
X235203Y607824D01*
X235028Y607832D01*
X234836Y607857D01*
X234628Y607882D01*
X234411Y607924D01*
X234186Y607965D01*
X233961Y608024D01*
X233736Y608090D01*
X233520Y608165D01*
X233320Y608257D01*
X233128Y608365D01*
X232962Y608482D01*
X232953Y608490D01*
X232928Y608507D01*
X232895Y608540D01*
X232845Y608590D01*
X232787Y608648D01*
X232728Y608723D01*
X232662Y608815D01*
X232587Y608907D01*
X232520Y609015D01*
X232453Y609140D01*
X232395Y609273D01*
X232337Y609415D01*
X232287Y609573D01*
X232253Y609740D01*
X232228Y609915D01*
X232220Y610098D01*
Y610173D01*
X232228Y610223D01*
X232237Y610290D01*
X232245Y610365D01*
X232253Y610448D01*
X232270Y610540D01*
X232320Y610731D01*
X232395Y610940D01*
X232445Y611048D01*
X232503Y611148D01*
X232570Y611248D01*
X232645Y611339D01*
X232653Y611348D01*
X232662Y611365D01*
X232687Y611381D01*
X232720Y611414D01*
X232770Y611456D01*
X232820Y611498D01*
X232878Y611548D01*
X232953Y611598D01*
X233028Y611648D01*
X233120Y611698D01*
X233211Y611739D01*
X233320Y611789D01*
X233545Y611873D01*
X233678Y611898D01*
X233811Y611923D01*
X233870Y611139D01*
X233861D01*
X233853Y611131D01*
X233828D01*
X233795Y611123D01*
X233711Y611098D01*
X233611Y611064D01*
X233503Y611023D01*
X233395Y610965D01*
X233295Y610906D01*
X233203Y610840D01*
X233186Y610823D01*
X233153Y610781D01*
X233095Y610715D01*
X233036Y610623D01*
X232978Y610506D01*
X232920Y610373D01*
X232887Y610215D01*
X232870Y610048D01*
Y609981D01*
X232878Y609915D01*
X232895Y609823D01*
X232920Y609723D01*
X232962Y609607D01*
X233011Y609498D01*
X233086Y609382D01*
X233095Y609365D01*
X233137Y609323D01*
X233195Y609257D01*
X233286Y609173D01*
X233395Y609082D01*
X233528Y608982D01*
X233686Y608890D01*
X233870Y608798D01*
X233878D01*
X233895Y608790D01*
X233920Y608782D01*
X233961Y608765D01*
X234020Y608749D01*
X234086Y608732D01*
X234161Y608715D01*
X234245Y608690D01*
X234345Y608674D01*
X234461Y608657D01*
X234578Y608640D01*
X234711Y608624D01*
X234853Y608607D01*
X235011Y608590D01*
X235178Y608582D01*
X235344D01*
X235336Y608599D01*
X235278Y608632D01*
X235203Y608690D01*
X235111Y608773D01*
X235003Y608873D01*
X234903Y608990D01*
X234794Y609123D01*
X234711Y609273D01*
Y609282D01*
X234703Y609290D01*
X234694Y609315D01*
X234678Y609348D01*
X234645Y609423D01*
X234603Y609532D01*
X234561Y609665D01*
X234528Y609807D01*
X234503Y609965D01*
X234494Y610131D01*
Y610206D01*
X234503Y610265D01*
X234511Y610331D01*
X234528Y610415D01*
X234545Y610498D01*
X234569Y610598D01*
X234594Y610698D01*
X234636Y610806D01*
X234686Y610915D01*
X234736Y611031D01*
X234811Y611148D01*
X234886Y611256D01*
X234978Y611365D01*
X235078Y611473D01*
X235086Y611481D01*
X235103Y611498D01*
X235136Y611523D01*
X235186Y611564D01*
X235244Y611606D01*
X235311Y611648D01*
X235394Y611698D01*
X235486Y611756D01*
X235586Y611806D01*
X235702Y611856D01*
X235819Y611898D01*
X235952Y611948D01*
X236102Y611981D01*
X236252Y612006D01*
X236411Y612023D01*
X236577Y612031D01*
X236586D01*
X236602D01*
X236636D01*
X236677D01*
X236736Y612023D01*
D02*
G37*
G36*
X236811Y606766D02*
X236886D01*
X236977Y606757D01*
X237069Y606749D01*
X237269Y606724D01*
X237477Y606691D01*
X237677Y606641D01*
X237777Y606607D01*
X237860Y606574D01*
X237869D01*
X237877Y606566D01*
X237902Y606557D01*
X237935Y606541D01*
X238010Y606491D01*
X238110Y606424D01*
X238218Y606341D01*
X238327Y606232D01*
X238435Y606107D01*
X238535Y605957D01*
Y605949D01*
X238543Y605941D01*
X238552Y605916D01*
X238568Y605882D01*
X238610Y605799D01*
X238643Y605674D01*
X238685Y605533D01*
X238727Y605366D01*
X238752Y605174D01*
X238760Y604966D01*
Y604883D01*
X238752Y604824D01*
X238743Y604758D01*
X238735Y604674D01*
X238718Y604583D01*
X238702Y604491D01*
X238643Y604283D01*
X238602Y604175D01*
X238552Y604066D01*
X238502Y603958D01*
X238435Y603858D01*
X238360Y603766D01*
X238277Y603675D01*
X238269Y603666D01*
X238252Y603658D01*
X238227Y603633D01*
X238185Y603608D01*
X238135Y603575D01*
X238077Y603533D01*
X238002Y603492D01*
X237919Y603450D01*
X237819Y603416D01*
X237710Y603375D01*
X237594Y603341D01*
X237469Y603308D01*
X237327Y603283D01*
X237177Y603258D01*
X237019Y603250D01*
X236844D01*
X236736Y604016D01*
X236744D01*
X236769D01*
X236802D01*
X236852Y604025D01*
X236910Y604033D01*
X236977Y604041D01*
X237136Y604058D01*
X237302Y604091D01*
X237469Y604141D01*
X237619Y604200D01*
X237677Y604241D01*
X237735Y604283D01*
X237744Y604291D01*
X237777Y604333D01*
X237819Y604383D01*
X237869Y604466D01*
X237919Y604558D01*
X237960Y604674D01*
X237994Y604816D01*
X238002Y604966D01*
Y605016D01*
X237994Y605083D01*
X237985Y605158D01*
X237969Y605241D01*
X237944Y605333D01*
X237910Y605424D01*
X237860Y605516D01*
X237852Y605524D01*
X237835Y605558D01*
X237802Y605591D01*
X237752Y605641D01*
X237694Y605699D01*
X237627Y605749D01*
X237552Y605799D01*
X237460Y605832D01*
X237452Y605841D01*
X237410Y605849D01*
X237352Y605866D01*
X237269Y605882D01*
X237152Y605899D01*
X237019Y605908D01*
X236852Y605924D01*
X236661D01*
X232245D01*
Y606774D01*
X236611D01*
X236619D01*
X236644D01*
X236686D01*
X236744D01*
X236811Y606766D01*
D02*
G37*
%LPC*%
G36*
X690069Y255888D02*
X687920D01*
Y253764D01*
X689877D01*
X689936Y253772D01*
X690069Y253781D01*
X690211Y253789D01*
X690369Y253814D01*
X690511Y253839D01*
X690644Y253881D01*
X690661Y253889D01*
X690702Y253906D01*
X690761Y253931D01*
X690836Y253972D01*
X690911Y254022D01*
X690994Y254089D01*
X691077Y254172D01*
X691144Y254264D01*
X691152Y254272D01*
X691169Y254314D01*
X691202Y254364D01*
X691236Y254439D01*
X691261Y254522D01*
X691294Y254622D01*
X691311Y254722D01*
X691319Y254839D01*
Y254847D01*
Y254855D01*
Y254880D01*
X691311Y254914D01*
X691302Y254997D01*
X691277Y255105D01*
X691236Y255222D01*
X691177Y255347D01*
X691094Y255472D01*
X690985Y255588D01*
X690969Y255605D01*
X690919Y255639D01*
X690844Y255680D01*
X690727Y255739D01*
X690661Y255763D01*
X690586Y255797D01*
X690502Y255822D01*
X690402Y255838D01*
X690302Y255863D01*
X690194Y255872D01*
X690069Y255888D01*
D02*
G37*
G36*
X403343Y149624D02*
X403193D01*
X403151Y149616D01*
X403110D01*
X403051Y149607D01*
X402934Y149574D01*
X402793Y149532D01*
X402635Y149466D01*
X402485Y149366D01*
X402410Y149307D01*
X402343Y149241D01*
Y149232D01*
X402326Y149224D01*
X402310Y149199D01*
X402285Y149174D01*
X402226Y149091D01*
X402160Y148974D01*
X402093Y148824D01*
X402035Y148658D01*
X401993Y148458D01*
X401985Y148349D01*
X401976Y148233D01*
Y148224D01*
Y148216D01*
Y148166D01*
X401985Y148083D01*
X402001Y147983D01*
X402018Y147866D01*
X402043Y147733D01*
X402085Y147591D01*
X402143Y147450D01*
X402151Y147433D01*
X402176Y147391D01*
X402218Y147324D01*
X402268Y147241D01*
X402335Y147150D01*
X402418Y147058D01*
X402518Y146975D01*
X402626Y146891D01*
X402643Y146883D01*
X402676Y146858D01*
X402743Y146833D01*
X402826Y146800D01*
X402918Y146758D01*
X403035Y146733D01*
X403151Y146708D01*
X403276Y146700D01*
X403326D01*
X403359Y146708D01*
X403451Y146725D01*
X403568Y146750D01*
X403709Y146800D01*
X403851Y146866D01*
X403993Y146966D01*
X404067Y147033D01*
X404134Y147100D01*
X404142Y147108D01*
X404151Y147116D01*
X404168Y147141D01*
X404193Y147175D01*
X404217Y147216D01*
X404251Y147266D01*
X404284Y147324D01*
X404318Y147383D01*
X404376Y147541D01*
X404434Y147733D01*
X404476Y147949D01*
X404492Y148066D01*
Y148191D01*
Y148199D01*
Y148224D01*
Y148258D01*
X404484Y148299D01*
Y148358D01*
X404476Y148424D01*
X404451Y148574D01*
X404409Y148741D01*
X404342Y148916D01*
X404251Y149082D01*
X404201Y149166D01*
X404134Y149241D01*
Y149249D01*
X404118Y149257D01*
X404067Y149299D01*
X403993Y149366D01*
X403893Y149432D01*
X403759Y149499D01*
X403609Y149566D01*
X403434Y149607D01*
X403343Y149624D01*
D02*
G37*
G36*
X397969Y151857D02*
X395820D01*
Y149732D01*
X397777D01*
X397836Y149741D01*
X397969Y149749D01*
X398111Y149757D01*
X398269Y149782D01*
X398411Y149807D01*
X398544Y149849D01*
X398561Y149857D01*
X398602Y149874D01*
X398661Y149899D01*
X398736Y149941D01*
X398811Y149991D01*
X398894Y150057D01*
X398977Y150140D01*
X399044Y150232D01*
X399052Y150240D01*
X399069Y150282D01*
X399102Y150332D01*
X399136Y150407D01*
X399160Y150490D01*
X399194Y150590D01*
X399211Y150690D01*
X399219Y150807D01*
Y150815D01*
Y150824D01*
Y150849D01*
X399211Y150882D01*
X399202Y150965D01*
X399177Y151074D01*
X399136Y151190D01*
X399077Y151315D01*
X398994Y151440D01*
X398885Y151557D01*
X398869Y151573D01*
X398819Y151607D01*
X398744Y151648D01*
X398627Y151707D01*
X398561Y151732D01*
X398486Y151765D01*
X398402Y151790D01*
X398302Y151807D01*
X398202Y151832D01*
X398094Y151840D01*
X397969Y151857D01*
D02*
G37*
G36*
X563958Y257158D02*
X561808D01*
Y255034D01*
X563766D01*
X563824Y255042D01*
X563958Y255051D01*
X564099Y255059D01*
X564258Y255084D01*
X564399Y255109D01*
X564532Y255151D01*
X564549Y255159D01*
X564591Y255176D01*
X564649Y255201D01*
X564724Y255242D01*
X564799Y255292D01*
X564882Y255359D01*
X564966Y255442D01*
X565032Y255534D01*
X565041Y255542D01*
X565057Y255584D01*
X565091Y255634D01*
X565124Y255709D01*
X565149Y255792D01*
X565182Y255892D01*
X565199Y255992D01*
X565207Y256109D01*
Y256117D01*
Y256125D01*
Y256150D01*
X565199Y256184D01*
X565191Y256267D01*
X565166Y256375D01*
X565124Y256492D01*
X565066Y256617D01*
X564982Y256742D01*
X564874Y256859D01*
X564857Y256875D01*
X564807Y256908D01*
X564732Y256950D01*
X564616Y257008D01*
X564549Y257033D01*
X564474Y257067D01*
X564391Y257092D01*
X564291Y257108D01*
X564191Y257133D01*
X564083Y257142D01*
X563958Y257158D01*
D02*
G37*
G36*
X448388Y151857D02*
X446238D01*
Y149732D01*
X448196D01*
X448254Y149741D01*
X448388Y149749D01*
X448529Y149757D01*
X448688Y149782D01*
X448829Y149807D01*
X448962Y149849D01*
X448979Y149857D01*
X449021Y149874D01*
X449079Y149899D01*
X449154Y149941D01*
X449229Y149991D01*
X449312Y150057D01*
X449396Y150140D01*
X449462Y150232D01*
X449471Y150240D01*
X449487Y150282D01*
X449521Y150332D01*
X449554Y150407D01*
X449579Y150490D01*
X449612Y150590D01*
X449629Y150690D01*
X449637Y150807D01*
Y150815D01*
Y150824D01*
Y150849D01*
X449629Y150882D01*
X449621Y150965D01*
X449596Y151074D01*
X449554Y151190D01*
X449496Y151315D01*
X449412Y151440D01*
X449304Y151557D01*
X449287Y151573D01*
X449237Y151607D01*
X449162Y151648D01*
X449046Y151707D01*
X448979Y151732D01*
X448904Y151765D01*
X448821Y151790D01*
X448721Y151807D01*
X448621Y151832D01*
X448513Y151840D01*
X448388Y151857D01*
D02*
G37*
G36*
X343320Y143746D02*
X341362D01*
X341304Y143738D01*
X341171Y143729D01*
X341029Y143721D01*
X340871Y143696D01*
X340729Y143671D01*
X340596Y143629D01*
X340579Y143621D01*
X340538Y143604D01*
X340479Y143579D01*
X340404Y143538D01*
X340329Y143488D01*
X340246Y143421D01*
X340163Y143338D01*
X340096Y143246D01*
X340088Y143238D01*
X340071Y143196D01*
X340038Y143146D01*
X340005Y143071D01*
X339980Y142988D01*
X339946Y142888D01*
X339930Y142788D01*
X339921Y142671D01*
Y142663D01*
Y142655D01*
Y142630D01*
X339930Y142596D01*
X339938Y142513D01*
X339963Y142405D01*
X340005Y142288D01*
X340063Y142163D01*
X340146Y142038D01*
X340254Y141922D01*
X340271Y141905D01*
X340321Y141872D01*
X340396Y141830D01*
X340513Y141771D01*
X340579Y141747D01*
X340654Y141713D01*
X340738Y141688D01*
X340838Y141671D01*
X340938Y141646D01*
X341046Y141638D01*
X341171Y141622D01*
X343320D01*
Y143746D01*
D02*
G37*
G36*
X337530Y145062D02*
X335514D01*
Y142171D01*
X337530Y145062D01*
D02*
G37*
G36*
X643040Y247778D02*
X641083D01*
X641024Y247769D01*
X640891Y247761D01*
X640749Y247753D01*
X640591Y247728D01*
X640449Y247703D01*
X640316Y247661D01*
X640299Y247653D01*
X640258Y247636D01*
X640199Y247611D01*
X640124Y247569D01*
X640049Y247519D01*
X639966Y247453D01*
X639883Y247369D01*
X639816Y247278D01*
X639808Y247269D01*
X639791Y247228D01*
X639758Y247178D01*
X639725Y247103D01*
X639700Y247020D01*
X639666Y246920D01*
X639650Y246820D01*
X639641Y246703D01*
Y246695D01*
Y246686D01*
Y246661D01*
X639650Y246628D01*
X639658Y246545D01*
X639683Y246436D01*
X639725Y246320D01*
X639783Y246195D01*
X639866Y246070D01*
X639974Y245953D01*
X639991Y245937D01*
X640041Y245903D01*
X640116Y245861D01*
X640233Y245803D01*
X640299Y245778D01*
X640374Y245745D01*
X640458Y245720D01*
X640558Y245703D01*
X640658Y245678D01*
X640766Y245670D01*
X640891Y245653D01*
X643040D01*
Y247778D01*
D02*
G37*
G36*
X604979Y257158D02*
X602830D01*
Y255034D01*
X604787D01*
X604846Y255042D01*
X604979Y255051D01*
X605121Y255059D01*
X605279Y255084D01*
X605421Y255109D01*
X605554Y255151D01*
X605571Y255159D01*
X605612Y255176D01*
X605671Y255201D01*
X605746Y255242D01*
X605821Y255292D01*
X605904Y255359D01*
X605987Y255442D01*
X606054Y255534D01*
X606062Y255542D01*
X606079Y255584D01*
X606112Y255634D01*
X606146Y255709D01*
X606171Y255792D01*
X606204Y255892D01*
X606221Y255992D01*
X606229Y256109D01*
Y256117D01*
Y256125D01*
Y256150D01*
X606221Y256184D01*
X606212Y256267D01*
X606187Y256375D01*
X606146Y256492D01*
X606087Y256617D01*
X606004Y256742D01*
X605896Y256859D01*
X605879Y256875D01*
X605829Y256908D01*
X605754Y256950D01*
X605637Y257008D01*
X605571Y257033D01*
X605496Y257067D01*
X605412Y257092D01*
X605312Y257108D01*
X605212Y257133D01*
X605104Y257142D01*
X604979Y257158D01*
D02*
G37*
G36*
X385477Y237056D02*
X385427D01*
X385386Y237048D01*
X385344D01*
X385286Y237039D01*
X385161Y237006D01*
X385019Y236964D01*
X384869Y236898D01*
X384727Y236806D01*
X384652Y236748D01*
X384586Y236681D01*
X384577Y236673D01*
X384569Y236664D01*
X384552Y236639D01*
X384527Y236606D01*
X384502Y236573D01*
X384469Y236523D01*
X384403Y236406D01*
X384344Y236256D01*
X384286Y236073D01*
X384244Y235856D01*
X384227Y235739D01*
Y235614D01*
Y235606D01*
Y235581D01*
Y235548D01*
X384236Y235506D01*
Y235448D01*
X384244Y235381D01*
X384269Y235223D01*
X384311Y235056D01*
X384378Y234873D01*
X384469Y234698D01*
X384519Y234615D01*
X384586Y234540D01*
Y234531D01*
X384602Y234523D01*
X384652Y234473D01*
X384727Y234415D01*
X384827Y234340D01*
X384952Y234265D01*
X385102Y234198D01*
X385277Y234157D01*
X385369Y234148D01*
X385461Y234140D01*
X385510D01*
X385552Y234148D01*
X385594Y234157D01*
X385644Y234165D01*
X385769Y234190D01*
X385910Y234248D01*
X386069Y234323D01*
X386144Y234373D01*
X386219Y234431D01*
X386294Y234498D01*
X386369Y234573D01*
Y234582D01*
X386385Y234590D01*
X386402Y234615D01*
X386427Y234648D01*
X386460Y234690D01*
X386494Y234740D01*
X386527Y234806D01*
X386560Y234873D01*
X386627Y235031D01*
X386693Y235223D01*
X386735Y235440D01*
X386744Y235556D01*
X386752Y235681D01*
Y235690D01*
Y235706D01*
Y235739D01*
X386744Y235781D01*
Y235840D01*
X386735Y235898D01*
X386710Y236039D01*
X386660Y236198D01*
X386602Y236364D01*
X386510Y236531D01*
X386460Y236606D01*
X386394Y236681D01*
X386385D01*
X386377Y236698D01*
X386327Y236739D01*
X386252Y236798D01*
X386144Y236864D01*
X386010Y236939D01*
X385852Y236998D01*
X385677Y237039D01*
X385577Y237048D01*
X385477Y237056D01*
D02*
G37*
G36*
X392850Y236348D02*
X390892D01*
X390834Y236339D01*
X390701Y236331D01*
X390559Y236323D01*
X390401Y236298D01*
X390259Y236273D01*
X390126Y236231D01*
X390109Y236223D01*
X390068Y236206D01*
X390009Y236181D01*
X389934Y236139D01*
X389859Y236089D01*
X389776Y236023D01*
X389693Y235940D01*
X389626Y235848D01*
X389618Y235840D01*
X389601Y235798D01*
X389568Y235748D01*
X389534Y235673D01*
X389510Y235590D01*
X389476Y235490D01*
X389459Y235390D01*
X389451Y235273D01*
Y235265D01*
Y235256D01*
Y235231D01*
X389459Y235198D01*
X389468Y235115D01*
X389493Y235006D01*
X389534Y234890D01*
X389593Y234765D01*
X389676Y234640D01*
X389784Y234523D01*
X389801Y234506D01*
X389851Y234473D01*
X389926Y234431D01*
X390043Y234373D01*
X390109Y234348D01*
X390184Y234315D01*
X390268Y234290D01*
X390368Y234273D01*
X390468Y234248D01*
X390576Y234240D01*
X390701Y234223D01*
X392850D01*
Y236348D01*
D02*
G37*
G36*
X338240Y238888D02*
X336283D01*
X336224Y238879D01*
X336091Y238871D01*
X335949Y238863D01*
X335791Y238838D01*
X335649Y238813D01*
X335516Y238771D01*
X335499Y238763D01*
X335458Y238746D01*
X335399Y238721D01*
X335324Y238679D01*
X335249Y238629D01*
X335166Y238563D01*
X335083Y238479D01*
X335016Y238388D01*
X335008Y238379D01*
X334991Y238338D01*
X334958Y238288D01*
X334925Y238213D01*
X334899Y238130D01*
X334866Y238030D01*
X334850Y237930D01*
X334841Y237813D01*
Y237805D01*
Y237796D01*
Y237771D01*
X334850Y237738D01*
X334858Y237655D01*
X334883Y237546D01*
X334925Y237430D01*
X334983Y237305D01*
X335066Y237180D01*
X335174Y237063D01*
X335191Y237047D01*
X335241Y237013D01*
X335316Y236971D01*
X335433Y236913D01*
X335499Y236888D01*
X335574Y236855D01*
X335658Y236830D01*
X335758Y236813D01*
X335858Y236788D01*
X335966Y236780D01*
X336091Y236763D01*
X338240D01*
Y238888D01*
D02*
G37*
G36*
X330850Y241920D02*
X330792D01*
X330759Y241912D01*
X330709D01*
X330651Y241904D01*
X330517Y241879D01*
X330376Y241829D01*
X330217Y241770D01*
X330059Y241679D01*
X329984Y241629D01*
X329917Y241562D01*
X329909Y241554D01*
X329901Y241545D01*
X329859Y241495D01*
X329801Y241420D01*
X329734Y241312D01*
X329668Y241179D01*
X329609Y241021D01*
X329567Y240846D01*
X329551Y240746D01*
Y240646D01*
Y240637D01*
Y240621D01*
Y240587D01*
X329559Y240546D01*
Y240504D01*
X329567Y240446D01*
X329601Y240312D01*
X329642Y240162D01*
X329709Y240004D01*
X329801Y239846D01*
X329859Y239771D01*
X329926Y239704D01*
Y239696D01*
X329942Y239688D01*
X329992Y239646D01*
X330076Y239587D01*
X330184Y239513D01*
X330326Y239446D01*
X330484Y239388D01*
X330667Y239346D01*
X330767Y239329D01*
X330925D01*
X330967Y239338D01*
X331017D01*
X331067Y239346D01*
X331200Y239371D01*
X331342Y239421D01*
X331500Y239487D01*
X331650Y239571D01*
X331725Y239629D01*
X331792Y239696D01*
X331809Y239713D01*
X331850Y239762D01*
X331909Y239837D01*
X331967Y239946D01*
X332034Y240079D01*
X332092Y240237D01*
X332133Y240412D01*
X332142Y240512D01*
X332150Y240612D01*
Y240629D01*
Y240671D01*
X332142Y240737D01*
X332133Y240821D01*
X332117Y240921D01*
X332084Y241037D01*
X332050Y241154D01*
X332000Y241270D01*
X331992Y241287D01*
X331967Y241320D01*
X331934Y241379D01*
X331884Y241445D01*
X331817Y241520D01*
X331734Y241604D01*
X331634Y241679D01*
X331525Y241754D01*
X331509Y241762D01*
X331467Y241779D01*
X331409Y241804D01*
X331325Y241837D01*
X331217Y241870D01*
X331109Y241895D01*
X330984Y241912D01*
X330850Y241920D01*
D02*
G37*
G36*
X330842Y238688D02*
X330801D01*
X330767Y238679D01*
X330684Y238671D01*
X330584Y238654D01*
X330467Y238621D01*
X330342Y238571D01*
X330217Y238496D01*
X330101Y238405D01*
X330084Y238388D01*
X330051Y238354D01*
X330009Y238296D01*
X329951Y238213D01*
X329901Y238113D01*
X329851Y237988D01*
X329818Y237855D01*
X329809Y237705D01*
Y237696D01*
Y237688D01*
Y237663D01*
X329818Y237630D01*
X329826Y237555D01*
X329842Y237455D01*
X329884Y237338D01*
X329934Y237213D01*
X330009Y237097D01*
X330109Y236980D01*
X330126Y236963D01*
X330159Y236930D01*
X330226Y236888D01*
X330317Y236830D01*
X330426Y236772D01*
X330551Y236730D01*
X330692Y236697D01*
X330850Y236680D01*
X330892D01*
X330925Y236688D01*
X331009Y236697D01*
X331117Y236713D01*
X331234Y236755D01*
X331359Y236805D01*
X331484Y236871D01*
X331600Y236971D01*
X331609Y236988D01*
X331642Y237022D01*
X331692Y237088D01*
X331742Y237163D01*
X331800Y237271D01*
X331842Y237388D01*
X331875Y237521D01*
X331892Y237663D01*
Y237671D01*
Y237680D01*
Y237705D01*
X331884Y237738D01*
X331875Y237821D01*
X331859Y237921D01*
X331825Y238038D01*
X331775Y238163D01*
X331700Y238288D01*
X331609Y238405D01*
X331592Y238413D01*
X331559Y238446D01*
X331492Y238496D01*
X331400Y238546D01*
X331292Y238596D01*
X331159Y238646D01*
X331009Y238679D01*
X330842Y238688D01*
D02*
G37*
G36*
X448730Y240158D02*
X446772D01*
X446714Y240149D01*
X446581Y240141D01*
X446439Y240133D01*
X446281Y240108D01*
X446139Y240083D01*
X446006Y240041D01*
X445989Y240033D01*
X445948Y240016D01*
X445889Y239991D01*
X445814Y239949D01*
X445739Y239899D01*
X445656Y239833D01*
X445573Y239750D01*
X445506Y239658D01*
X445498Y239650D01*
X445481Y239608D01*
X445448Y239558D01*
X445415Y239483D01*
X445390Y239400D01*
X445356Y239300D01*
X445340Y239200D01*
X445331Y239083D01*
Y239075D01*
Y239066D01*
Y239041D01*
X445340Y239008D01*
X445348Y238925D01*
X445373Y238816D01*
X445415Y238700D01*
X445473Y238575D01*
X445556Y238450D01*
X445664Y238333D01*
X445681Y238316D01*
X445731Y238283D01*
X445806Y238242D01*
X445923Y238183D01*
X445989Y238158D01*
X446064Y238125D01*
X446148Y238100D01*
X446248Y238083D01*
X446348Y238058D01*
X446456Y238050D01*
X446581Y238033D01*
X448730D01*
Y240158D01*
D02*
G37*
G36*
X436384Y243190D02*
X436334D01*
X436292Y243182D01*
X436250Y243174D01*
X436192Y243165D01*
X436067Y243124D01*
X435925Y243065D01*
X435850Y243024D01*
X435775Y242974D01*
X435692Y242915D01*
X435617Y242840D01*
X435542Y242765D01*
X435475Y242674D01*
X435467Y242665D01*
X435459Y242649D01*
X435442Y242615D01*
X435417Y242565D01*
X435392Y242507D01*
X435359Y242424D01*
X435325Y242332D01*
X435284Y242215D01*
X435250Y242082D01*
X435217Y241932D01*
X435184Y241757D01*
X435159Y241566D01*
X435134Y241349D01*
X435117Y241116D01*
X435101Y240858D01*
Y240574D01*
Y240566D01*
Y240558D01*
Y240508D01*
Y240424D01*
X435109Y240316D01*
Y240191D01*
X435117Y240049D01*
X435134Y239883D01*
X435150Y239716D01*
X435192Y239366D01*
X435225Y239191D01*
X435259Y239016D01*
X435300Y238858D01*
X435350Y238716D01*
X435409Y238583D01*
X435475Y238475D01*
Y238466D01*
X435492Y238450D01*
X435509Y238425D01*
X435542Y238391D01*
X435617Y238308D01*
X435725Y238208D01*
X435859Y238116D01*
X436017Y238033D01*
X436100Y238000D01*
X436192Y237975D01*
X436292Y237958D01*
X436392Y237950D01*
X436442D01*
X436483Y237958D01*
X436583Y237975D01*
X436700Y238008D01*
X436842Y238067D01*
X436983Y238150D01*
X437058Y238200D01*
X437125Y238258D01*
X437192Y238333D01*
X437258Y238417D01*
X437267Y238425D01*
X437275Y238442D01*
X437292Y238483D01*
X437317Y238533D01*
X437350Y238600D01*
X437383Y238683D01*
X437416Y238783D01*
X437458Y238908D01*
X437491Y239041D01*
X437533Y239200D01*
X437566Y239375D01*
X437592Y239575D01*
X437625Y239791D01*
X437641Y240033D01*
X437650Y240291D01*
X437658Y240574D01*
Y240583D01*
Y240591D01*
Y240641D01*
Y240724D01*
X437650Y240833D01*
Y240958D01*
X437641Y241099D01*
X437625Y241257D01*
X437608Y241432D01*
X437566Y241782D01*
X437542Y241957D01*
X437500Y242124D01*
X437458Y242290D01*
X437408Y242432D01*
X437358Y242565D01*
X437292Y242674D01*
X437283Y242682D01*
X437275Y242699D01*
X437250Y242724D01*
X437225Y242757D01*
X437150Y242840D01*
X437042Y242932D01*
X436908Y243024D01*
X436750Y243107D01*
X436667Y243140D01*
X436575Y243165D01*
X436483Y243182D01*
X436384Y243190D01*
D02*
G37*
G36*
X231314Y99816D02*
X228423D01*
X231314Y97800D01*
Y99816D01*
D02*
G37*
G36*
X236744Y611223D02*
X236619D01*
X236611D01*
X236586D01*
X236552D01*
X236511Y611214D01*
X236452D01*
X236386Y611206D01*
X236236Y611181D01*
X236069Y611139D01*
X235894Y611073D01*
X235728Y610981D01*
X235644Y610931D01*
X235569Y610865D01*
X235561D01*
X235553Y610848D01*
X235511Y610798D01*
X235444Y610723D01*
X235378Y610623D01*
X235311Y610490D01*
X235244Y610340D01*
X235203Y610165D01*
X235186Y610073D01*
Y609923D01*
X235194Y609882D01*
Y609840D01*
X235203Y609781D01*
X235236Y609665D01*
X235278Y609523D01*
X235344Y609365D01*
X235444Y609215D01*
X235503Y609140D01*
X235569Y609073D01*
X235578D01*
X235586Y609057D01*
X235611Y609040D01*
X235636Y609015D01*
X235719Y608957D01*
X235836Y608890D01*
X235986Y608823D01*
X236152Y608765D01*
X236352Y608723D01*
X236461Y608715D01*
X236577Y608707D01*
X236586D01*
X236594D01*
X236644D01*
X236727Y608715D01*
X236827Y608732D01*
X236944Y608749D01*
X237077Y608773D01*
X237219Y608815D01*
X237360Y608873D01*
X237377Y608882D01*
X237419Y608907D01*
X237485Y608948D01*
X237569Y608998D01*
X237660Y609065D01*
X237752Y609148D01*
X237835Y609248D01*
X237919Y609357D01*
X237927Y609373D01*
X237952Y609407D01*
X237977Y609473D01*
X238010Y609557D01*
X238052Y609648D01*
X238077Y609765D01*
X238102Y609882D01*
X238110Y610006D01*
Y610056D01*
X238102Y610090D01*
X238085Y610181D01*
X238060Y610298D01*
X238010Y610440D01*
X237944Y610581D01*
X237844Y610723D01*
X237777Y610798D01*
X237710Y610865D01*
X237702Y610873D01*
X237694Y610881D01*
X237669Y610898D01*
X237635Y610923D01*
X237594Y610948D01*
X237544Y610981D01*
X237485Y611015D01*
X237427Y611048D01*
X237269Y611106D01*
X237077Y611165D01*
X236861Y611206D01*
X236744Y611223D01*
D02*
G37*
%LPD*%
D12*
X559520Y364500D02*
X586020D01*
Y397500D01*
X559520D02*
X586020D01*
X559520Y364500D02*
Y397500D01*
X673529Y242190D02*
Y258190D01*
Y242190D02*
X700611D01*
Y258190D01*
X673529D02*
X700611D01*
X753830Y363230D02*
X780330D01*
Y396230D01*
X753830D02*
X780330D01*
X753830Y363230D02*
Y396230D01*
X381429Y138050D02*
Y154050D01*
Y138050D02*
X408511D01*
Y154050D01*
X381429D02*
X408511D01*
X587680Y41709D02*
X641680D01*
Y115771D01*
X587680D02*
X641680D01*
X587680Y41709D02*
Y115771D01*
X479680Y21230D02*
X508380D01*
Y77830D01*
X479680D02*
X508380D01*
X479680Y21230D02*
Y77830D01*
X317120Y19960D02*
X345820D01*
Y76560D01*
X317120D02*
X345820D01*
X317120Y19960D02*
Y76560D01*
X547417Y243460D02*
Y259460D01*
Y243460D02*
X574500D01*
Y259460D01*
X547417D02*
X574500D01*
X431847Y138050D02*
Y154050D01*
Y138050D02*
X458930D01*
Y154050D01*
X431847D02*
X458930D01*
X357711Y139320D02*
Y155320D01*
X330629D02*
X357711D01*
X330629Y139320D02*
Y155320D01*
Y139320D02*
X357711D01*
X687790Y364500D02*
X714290D01*
Y397500D01*
X687790D02*
X714290D01*
X687790Y364500D02*
Y397500D01*
X657431Y243460D02*
Y259460D01*
X630349D02*
X657431D01*
X630349Y243460D02*
Y259460D01*
Y243460D02*
X657431D01*
X620480Y364500D02*
X646980D01*
Y397500D01*
X620480D02*
X646980D01*
X620480Y364500D02*
Y397500D01*
X588439Y243460D02*
Y259460D01*
Y243460D02*
X615521D01*
Y259460D01*
X588439D02*
X615521D01*
X407241Y232030D02*
Y248030D01*
X380159D02*
X407241D01*
X380159Y232030D02*
Y248030D01*
Y232030D02*
X407241D01*
X352631Y234570D02*
Y250570D01*
X325549D02*
X352631D01*
X325549Y234570D02*
Y250570D01*
Y234570D02*
X352631D01*
X463121Y235840D02*
Y251840D01*
X436039D02*
X463121D01*
X436039Y235840D02*
Y251840D01*
Y235840D02*
X463121D01*
X219330Y64410D02*
X248030D01*
Y121010D01*
X219330D02*
X248030D01*
X219330Y64410D02*
Y121010D01*
X216790Y331110D02*
X245490D01*
Y387710D01*
X216790D02*
X245490D01*
X216790Y331110D02*
Y387710D01*
X224410Y574950D02*
X253110D01*
Y631550D01*
X224410D02*
X253110D01*
X224410Y574950D02*
Y631550D01*
M02*
