G04*
G04 #@! TF.GenerationSoftware,Altium Limited,Altium Designer,24.6.1 (21)*
G04*
G04 Layer_Color=32768*
%FSLAX44Y44*%
%MOMM*%
G71*
G04*
G04 #@! TF.SameCoordinates,331DEB25-2CF6-4BCB-8A95-B8F28AD14DBC*
G04*
G04*
G04 #@! TF.FilePolarity,Positive*
G04*
G01*
G75*
%ADD12C,0.4000*%
D12*
X559520Y364500D02*
X586020D01*
Y397500D01*
X559520D02*
X586020D01*
X559520Y364500D02*
Y397500D01*
X673529Y242190D02*
Y258190D01*
Y242190D02*
X700611D01*
Y258190D01*
X673529D02*
X700611D01*
X753830Y363230D02*
X780330D01*
Y396230D01*
X753830D02*
X780330D01*
X753830Y363230D02*
Y396230D01*
X897440Y149420D02*
Y175420D01*
Y149420D02*
X922440D01*
Y94420D02*
Y149420D01*
X897440Y94420D02*
X922440D01*
X897440Y68420D02*
Y94420D01*
X747440Y175420D02*
X897440D01*
X747440Y68420D02*
Y175420D01*
Y68420D02*
X897440D01*
X381429Y138050D02*
Y154050D01*
Y138050D02*
X408511D01*
Y154050D01*
X381429D02*
X408511D01*
X448420Y359490D02*
Y369490D01*
X443420Y364490D02*
X453420D01*
X426920Y351490D02*
X469920D01*
X426920Y377490D02*
X469920D01*
Y351490D02*
Y377490D01*
X426920Y351490D02*
Y377490D01*
X587680Y41709D02*
X641680D01*
Y115771D01*
X587680D02*
X641680D01*
X587680Y41709D02*
Y115771D01*
X479680Y21230D02*
X508380D01*
Y77830D01*
X479680D02*
X508380D01*
X479680Y21230D02*
Y77830D01*
X317120Y19960D02*
X345820D01*
Y76560D01*
X317120D02*
X345820D01*
X317120Y19960D02*
Y76560D01*
X547417Y243460D02*
Y259460D01*
Y243460D02*
X574500D01*
Y259460D01*
X547417D02*
X574500D01*
X710040Y556340D02*
Y566340D01*
X705040Y561340D02*
X715041D01*
X688540Y548340D02*
X731540D01*
X688540Y574340D02*
X731540D01*
Y548340D02*
Y574340D01*
X688540Y548340D02*
Y574340D01*
X431847Y138050D02*
Y154050D01*
Y138050D02*
X458930D01*
Y154050D01*
X431847D02*
X458930D01*
X357711Y139320D02*
Y155320D01*
X330629D02*
X357711D01*
X330629Y139320D02*
Y155320D01*
Y139320D02*
X357711D01*
X687790Y364500D02*
X714290D01*
Y397500D01*
X687790D02*
X714290D01*
X687790Y364500D02*
Y397500D01*
X657431Y243460D02*
Y259460D01*
X630349D02*
X657431D01*
X630349Y243460D02*
Y259460D01*
Y243460D02*
X657431D01*
X620480Y364500D02*
X646980D01*
Y397500D01*
X620480D02*
X646980D01*
X620480Y364500D02*
Y397500D01*
X642730Y556340D02*
Y566340D01*
X637730Y561340D02*
X647730D01*
X621230Y548340D02*
X664230D01*
X621230Y574340D02*
X664230D01*
Y548340D02*
Y574340D01*
X621230Y548340D02*
Y574340D01*
X588439Y243460D02*
Y259460D01*
Y243460D02*
X615521D01*
Y259460D01*
X588439D02*
X615521D01*
X407241Y232030D02*
Y248030D01*
X380159D02*
X407241D01*
X380159Y232030D02*
Y248030D01*
Y232030D02*
X407241D01*
X352631Y234570D02*
Y250570D01*
X325549D02*
X352631D01*
X325549Y234570D02*
Y250570D01*
Y234570D02*
X352631D01*
X862620Y515960D02*
X892520D01*
Y431460D02*
Y515960D01*
X862620Y431460D02*
X892520D01*
X862620D02*
Y515960D01*
X336550Y359490D02*
Y369490D01*
X331550Y364490D02*
X341550D01*
X315050Y351490D02*
X358050D01*
X315050Y377490D02*
X358050D01*
Y351490D02*
Y377490D01*
X315050Y351490D02*
Y377490D01*
X393700Y358220D02*
Y368220D01*
X388700Y363220D02*
X398700D01*
X372200Y350220D02*
X415200D01*
X372200Y376220D02*
X415200D01*
Y350220D02*
Y376220D01*
X372200Y350220D02*
Y376220D01*
X463121Y235840D02*
Y251840D01*
X436039D02*
X463121D01*
X436039Y235840D02*
Y251840D01*
Y235840D02*
X463121D01*
X35600Y29260D02*
Y245060D01*
X96800Y244660D01*
Y262160D01*
X131800D01*
Y245060D02*
Y262160D01*
Y245060D02*
X193000D01*
Y29260D02*
Y245060D01*
X131800Y29260D02*
X193000D01*
X131800Y12160D02*
Y29260D01*
X96800Y12160D02*
X131800D01*
X96800D02*
Y29260D01*
X35600D02*
X96800D01*
X456040Y614760D02*
Y624760D01*
X451040Y619760D02*
X461040D01*
X434540Y606760D02*
X477540D01*
X434540Y632760D02*
X477540D01*
Y606760D02*
Y632760D01*
X434540Y606760D02*
Y632760D01*
X398780Y490300D02*
Y500300D01*
X393780Y495300D02*
X403780D01*
X377280Y482300D02*
X420280D01*
X377280Y508300D02*
X420280D01*
Y482300D02*
Y508300D01*
X377280Y482300D02*
Y508300D01*
X344060Y490300D02*
Y500300D01*
X339059Y495300D02*
X349060D01*
X322560Y482300D02*
X365560D01*
X322560Y508300D02*
X365560D01*
Y482300D02*
Y508300D01*
X322560Y482300D02*
Y508300D01*
X219330Y64410D02*
X248030D01*
Y121010D01*
X219330D02*
X248030D01*
X219330Y64410D02*
Y121010D01*
X454660Y487760D02*
Y497760D01*
X449660Y492760D02*
X459660D01*
X433160Y505760D02*
X476160D01*
X433160Y479760D02*
X476160D01*
X433160D02*
Y505760D01*
X476160Y479760D02*
Y505760D01*
X398780Y617300D02*
Y627300D01*
X393780Y622300D02*
X403780D01*
X377280Y635300D02*
X420280D01*
X377280Y609300D02*
X420280D01*
X377280D02*
Y635300D01*
X420280Y609300D02*
Y635300D01*
X344170Y617300D02*
Y627300D01*
X339170Y622300D02*
X349170D01*
X322670Y635300D02*
X365670D01*
X322670Y609300D02*
X365670D01*
X322670D02*
Y635300D01*
X365670Y609300D02*
Y635300D01*
X35600Y435660D02*
Y651460D01*
X96800Y651060D01*
Y668560D01*
X131800D01*
Y651460D02*
Y668560D01*
Y651460D02*
X193000D01*
Y435660D02*
Y651460D01*
X131800Y435660D02*
X193000D01*
X131800Y418560D02*
Y435660D01*
X96800Y418560D02*
X131800D01*
X96800D02*
Y435660D01*
X35600D02*
X96800D01*
X216790Y331110D02*
X245490D01*
Y387710D01*
X216790D02*
X245490D01*
X216790Y331110D02*
Y387710D01*
X224410Y574950D02*
X253110D01*
Y631550D01*
X224410D02*
X253110D01*
X224410Y574950D02*
Y631550D01*
M02*
