G04*
G04 #@! TF.GenerationSoftware,Altium Limited,Altium Designer,24.6.1 (21)*
G04*
G04 Layer_Physical_Order=1*
G04 Layer_Color=255*
%FSLAX44Y44*%
%MOMM*%
G71*
G04*
G04 #@! TF.SameCoordinates,331DEB25-2CF6-4BCB-8A95-B8F28AD14DBC*
G04*
G04*
G04 #@! TF.FilePolarity,Positive*
G04*
G01*
G75*
%ADD12C,0.4000*%
%ADD17R,0.8065X1.3082*%
%ADD18R,2.8000X2.8000*%
%ADD19R,2.2000X2.8000*%
%ADD20R,1.5000X1.5500*%
G04:AMPARAMS|DCode=21|XSize=2.1741mm|YSize=0.5821mm|CornerRadius=0.2911mm|HoleSize=0mm|Usage=FLASHONLY|Rotation=90.000|XOffset=0mm|YOffset=0mm|HoleType=Round|Shape=RoundedRectangle|*
%AMROUNDEDRECTD21*
21,1,2.1741,0.0000,0,0,90.0*
21,1,1.5919,0.5821,0,0,90.0*
1,1,0.5821,0.0000,0.7960*
1,1,0.5821,0.0000,-0.7960*
1,1,0.5821,0.0000,-0.7960*
1,1,0.5821,0.0000,0.7960*
%
%ADD21ROUNDEDRECTD21*%
%ADD22R,0.5821X2.1741*%
%ADD23R,3.9600X3.9600*%
%ADD24R,0.4000X0.9000*%
%ADD30C,1.5700*%
%ADD31R,1.5700X1.5700*%
%ADD36C,1.7000*%
%ADD37C,1.5500*%
%ADD38R,1.5500X1.5500*%
%ADD39C,3.0000*%
%ADD40C,0.5500*%
D12*
X767080Y358140D02*
Y368730D01*
X763270Y354330D02*
X767080Y358140D01*
X728980Y354330D02*
X763270D01*
X754339Y326390D02*
X793750Y365801D01*
X773580Y368730D02*
X790821D01*
X793750Y365801D01*
X723900Y326390D02*
X754339D01*
X701040Y356006D02*
Y370000D01*
Y356006D02*
X702310Y354736D01*
Y354330D02*
Y354736D01*
X633730Y354330D02*
Y370000D01*
X572770Y355600D02*
Y370000D01*
X596900Y342900D02*
X624840D01*
X584200Y355600D02*
X596900Y342900D01*
X622013Y343187D02*
X624553D01*
X624840Y342900D01*
X579270Y367500D02*
Y370000D01*
X609600Y367030D02*
X609723D01*
X612693Y370000D01*
X627230D01*
X707540Y367500D02*
X707717D01*
X710060Y299840D02*
Y365157D01*
X707717Y367500D02*
X710060Y365157D01*
X707540Y367500D02*
Y370000D01*
X678561Y268341D02*
X710060Y299840D01*
X664210Y354330D02*
X702310D01*
X572830Y332740D02*
Y355540D01*
X572770Y355600D02*
X572830Y355540D01*
X694540Y387350D02*
Y407520D01*
X694690Y407670D01*
X707540Y389382D02*
Y408790D01*
X690187Y426143D02*
X707540Y408790D01*
X686873Y426143D02*
X690187D01*
X684530Y372343D02*
Y423800D01*
X686873Y426143D01*
X663598Y439420D02*
X727560D01*
X760580Y406400D01*
X635000Y410822D02*
X663598Y439420D01*
X735076Y388874D02*
X760580D01*
X722630Y401320D02*
X735076Y388874D01*
X722630Y401320D02*
Y402590D01*
X684530Y372343D02*
X686873Y370000D01*
X694540D01*
X583913Y355887D02*
X584200Y355600D01*
X579270Y367500D02*
X583913Y362857D01*
Y355887D02*
Y362857D01*
X572830Y332740D02*
X633730D01*
X547370Y348301D02*
X558038Y337633D01*
X547370Y348301D02*
Y529590D01*
X649073Y348083D02*
Y367657D01*
X646730Y370000D02*
X649073Y367657D01*
X640230Y370000D02*
X646730D01*
X643890Y342900D02*
X649073Y348083D01*
X656073Y283657D02*
Y376157D01*
X637216Y264800D02*
X656073Y283657D01*
X640230Y392000D02*
X656073Y376157D01*
X633730Y332740D02*
Y354330D01*
X622300Y321310D02*
X633730Y332740D01*
X555526Y372110D02*
X557636Y370000D01*
X555120Y372110D02*
X555526D01*
X557636Y370000D02*
X566270D01*
X530225Y199009D02*
Y470535D01*
X558038Y315468D02*
X610489Y263018D01*
X558038Y315468D02*
Y337633D01*
X547370Y529590D02*
X579120Y561340D01*
X633730D01*
X568706Y411226D02*
Y411632D01*
X565150Y415188D02*
Y447040D01*
Y415188D02*
X568706Y411632D01*
X594360Y447040D02*
X627230Y414170D01*
X579270Y459161D02*
X651730Y531622D01*
X627230Y392000D02*
Y414170D01*
X568706Y410820D02*
Y411226D01*
X566270Y392000D02*
Y408384D01*
X568706Y410820D01*
X539620Y553590D02*
X570230Y584200D01*
X539620Y365760D02*
Y553590D01*
X751410Y368730D02*
X760580D01*
X707540Y389382D02*
X713486D01*
X635000Y183134D02*
X642141Y175993D01*
Y213839D01*
Y90957D02*
Y175993D01*
X633730Y55079D02*
Y82547D01*
X622300Y256540D02*
Y321310D01*
X610489Y251460D02*
Y263018D01*
X581406Y251460D02*
X593471D01*
X509270Y176530D02*
Y283210D01*
X628650Y223520D02*
X632460D01*
X642141Y213839D01*
X633730Y82547D02*
X642141Y90957D01*
X669798Y231902D02*
X678561Y240665D01*
X552450Y238252D02*
X558800Y231902D01*
X678561Y240665D02*
Y250190D01*
X558800Y231902D02*
X669798D01*
X595630Y102401D02*
Y120142D01*
X530225Y199009D02*
X546100Y183134D01*
X635000D01*
X596900Y155956D02*
X633730Y119126D01*
X469392Y155956D02*
X596900D01*
X477965Y281115D02*
X513080Y316230D01*
X458088Y261238D02*
X477965Y281115D01*
X457420Y347472D02*
Y359462D01*
X389780Y570120D02*
X439420Y619760D01*
X389780Y570120D02*
X389780Y570120D01*
X389780Y611742D01*
X389780Y495300D02*
X389780Y570120D01*
X336677Y477647D02*
X342900Y471424D01*
X335060Y479264D02*
X336677Y477647D01*
X635382Y251460D02*
Y262965D01*
X637216Y264800D01*
X482600Y641010D02*
X486040Y637570D01*
X472608Y651002D02*
X482600Y641010D01*
X338074Y651002D02*
X472608D01*
X273812D02*
X338074D01*
X403479Y146050D02*
Y156083D01*
X400050Y159512D02*
X403479Y156083D01*
X380492Y159512D02*
X400050D01*
X376682Y155702D02*
X380492Y159512D01*
X376682Y127000D02*
Y155702D01*
Y127000D02*
X389382Y114300D01*
X416560D01*
X494030Y36830D01*
X458088Y243840D02*
Y261238D01*
X477965Y281115D02*
X478028Y385826D01*
X442722Y421132D02*
X478028Y385826D01*
X335026Y421132D02*
X442722D01*
X327550Y413656D02*
X335026Y421132D01*
X327550Y364490D02*
Y413656D01*
X335060Y479264D02*
Y495300D01*
X342900Y471424D02*
X438150D01*
X445660Y478934D01*
Y492760D01*
X231140Y372110D02*
X336677Y477647D01*
X335060Y495300D02*
X336677Y477647D01*
X389780Y611742D02*
Y622300D01*
X389780Y495300D02*
Y570120D01*
X439420Y619760D02*
X447040D01*
X436880Y146050D02*
Y216916D01*
X463660Y492760D02*
Y546464D01*
X486040Y568844D02*
Y637570D01*
X238760Y615950D02*
X273812Y651002D01*
X678561Y250190D02*
Y268341D01*
X570230Y584200D02*
X701208D01*
X719041Y566368D01*
Y561340D02*
Y566368D01*
X453897Y146050D02*
X478790D01*
X431800Y342900D02*
X440140Y351240D01*
X449198D01*
X457420Y359462D01*
Y364490D01*
X745490Y374650D02*
X751410Y368730D01*
X773580Y402740D02*
X778435Y407595D01*
X773580Y390730D02*
Y402740D01*
X407780Y622300D02*
Y636040D01*
X412750Y641010D01*
X482600D01*
X463660Y546464D02*
X486040Y568844D01*
X322072Y635000D02*
X338074Y651002D01*
X322072Y608838D02*
Y635000D01*
Y608838D02*
X349250D01*
X353170Y612758D01*
Y622300D01*
X407780Y485775D02*
Y495300D01*
X403843Y481838D02*
X407780Y485775D01*
X353060Y481838D02*
X403843D01*
X353060D02*
Y495300D01*
X330582Y202184D02*
Y242570D01*
X326136Y197738D02*
X330582Y202184D01*
X326136Y133096D02*
Y197738D01*
Y133096D02*
X336550Y122682D01*
X349758D01*
X366776Y139700D01*
Y193040D01*
X402209Y228472D01*
Y240030D01*
X327550Y355600D02*
Y364490D01*
X318660Y346710D02*
X327550Y355600D01*
X231140Y346710D02*
X318660D01*
X318008Y49022D02*
X331470Y35560D01*
X318008Y49022D02*
Y259842D01*
X231140Y346710D02*
X318008Y259842D01*
X569467Y251460D02*
Y260350D01*
X566419Y263398D02*
X569467Y260350D01*
X546100Y263398D02*
X566419D01*
X539496Y256794D02*
X546100Y263398D01*
X539496Y216408D02*
Y256794D01*
X652399Y251460D02*
Y264414D01*
X691134Y303150D01*
Y318516D01*
X760580Y390730D02*
Y406400D01*
X458088Y167260D02*
Y243840D01*
Y167260D02*
X469392Y155956D01*
X633730Y102401D02*
Y119126D01*
X850940Y35055D02*
Y84920D01*
X838200Y22314D02*
X850940Y35055D01*
X592874Y22314D02*
X838200D01*
X586994Y28194D02*
X592874Y22314D01*
X586994Y28194D02*
Y71450D01*
X603555D01*
X608330Y66675D01*
Y55079D02*
Y66675D01*
X773580Y390730D02*
X779617Y401157D01*
X877570Y499110D01*
X385191Y240030D02*
Y251080D01*
X395986Y261874D01*
Y286038D01*
X457420Y347472D01*
X87884Y55576D02*
X114300Y29160D01*
X87884Y218744D02*
X114300Y245160D01*
Y435560D02*
X134874Y414986D01*
Y157734D02*
Y414986D01*
X114300Y137160D02*
X134874Y157734D01*
X114300Y435560D02*
X139700Y460960D01*
Y626160D01*
X114300Y651560D02*
X139700Y626160D01*
X93726Y564134D02*
X114300Y543560D01*
X93726Y564134D02*
Y664210D01*
X101600Y672084D01*
X157226D01*
X238760Y590550D01*
X352678Y147320D02*
X355600Y160910D01*
Y198374D01*
X598756Y392000D02*
X598932Y392176D01*
X579270Y392000D02*
X598756D01*
X579270D02*
Y459161D01*
X651730Y531622D02*
Y561340D01*
X701040D01*
X330582Y242570D02*
Y295910D01*
X345550Y310879D01*
Y364490D01*
X402700Y363220D02*
X421132D01*
X422402Y364490D01*
X439420D01*
Y372660D01*
X444500Y377740D01*
X470420D01*
Y344690D02*
Y377740D01*
X441072Y315341D02*
X470420Y344690D01*
X441072Y243840D02*
Y315341D01*
X445660Y492760D02*
Y561738D01*
X478040Y594118D01*
Y633010D01*
X451866D02*
X478040D01*
X451866Y623570D02*
Y633010D01*
X448056Y619760D02*
X451866Y623570D01*
X447040Y619760D02*
X448056D01*
X389780Y622300D02*
Y631825D01*
X385843Y635762D02*
X389780Y631825D01*
X339107Y635762D02*
X385843D01*
X335170Y631825D02*
X339107Y635762D01*
X335170Y622300D02*
Y631825D01*
X680250Y62230D02*
X776940Y158920D01*
X595630Y45212D02*
Y55079D01*
Y45212D02*
X602870Y37971D01*
X640714D01*
X695579Y92837D01*
Y250190D01*
X386461Y137921D02*
Y146050D01*
Y137921D02*
X390525Y133858D01*
X446532D01*
X453897Y141223D01*
Y146050D01*
X621030Y55079D02*
Y78232D01*
X804392Y91948D02*
X870940Y158496D01*
Y158920D01*
X618236Y87122D02*
X621030Y89916D01*
Y102401D01*
X335662Y147320D02*
Y188976D01*
X347598Y200913D01*
Y242570D01*
X384700Y279671D01*
Y363220D01*
Y377080D01*
X418846Y411226D01*
X719041Y511302D02*
Y561340D01*
X552450Y238252D02*
Y251460D01*
X217678Y121412D02*
X233680Y105410D01*
X217678Y121412D02*
Y457708D01*
X289560Y529590D01*
X344170D01*
X353060Y520700D01*
Y495300D02*
Y520700D01*
X233680Y105410D02*
X319786Y19304D01*
X508762D01*
X568908Y79450D01*
X598880D01*
X608330Y88900D01*
Y102401D01*
X407780Y495300D02*
Y548530D01*
X465040Y605790D01*
Y619760D01*
X760580Y388874D02*
Y390730D01*
X877570Y448310D02*
Y473710D01*
X463660Y492760D02*
X508000D01*
X530225Y470535D01*
X894080Y55880D02*
Y635000D01*
X825500Y703580D02*
X894080Y635000D01*
X2758Y703580D02*
X825500D01*
X1270Y3810D02*
Y702092D01*
X2758Y703580D01*
X1270Y3810D02*
X3810Y1270D01*
X839470D01*
X894080Y55880D01*
X87884Y55576D02*
Y218744D01*
D17*
X695579Y250190D02*
D03*
X678561D02*
D03*
X403479Y146050D02*
D03*
X386461D02*
D03*
X569467Y251460D02*
D03*
X552450D02*
D03*
X453897Y146050D02*
D03*
X436880D02*
D03*
X335662Y147320D02*
D03*
X352678D02*
D03*
X635382Y251460D02*
D03*
X652399D02*
D03*
X610489D02*
D03*
X593471D02*
D03*
X385191Y240030D02*
D03*
X402209D02*
D03*
X330582Y242570D02*
D03*
X347598D02*
D03*
X441072Y243840D02*
D03*
X458088D02*
D03*
D18*
X776940Y158920D02*
D03*
D19*
X870940D02*
D03*
X850940Y84920D02*
D03*
D20*
X457420Y364490D02*
D03*
X439420D02*
D03*
X719041Y561340D02*
D03*
X701040D02*
D03*
X651730D02*
D03*
X633730D02*
D03*
X345550Y364490D02*
D03*
X327550D02*
D03*
X402700Y363220D02*
D03*
X384700D02*
D03*
X465040Y619760D02*
D03*
X447040D02*
D03*
X407780Y495300D02*
D03*
X389780D02*
D03*
X353060D02*
D03*
X335060D02*
D03*
X445660Y492760D02*
D03*
X463660D02*
D03*
X389780Y622300D02*
D03*
X407780D02*
D03*
X335170D02*
D03*
X353170D02*
D03*
D21*
X595630Y102401D02*
D03*
X608330D02*
D03*
X621030D02*
D03*
X633730D02*
D03*
Y55079D02*
D03*
X621030D02*
D03*
X608330D02*
D03*
D22*
X595630D02*
D03*
D23*
X114300Y137160D02*
D03*
Y543560D02*
D03*
D24*
X566270Y392000D02*
D03*
X579270D02*
D03*
Y370000D02*
D03*
X572770D02*
D03*
X566270D02*
D03*
X760580Y390730D02*
D03*
X773580D02*
D03*
Y368730D02*
D03*
X767080D02*
D03*
X760580D02*
D03*
X694540Y392000D02*
D03*
X707540D02*
D03*
Y370000D02*
D03*
X701040D02*
D03*
X694540D02*
D03*
X627230Y392000D02*
D03*
X640230D02*
D03*
Y370000D02*
D03*
X633730D02*
D03*
X627230D02*
D03*
D30*
X494030Y62230D02*
D03*
X331470Y60960D02*
D03*
X233680Y105410D02*
D03*
X231140Y372110D02*
D03*
X238760Y615950D02*
D03*
D31*
X494030Y36830D02*
D03*
X331470Y35560D02*
D03*
X233680Y80010D02*
D03*
X231140Y346710D02*
D03*
X238760Y590550D02*
D03*
D36*
X789940Y121920D02*
D03*
X859940D02*
D03*
D37*
X877570Y499110D02*
D03*
Y473710D02*
D03*
D38*
Y448310D02*
D03*
D39*
X114300Y29160D02*
D03*
Y245160D02*
D03*
Y435560D02*
D03*
Y651560D02*
D03*
D40*
X609600Y367030D02*
D03*
X702310Y354330D02*
D03*
X728980D02*
D03*
X664210D02*
D03*
X694690Y407670D02*
D03*
X722630Y402590D02*
D03*
X584200Y355600D02*
D03*
X643890Y342900D02*
D03*
X624840D02*
D03*
X633730Y354330D02*
D03*
X555120Y372110D02*
D03*
X565150Y447040D02*
D03*
X594360D02*
D03*
X539620Y365760D02*
D03*
X622300Y256540D02*
D03*
X581406Y251460D02*
D03*
X628650Y223520D02*
D03*
X595630Y120142D02*
D03*
X513080Y316230D02*
D03*
X436880Y216916D02*
D03*
X637216Y264800D02*
D03*
X478790Y146050D02*
D03*
X509270Y176530D02*
D03*
Y283210D02*
D03*
X723900Y326390D02*
D03*
X431800Y342900D02*
D03*
X745490Y374650D02*
D03*
X778435Y407595D02*
D03*
X539496Y216408D02*
D03*
X691134Y318516D02*
D03*
X713486Y389382D02*
D03*
X355600Y198374D02*
D03*
X598932Y392176D02*
D03*
X680250Y62230D02*
D03*
X621030Y78232D02*
D03*
X804392Y91948D02*
D03*
X618236Y87122D02*
D03*
X418846Y411226D02*
D03*
X719041Y511302D02*
D03*
X568706Y411226D02*
D03*
M02*
