G04*
G04 #@! TF.GenerationSoftware,Altium Limited,Altium Designer,24.6.1 (21)*
G04*
G04 Layer_Color=128*
%FSLAX44Y44*%
%MOMM*%
G71*
G04*
G04 #@! TF.SameCoordinates,331DEB25-2CF6-4BCB-8A95-B8F28AD14DBC*
G04*
G04*
G04 #@! TF.FilePolarity,Positive*
G04*
G01*
G75*
%ADD41C,0.1270*%
D41*
X781440Y121920D02*
X798440D01*
X789940Y113420D02*
Y130420D01*
X851440Y121920D02*
X868440D01*
X859940Y113420D02*
Y130420D01*
X488930Y62230D02*
X499130D01*
X494030Y57130D02*
Y67330D01*
X488930Y36830D02*
X499130D01*
X494030Y31730D02*
Y41930D01*
X326370Y60960D02*
X336570D01*
X331470Y55860D02*
Y66060D01*
X326370Y35560D02*
X336570D01*
X331470Y30460D02*
Y40660D01*
X872470Y499110D02*
X882670D01*
X877570Y494010D02*
Y504210D01*
X872470Y473710D02*
X882670D01*
X877570Y468610D02*
Y478810D01*
X872470Y448310D02*
X882670D01*
X877570Y443210D02*
Y453410D01*
X104300Y29160D02*
X124300D01*
X114300Y19160D02*
Y39160D01*
X104300Y245160D02*
X124300D01*
X114300Y235160D02*
Y255160D01*
X228580Y105410D02*
X238780D01*
X233680Y100310D02*
Y110510D01*
X228580Y80010D02*
X238780D01*
X233680Y74910D02*
Y85110D01*
X104300Y435560D02*
X124300D01*
X114300Y425560D02*
Y445560D01*
X104300Y651560D02*
X124300D01*
X114300Y641560D02*
Y661560D01*
X226040Y372110D02*
X236240D01*
X231140Y367010D02*
Y377210D01*
X226040Y346710D02*
X236240D01*
X231140Y341610D02*
Y351810D01*
X233660Y615950D02*
X243860D01*
X238760Y610850D02*
Y621050D01*
X233660Y590550D02*
X243860D01*
X238760Y585450D02*
Y595650D01*
X608350Y367030D02*
X610850D01*
X609600Y365780D02*
Y368280D01*
X701060Y354330D02*
X703560D01*
X702310Y353080D02*
Y355580D01*
X727730Y354330D02*
X730230D01*
X728980Y353080D02*
Y355580D01*
X662960Y354330D02*
X665460D01*
X664210Y353080D02*
Y355580D01*
X693440Y407670D02*
X695940D01*
X694690Y406420D02*
Y408920D01*
X721380Y402590D02*
X723880D01*
X722630Y401340D02*
Y403840D01*
X582950Y355600D02*
X585450D01*
X584200Y354350D02*
Y356850D01*
X642640Y342900D02*
X645140D01*
X643890Y341650D02*
Y344150D01*
X623590Y342900D02*
X626090D01*
X624840Y341650D02*
Y344150D01*
X632480Y354330D02*
X634980D01*
X633730Y353080D02*
Y355580D01*
X553870Y372110D02*
X556370D01*
X555120Y370860D02*
Y373360D01*
X563900Y447040D02*
X566400D01*
X565150Y445790D02*
Y448290D01*
X593110Y447040D02*
X595610D01*
X594360Y445790D02*
Y448290D01*
X538370Y365760D02*
X540870D01*
X539620Y364510D02*
Y367010D01*
X621050Y256540D02*
X623550D01*
X622300Y255290D02*
Y257790D01*
X580156Y251460D02*
X582656D01*
X581406Y250210D02*
Y252710D01*
X627400Y223520D02*
X629900D01*
X628650Y222270D02*
Y224770D01*
X594380Y120142D02*
X596880D01*
X595630Y118892D02*
Y121392D01*
X511830Y316230D02*
X514330D01*
X513080Y314980D02*
Y317480D01*
X435630Y216916D02*
X438130D01*
X436880Y215666D02*
Y218166D01*
X635966Y264800D02*
X638466D01*
X637216Y263550D02*
Y266050D01*
X477540Y146050D02*
X480040D01*
X478790Y144800D02*
Y147300D01*
X508020Y176530D02*
X510520D01*
X509270Y175280D02*
Y177780D01*
X508020Y283210D02*
X510520D01*
X509270Y281960D02*
Y284460D01*
X722650Y326390D02*
X725150D01*
X723900Y325140D02*
Y327640D01*
X430550Y342900D02*
X433050D01*
X431800Y341650D02*
Y344150D01*
X744240Y374650D02*
X746740D01*
X745490Y373400D02*
Y375900D01*
X777185Y407595D02*
X779685D01*
X778435Y406345D02*
Y408845D01*
X538246Y216408D02*
X540746D01*
X539496Y215158D02*
Y217658D01*
X689884Y318516D02*
X692384D01*
X691134Y317266D02*
Y319766D01*
X712236Y389382D02*
X714736D01*
X713486Y388132D02*
Y390632D01*
X354350Y198374D02*
X356850D01*
X355600Y197124D02*
Y199624D01*
X597682Y392176D02*
X600182D01*
X598932Y390926D02*
Y393426D01*
X679000Y62230D02*
X681500D01*
X680250Y60980D02*
Y63480D01*
X619780Y78232D02*
X622280D01*
X621030Y76982D02*
Y79482D01*
X803142Y91948D02*
X805642D01*
X804392Y90698D02*
Y93198D01*
X616986Y87122D02*
X619486D01*
X618236Y85872D02*
Y88372D01*
X417596Y411226D02*
X420096D01*
X418846Y409976D02*
Y412476D01*
X717791Y511302D02*
X720291D01*
X719041Y510052D02*
Y512552D01*
X567456Y411226D02*
X569956D01*
X568706Y409976D02*
Y412476D01*
M02*
