G04*
G04 #@! TF.GenerationSoftware,Altium Limited,Altium Designer,24.6.1 (21)*
G04*
G04 Layer_Color=0*
%FSLAX44Y44*%
%MOMM*%
G71*
G04*
G04 #@! TF.SameCoordinates,331DEB25-2CF6-4BCB-8A95-B8F28AD14DBC*
G04*
G04*
G04 #@! TF.FilePolarity,Positive*
G04*
G01*
G75*
%ADD12C,0.4000*%
D12*
X567770Y381000D02*
X577770D01*
X572770Y376000D02*
Y386000D01*
X687070Y245190D02*
Y255190D01*
X682070Y250190D02*
X692070D01*
X762080Y379730D02*
X772080D01*
X767080Y374730D02*
Y384730D01*
X394970Y141050D02*
Y151050D01*
X389970Y146050D02*
X399970D01*
X609680Y78740D02*
X619680D01*
X614680Y73740D02*
Y83740D01*
X489030Y49530D02*
X499030D01*
X494030Y44530D02*
Y54530D01*
X326470Y48260D02*
X336470D01*
X331470Y43260D02*
Y53260D01*
X560959Y246460D02*
Y256460D01*
X555959Y251460D02*
X565959D01*
X445388Y141050D02*
Y151050D01*
X440389Y146050D02*
X450389D01*
X344170Y142320D02*
Y152320D01*
X339170Y147320D02*
X349170D01*
X696040Y381000D02*
X706040D01*
X701040Y376000D02*
Y386000D01*
X643890Y246460D02*
Y256460D01*
X638890Y251460D02*
X648890D01*
X628730Y381000D02*
X638730D01*
X633730Y376000D02*
Y386000D01*
X601980Y246460D02*
Y256460D01*
X596980Y251460D02*
X606980D01*
X393700Y235030D02*
Y245030D01*
X388700Y240030D02*
X398700D01*
X339090Y237570D02*
Y247570D01*
X334090Y242570D02*
X344090D01*
X449580Y238840D02*
Y248840D01*
X444580Y243840D02*
X454580D01*
X228680Y92710D02*
X238680D01*
X233680Y87710D02*
Y97710D01*
X226140Y359410D02*
X236140D01*
X231140Y354410D02*
Y364410D01*
X233760Y603250D02*
X243760D01*
X238760Y598250D02*
Y608250D01*
M02*
